<?xml version="1.0" encoding="UTF-8"?>
<svg id="Layer_1" data-name="Layer 1" xmlns="http://www.w3.org/2000/svg" xmlns:xlink="http://www.w3.org/1999/xlink" viewBox="0 0 561.2 464.96">
  <defs>
    <style>
      .cls-1 {
        fill: url(#linear-gradient);
        stroke-width: 0px;
      }

      .cls-2 {
        filter: url(#drop-shadow-1);
      }
    </style>
    <filter id="drop-shadow-1" filterUnits="userSpaceOnUse">
      <feOffset dx="0" dy="9"/>
      <feGaussianBlur result="blur" stdDeviation="7"/>
      <feFlood flood-color="#000" flood-opacity=".59"/>
      <feComposite in2="blur" operator="in"/>
      <feComposite in="SourceGraphic"/>
    </filter>
    <linearGradient id="linear-gradient" x1="146.7" y1="32.1" x2="414.06" y2="433.15" gradientUnits="userSpaceOnUse">
      <stop offset="0" stop-color="#ffe31a"/>
      <stop offset=".35" stop-color="#fbe018"/>
      <stop offset=".62" stop-color="#f2d712"/>
      <stop offset=".86" stop-color="#e1c808"/>
      <stop offset="1" stop-color="#d4bc00"/>
    </linearGradient>
  </defs>
  <g class="cls-2">
    <path class="cls-1" d="M433.73,51.66s-190.49.14-191.9.26c-20.44,1.69-39.21,9.31-54.54,21.16-5.38,4.15-10.33,8.84-14.8,13.96-4.36,4.98-8.24,10.42-11.57,16.18-.02.03-.04.08-.06.11-8.75,15.15-13.77,32.74-13.78,51.5v.16c.01,8.27.99,16.31,2.84,24h0c.01.1.03.18.05.27,2.34,9.7,6.06,18.89,10.94,27.31h.2s.03.05.05.09l267.36,1.15h.01c10.16,11.57,18.62,24.67,24.99,38.91,1.7,3.79,3.25,7.66,4.65,11.6,5.21,14.77,8.26,30.56,8.74,46.98.05,1.56.08,3.12.08,4.68,0,18.11-3.11,35.51-8.81,51.66-6.81,19.26-17.32,36.76-30.66,51.66-28.37,31.71-69.6,51.66-115.51,51.66-4.2,0-312.01-.81-312.01-.81l162.11-154.18,201.55.87c-.46,28.13-23.41,50.79-51.65,50.79h-129.25s-.32.01-.32.01l-54.56,51.43,185.21.23c23.23,0,44.68-7.66,61.93-20.61.94-.7,1.87-1.43,2.79-2.17.01,0,.03-.01.04-.04,5.36-4.29,10.29-9.14,14.68-14.43,3.75-4.5,7.11-9.31,10.05-14.4,8.8-15.2,13.83-32.84,13.83-51.66,0-8.64-1.05-17.03-3.06-25.05-2.36-9.46-6.01-18.39-10.77-26.62l-274.41-.25c-8.94-11.35-16.36-23.96-21.94-37.52-.01-.01-.01-.03-.02-.04-1.86-4.52-3.53-9.14-4.96-13.85-.04-.13-.08-.25-.12-.38-4.38-14.43-6.75-29.74-6.79-45.58v-.14l.36-.33c-.06-1.74-.1-3.48-.1-5.23,0-1.63.02-3.25.09-4.88.5-16.36,3.54-32.08,8.73-46.79,6.81-19.26,17.32-36.76,30.66-51.66.4-.45.81-.9,1.22-1.35,0-.01.01-.02.02-.03l15.41-14.66s.03-.02.04-.03C177.59,13.37,212.03,0,249.58,0c4.38,0,311.61,1.75,311.61,1.75l-161.13,153.23h-201.32v-.09c0-12.22,4.23-23.41,11.3-32.26h.01s10.55-9.96,10.55-9.96c6.81-4.81,14.81-8.02,23.5-9.07.04-.01.08-.01.11-.01l136.02.65,53.5-52.59Z"/>
  </g>
</svg>