<?xml version="1.0" encoding="UTF-8"?>
<svg xmlns="http://www.w3.org/2000/svg" viewBox="0 0 427.36 413.56">
  <defs>
    <style>
      .cls-1 {
        fill: #ad6359;
      }

      .cls-1, .cls-2, .cls-3, .cls-4, .cls-5, .cls-6, .cls-7, .cls-8, .cls-9, .cls-10, .cls-11, .cls-12 {
        stroke-width: 0px;
      }

      .cls-13 {
        opacity: .2;
      }

      .cls-2 {
        fill: #37474f;
      }

      .cls-3 {
        fill: #c7c7c7;
      }

      .cls-4 {
        fill: #fff;
      }

      .cls-5 {
        opacity: .4;
      }

      .cls-5, .cls-11 {
        fill: #ffc727;
      }

      .cls-6 {
        fill: #263238;
      }

      .cls-7 {
        fill: #a6a6a6;
      }

      .cls-8 {
        fill: #dbdbdb;
      }

      .cls-9 {
        fill: #ebebeb;
      }

      .cls-10 {
        fill: #455a64;
      }

      .cls-12 {
        opacity: .1;
      }
    </style>
  </defs>
  <g id="Background_Complete" data-name="Background Complete">
    <g>
      <path class="cls-9" d="M43.7,274.7l-13.75.28-6.97.11c-2.33.05-4.67.04-7.01.06h-.44s0-.45,0-.45l-.05-11.72v-.5s.5,0,.5,0l13.87.06c4.62,0,9.24.11,13.87.16h.28s0,.27,0,.27c-.02,1.99-.09,3.96-.13,5.92l-.14,5.8ZM43.7,274.7l-.14-5.92c-.05-1.95-.11-3.88-.13-5.8l.27.27c-4.62.05-9.24.16-13.87.16l-13.87.06.5-.5-.05,11.72-.45-.45c2.29.02,4.57,0,6.86.05l6.89.11,13.98.28Z"/>
      <path class="cls-9" d="M28.23,289.47l-13.75.28-6.97.11c-2.33.05-4.67.04-7.01.06H.06s0-.45,0-.45l-.05-11.72v-.5s.5,0,.5,0l13.87.06c4.62,0,9.24.11,13.87.16h.28s0,.27,0,.27c-.02,1.99-.09,3.96-.13,5.92l-.14,5.8ZM28.23,289.47l-.14-5.92c-.05-1.95-.11-3.88-.13-5.8l.27.27c-4.62.05-9.24.16-13.87.16l-13.87.06.5-.5-.05,11.72-.45-.45c2.29.02,4.57,0,6.86.05l6.89.11,13.98.28Z"/>
      <path class="cls-9" d="M222.97,128.62l-13.75.28-6.97.11c-2.33.05-4.67.04-7.01.06h-.44s0-.45,0-.45l-.05-11.72v-.5s.5,0,.5,0l13.87.06c4.62,0,9.24.11,13.87.16h.28s0,.27,0,.27c-.02,1.99-.09,3.96-.13,5.92l-.14,5.8ZM222.97,128.62l-.14-5.92c-.05-1.95-.11-3.88-.13-5.8l.27.27c-4.62.05-9.24.16-13.87.16l-13.87.06.5-.5-.05,11.72-.45-.45c2.29.02,4.57,0,6.86.06l6.89.11,13.98.28Z"/>
      <path class="cls-9" d="M207.24,143.4l-13.75.28-6.97.11c-2.33.05-4.67.04-7.01.05h-.44s0-.45,0-.45l-.05-11.72v-.5s.5,0,.5,0l13.87.06c4.62,0,9.24.11,13.87.16h.28s0,.27,0,.27c-.02,1.99-.09,3.96-.13,5.92l-.14,5.8ZM207.24,143.4l-.14-5.92c-.05-1.95-.11-3.88-.13-5.8l.27.27c-4.62.05-9.24.16-13.87.16l-13.87.06.5-.5-.05,11.72-.45-.45c2.29.02,4.57,0,6.86.06l6.89.11,13.98.28Z"/>
      <path class="cls-9" d="M427.08,289.47l-13.75.28-6.97.11c-2.33.05-4.67.04-7.01.06h-.44s0-.45,0-.45l-.05-11.72v-.5s.5,0,.5,0l13.87.06c4.62,0,9.24.11,13.87.16h.28s0,.27,0,.27c-.02,1.99-.09,3.96-.13,5.92l-.14,5.8ZM427.08,289.47l-.14-5.92c-.05-1.95-.11-3.88-.13-5.8l.27.27c-4.62.05-9.24.16-13.87.16l-13.87.06.5-.5-.05,11.72-.45-.45c2.29.02,4.57,0,6.86.05l6.89.11,13.98.28Z"/>
      <path class="cls-9" d="M411.61,12.22l-13.75.28-6.97.11c-2.33.05-4.67.04-7.01.06h-.44s0-.45,0-.45l-.05-11.72v-.5s.5,0,.5,0l13.87.06c4.62,0,9.24.11,13.87.16h.28s0,.27,0,.27c-.02,1.99-.09,3.96-.13,5.92l-.14,5.8ZM411.61,12.22l-.14-5.92c-.05-1.95-.11-3.88-.13-5.8l.27.27c-4.62.05-9.24.16-13.87.16l-13.87.06.5-.5-.05,11.72-.45-.45c2.29.02,4.57,0,6.86.05l6.89.11,13.98.28Z"/>
      <path class="cls-9" d="M427.08,27l-13.75.28-6.97.11c-2.33.05-4.67.04-7.01.06h-.44s0-.45,0-.45l-.05-11.72v-.5s.5,0,.5,0l13.87.06c4.62,0,9.24.11,13.87.16h.28s0,.27,0,.27c-.02,1.99-.09,3.96-.13,5.92l-.14,5.8ZM427.08,27l-.14-5.92c-.05-1.95-.11-3.88-.13-5.8l.27.27c-4.62.05-9.24.16-13.87.16l-13.87.06.5-.5-.05,11.72-.45-.45c2.29.02,4.57,0,6.86.05l6.89.11,13.98.28Z"/>
      <path class="cls-9" d="M28.23,12.22l-13.75.28-6.97.11c-2.33.05-4.67.04-7.01.06H.06s0-.45,0-.45L0,.5v-.5s.5,0,.5,0l13.87.06c4.62,0,9.24.11,13.87.16h.28s0,.27,0,.27c-.02,1.99-.09,3.96-.13,5.92l-.14,5.8ZM28.23,12.22l-.14-5.92c-.05-1.95-.11-3.88-.13-5.8l.27.27c-4.62.05-9.24.16-13.87.16l-13.87.06.5-.5-.05,11.72-.45-.45c2.29.02,4.57,0,6.86.05l6.89.11,13.98.28Z"/>
      <path class="cls-9" d="M191.51,128.62l-13.75.28-6.97.11c-2.33.05-4.67.04-7.01.06h-.44s0-.45,0-.45l-.05-11.72v-.5s.5,0,.5,0l13.87.06c4.62,0,9.24.11,13.87.16h.28s0,.27,0,.27c-.02,1.99-.09,3.96-.13,5.92l-.14,5.8ZM191.51,128.62l-.14-5.92c-.05-1.95-.11-3.88-.13-5.8l.27.27c-4.62.05-9.24.16-13.87.16l-13.87.06.5-.5-.05,11.72-.45-.45c2.29.02,4.57,0,6.86.06l6.89.11,13.98.28Z"/>
    </g>
    <g>
      <g>
        <rect class="cls-8" x="30.95" y="121.12" width="47.74" height="47.74" transform="translate(199.8 90.17) rotate(90)"/>
        <rect class="cls-4" x="38.35" y="128.52" width="32.93" height="32.93" transform="translate(199.8 90.17) rotate(90)"/>
        <polygon class="cls-9" points="71.28 128.52 38.35 128.52 38.35 161.45 71.28 128.52"/>
        <rect class="cls-3" x="26.28" y="121.12" width="4.67" height="47.74" transform="translate(57.23 289.98) rotate(180)"/>
      </g>
      <g>
        <rect class="cls-8" x="90.04" y="121.12" width="47.74" height="47.74" transform="translate(258.9 31.08) rotate(90)"/>
        <rect class="cls-4" x="97.44" y="128.52" width="32.93" height="32.93" transform="translate(258.9 31.08) rotate(90)"/>
        <polygon class="cls-9" points="120.71 128.52 97.44 128.52 97.44 151.78 120.71 128.52"/>
        <rect class="cls-3" x="85.38" y="121.12" width="4.67" height="47.74" transform="translate(175.42 289.98) rotate(180)"/>
      </g>
      <g>
        <rect class="cls-8" x="53.17" y="158.06" width="62.39" height="106.83" transform="translate(295.84 127.12) rotate(90)"/>
        <rect class="cls-4" x="60.88" y="165.86" width="46.96" height="91.23" transform="translate(295.84 127.12) rotate(90)"/>
        <polygon class="cls-9" points="98.55 188 38.74 188 38.74 218.78 98.55 188"/>
        <rect class="cls-3" x="26.28" y="180.28" width="4.67" height="62.39" transform="translate(57.23 422.95) rotate(180)"/>
      </g>
      <g>
        <rect class="cls-8" x="30.95" y="3.16" width="106.83" height="106.83" transform="translate(140.93 -27.79) rotate(90)"/>
        <rect class="cls-4" x="38.74" y="10.95" width="91.24" height="91.23"/>
        <path class="cls-9" d="M38.74,76.64c13.87-13.79,53.17-52.89,65.8-65.68H38.74v65.68Z"/>
        <rect class="cls-3" x="26.28" y="3.16" width="4.67" height="106.83" transform="translate(57.23 113.14) rotate(180)"/>
      </g>
    </g>
  </g>
  <g id="Shadow">
    <ellipse class="cls-9" cx="213.79" cy="391.62" rx="202.33" ry="21.95"/>
  </g>
  <g id="Device">
    <g>
      <path class="cls-6" d="M397.14,3.16h-158.76c-8.87,0-16.06,7.32-16.06,16.36v326.82c0,9.02,7.19,16.36,16.06,16.36h158.76c8.87,0,16.08-7.33,16.08-16.36V19.52c0-9.04-7.2-16.36-16.08-16.36ZM403.18,336.23c0,8.6-6.44,15.56-14.39,15.56h-142.03c-7.96,0-14.41-6.96-14.41-15.56V31.9c0-17.52,6.44-18.38,14.41-18.38h28.45c1.65,0,3.01,1.88,3.01,4.21v1c0,5.46,2.99,5.47,6.66,5.47h65.79c3.7,0,6.66-.02,6.66-5.47v-1c0-2.33,1.33-4.21,3.01-4.21h28.45c7.94,0,14.39,2.33,14.39,18.38v304.33Z"/>
      <path class="cls-4" d="M326.74,17.4h-17.95c-.61,0-1.11-.5-1.11-1.11h0c0-.61.5-1.11,1.11-1.11h17.95c.61,0,1.11.5,1.11,1.11h0c0,.61-.5,1.11-1.11,1.11Z"/>
      <g>
        <path class="cls-4" d="M403.18,31.9v304.33c0,8.6-6.44,15.56-14.39,15.56h-142.03c-7.96,0-14.41-6.96-14.41-15.56V31.9c0-17.52,6.44-18.38,14.41-18.38h28.45c1.65,0,3.01,1.88,3.01,4.21v1c0,5.46,2.99,5.47,6.66,5.47h65.79c3.7,0,6.66-.02,6.66-5.47v-1c0-2.33,1.33-4.21,3.01-4.21h28.45c7.94,0,14.39,2.33,14.39,18.38Z"/>
        <g class="cls-13">
          <g>
            <path class="cls-5" d="M400.57,338.95c-.41,3.16-1.2,6.16-2.32,9-2.53,2.4-5.84,3.85-9.47,3.85h-142.16c-7.97,0-14.41-6.96-14.41-15.57v-82c5.99-6.14,12.97-10.45,20.21-13.17,17.05-6.37,35.51-3.78,45.65,5.14,14.99,13.19,37.68,48.83,50.56,49.54.88.05,1.9.12,3.05.21,9.33.75,26.6,3.32,38.02,12.83,7.67,6.39,12.71,15.92,10.87,30.17Z"/>
            <path class="cls-6" d="M388.79,352.29h-142.16c-8.22,0-14.91-7.21-14.91-16.07v-76.86l.11-.14c2.58-3.3,5.53-6.59,8.77-9.8,3.47-3.44,7.36-6.4,11.59-8.8,21.55-12.29,46.78-7.71,57.8,3.58,5.08,5.22,10.85,13.32,16.95,21.89,8.67,12.19,17.64,24.79,25.03,29.43,1.58.99,3.05,1.59,4.38,1.77,9.43,1.24,22.92,4.16,33.64,11.07,6.46,4.15,11.06,9.26,13.67,15.2l.04.2v12.46c0,4.64-1.85,9.05-5.08,12.09-2.71,2.57-6.2,3.98-9.81,3.98ZM232.72,259.71v76.51c0,8.31,6.24,15.07,13.91,15.07h142.16c3.35,0,6.59-1.32,9.12-3.71,3.03-2.86,4.77-7,4.77-11.36v-12.36c-2.53-5.71-6.99-10.64-13.25-14.66-10.57-6.81-23.91-9.7-33.24-10.92-1.47-.2-3.08-.84-4.78-1.91-7.55-4.75-16.58-17.43-25.31-29.7-6.08-8.54-11.82-16.61-16.85-21.77-10.76-11.03-35.45-15.47-56.58-3.41-4.15,2.36-7.97,5.27-11.38,8.65-3.16,3.14-6.05,6.36-8.58,9.58Z"/>
          </g>
          <g>
            <path class="cls-5" d="M287.7,43.16c4.34,7.02,1.96,15.37-2.56,17.94-4.52,2.57-12.46,7.69-13.63,10.85-1.17,3.16-8.58,11.14-17.91,6.54-9.33-4.59-8.29-20.66-4.17-30.51,5.44-12.98,26.35-24.11,38.27-4.82Z"/>
            <path class="cls-6" d="M258.21,81.33c-2.29,0-4.56-.63-6.69-1.88-9.51-5.58-6.83-21.96-2.03-31.28,4.04-7.84,13.48-13.76,21.96-13.78h.04c5.19,0,12.43,2.07,17.55,11.88h0c1.94,3.73,2.31,8.08,1.01,11.93-1.01,2.98-2.89,5.31-5.17,6.38-6.01,2.82-12.85,6.75-14.03,9.3-.9,1.94-4.3,5.45-8.75,6.84-1.3.41-2.6.61-3.9.61ZM271.5,35.39h-.04c-8.14.02-17.2,5.71-21.08,13.24-4.81,9.34-6.92,24.94,1.65,29.96,3.13,1.84,6.42,2.23,9.78,1.18,4.16-1.3,7.32-4.53,8.14-6.3,1.59-3.42,10.68-7.98,14.51-9.78,2.04-.96,3.73-3.07,4.65-5.8,1.21-3.59.87-7.66-.95-11.15h0c-4.88-9.37-11.75-11.35-16.67-11.35Z"/>
          </g>
          <g>
            <path class="cls-8" d="M352.89,91.56c-18.75,3.49-27.11,18.43-21.11,26.44,6,8.02,26.9,7.88,30.76,19.44,3.86,11.56,18.25,28.76,33.27,17.14,15.01-11.61-2.78-70.49-42.91-63.02Z"/>
            <path class="cls-6" d="M379.36,163.32c-2.12,0-4.22-.45-6.28-1.36-8.32-3.64-14.46-14.18-16.23-22.71-1.36-6.55-8.52-10.14-15.44-13.62-5.41-2.72-10.52-5.28-12.76-9.15-1.9-3.28-1.77-7.44.34-11.41,3.08-5.77,11.03-12.25,24.13-13.12l.03.5-.03-.5c27.56-1.82,37.79,23.9,40.27,31.83,5,15.98,2.91,32.11-4.78,36.73-3.11,1.87-6.21,2.8-9.25,2.8ZM353.18,92.96c-12.69.84-20.36,7.06-23.31,12.59-1.98,3.71-2.11,7.42-.36,10.44,2.09,3.61,7.07,6.11,12.34,8.75,7.14,3.58,14.52,7.29,15.97,14.31,1.72,8.27,7.64,18.49,15.66,21.99,4.72,2.07,9.64,1.6,14.62-1.39,7.3-4.39,9.21-20.01,4.34-35.57-2.43-7.75-12.41-32.91-39.25-31.13h0Z"/>
          </g>
        </g>
        <g>
          <g id="u5Zjqx">
            <g>
              <path class="cls-3" d="M270.3,20.36c-.09.09-.18.18-.27.27-.05.05-.1.1-.16.16-.74-.72-1.62-1.1-2.65-1.1-1.03,0-1.91.38-2.65,1.1-.05-.05-.1-.1-.15-.15-.09-.09-.18-.18-.27-.27,0,0,0,0,0,0h0s.01-.02.02-.02c.12-.1.23-.21.35-.31.25-.2.52-.37.8-.51.34-.17.69-.29,1.07-.36.18-.03.35-.05.53-.07.06,0,.45,0,.47,0,.12,0,.24.01.36.03.34.04.66.12.98.23.23.08.45.19.66.31.22.13.43.27.63.44.1.08.19.17.29.26h0Z"/>
              <path class="cls-3" d="M265.45,21.65c-.15-.14-.29-.29-.43-.43.49-.49,1.08-.79,1.77-.89,1.03-.14,1.91.17,2.66.88-.15.15-.29.29-.44.43-.49-.48-1.08-.73-1.78-.73-.69,0-1.28.26-1.78.74Z"/>
              <path class="cls-3" d="M268.57,22.09c-.14.14-.29.29-.43.43-.25-.24-.55-.38-.91-.38-.36,0-.66.13-.91.38-.14-.14-.29-.29-.43-.43.69-.72,1.92-.78,2.68,0Z"/>
            </g>
            <path class="cls-3" d="M267.61,22.91c0,.22-.17.39-.39.39s-.39-.17-.39-.39.17-.39.39-.39.39.17.39.39Z"/>
          </g>
          <g>
            <path class="cls-3" d="M243.5,21.19c0-.63.51-1.13,1.13-1.13s1.13.51,1.13,1.13-.51,1.13-1.13,1.13-1.13-.51-1.13-1.13Z"/>
            <path class="cls-3" d="M247.06,21.19c0-.63.51-1.13,1.13-1.13s1.13.51,1.13,1.13-.51,1.13-1.13,1.13-1.13-.51-1.13-1.13Z"/>
            <path class="cls-3" d="M250.63,21.19c0-.63.51-1.13,1.13-1.13s1.13.51,1.13,1.13-.51,1.13-1.13,1.13-1.13-.51-1.13-1.13Z"/>
            <path class="cls-3" d="M254.2,21.19c0-.63.51-1.13,1.13-1.13s1.13.51,1.13,1.13-.51,1.13-1.13,1.13-1.13-.51-1.13-1.13Z"/>
            <path class="cls-3" d="M257.76,21.19c0-.63.51-1.13,1.13-1.13s1.13.51,1.13,1.13-.51,1.13-1.13,1.13-1.13-.51-1.13-1.13Z"/>
          </g>
          <g>
            <path class="cls-3" d="M390.26,23.55h-9v-4.05h9v4.05ZM381.51,23.3h8.5v-3.55h-8.5v3.55Z"/>
            <rect class="cls-3" x="381.92" y="20.12" width="5.94" height="2.82"/>
            <rect class="cls-3" x="390.37" y="20.39" width=".82" height="2.28"/>
          </g>
        </g>
        <g>
          <g>
            <path class="cls-8" d="M306.47,316.38c0,1.4-1.13,2.53-2.53,2.53s-2.53-1.13-2.53-2.53,1.13-2.53,2.53-2.53,2.53,1.13,2.53,2.53Z"/>
            <path class="cls-11" d="M321.88,316.38c0,2.12-1.71,3.83-3.83,3.83s-3.83-1.72-3.83-3.83,1.72-3.83,3.83-3.83,3.83,1.72,3.83,3.83Z"/>
            <path class="cls-8" d="M334.7,316.38c0,1.4-1.13,2.53-2.53,2.53s-2.53-1.13-2.53-2.53,1.13-2.53,2.53-2.53,2.53,1.13,2.53,2.53Z"/>
          </g>
          <g>
            <g>
              <path class="cls-11" d="M297.91,145.38v-7.48c0-.38.3-.7.7-.7s.71.32.71.7v6.77h3.44c.37,0,.7.32.7.71s-.33.7-.7.7h-4.15c-.39,0-.7-.32-.7-.7Z"/>
              <path class="cls-11" d="M311.54,138.3c.79.84,1.28,1.95,1.28,3.21s-.49,2.38-1.28,3.21c-.75.82-1.86,1.36-3.03,1.36s-2.33-.53-3.11-1.36c-.79-.82-1.26-1.95-1.26-3.21s.47-2.37,1.26-3.21c.77-.84,1.89-1.36,3.11-1.36s2.28.52,3.03,1.36ZM311.38,141.51c0-.86-.34-1.66-.86-2.22-.53-.57-1.24-.9-2-.9-.81,0-1.52.33-2.05.9-.53.56-.86,1.36-.86,2.22s.33,1.66.86,2.21c.53.57,1.24.91,2.05.91.76,0,1.47-.34,2-.91.52-.55.86-1.34.86-2.21Z"/>
              <path class="cls-11" d="M314.93,141.52c0-2.55,2.1-4.58,4.68-4.58,1.08,0,2.11.37,2.89.99.33.24.38.71.14,1.03-.24.3-.71.37-1.03.11-.55-.42-1.24-.69-2-.69-.91,0-1.71.34-2.28.93-.6.57-.95,1.34-.95,2.21s.36,1.61.95,2.18c.57.58,1.37.93,2.28.93.63,0,1.23-.19,1.74-.48v-1.74h-1.81c-.39,0-.72-.33-.72-.72s.33-.71.72-.71h2.52c.41,0,.74.3.74.71v2.8c0,.09-.03.14-.04.22-.01.02-.01.04-.03.06h0c-.04.13-.11.23-.24.32-.8.62-1.8.99-2.88.99-2.57,0-4.68-2.02-4.68-4.55Z"/>
              <path class="cls-11" d="M325.74,137.9c0-.39.3-.7.7-.7s.71.3.71.7v7.48c0,.39-.33.7-.71.7s-.7-.3-.7-.7v-7.48Z"/>
              <path class="cls-11" d="M330.92,145.38c0,.38-.32.7-.68.7-.39,0-.7-.32-.7-.7v-7.37h0c-.01-.23.09-.46.28-.6.32-.22.75-.15.96.15l4.09,5.67v-5.22c0-.37.3-.69.69-.69s.7.32.7.69v7.37c0,.38-.32.7-.7.7-.2,0-.39-.1-.52-.25-.02-.02-.05-.05-.06-.08l-4.06-5.63v5.26Z"/>
            </g>
            <g>
              <path class="cls-6" d="M252.16,172.65v-4.14c0-.22.17-.39.39-.39h2.29c.2,0,.39.17.39.39s-.18.39-.39.39h-1.9v1.28h1.63c.21,0,.39.18.39.39,0,.22-.18.39-.39.39h-1.63v1.29h1.9c.2,0,.39.17.39.39s-.18.39-.39.39h-2.27s-.01,0-.01,0h0c-.22,0-.39-.17-.39-.38Z"/>
              <path class="cls-6" d="M259.17,170.98v1.68c0,.2-.17.37-.37.37s-.38-.17-.38-.37v-1.68c0-.39-.33-.7-.72-.7s-.71.32-.71.72v1.66s0,.04,0,.05v.02s0,.03-.02.04v.04c-.06.13-.2.22-.35.22-.03,0-.05,0-.07,0-.17-.04-.3-.18-.3-.36v-1.66h0v-1.09c0-.22.17-.38.37-.38.15,0,.28.08.34.21.22-.13.48-.21.75-.21.44,0,.83.18,1.1.48.26-.3.66-.48,1.1-.48.81,0,1.46.66,1.46,1.47v1.66c0,.2-.17.37-.37.37s-.38-.17-.38-.37v-1.66c0-.4-.32-.72-.71-.72s-.71.32-.73.7Z"/>
              <path class="cls-6" d="M265.86,171.29v1.37c0,.2-.17.37-.37.37-.18,0-.32-.13-.36-.3-.27.19-.58.3-.93.3-.48,0-.89-.2-1.19-.51-.3-.32-.48-.76-.48-1.23s.17-.92.48-1.23c.3-.32.71-.53,1.19-.53.35,0,.67.12.93.31.04-.17.18-.31.36-.31.2,0,.37.17.37.38v1.38ZM265.12,171.29c0-.29-.1-.55-.27-.72-.17-.19-.41-.29-.65-.29s-.49.1-.65.29c-.17.18-.27.43-.27.72s.1.54.27.72c.16.17.4.27.65.27s.48-.1.65-.27c.17-.18.27-.44.27-.72Z"/>
              <path class="cls-6" d="M268,168.65c0,.21-.16.39-.38.39s-.38-.18-.38-.39v-.15c0-.21.17-.38.38-.38s.38.17.38.38v.15ZM268,169.92v2.73c0,.21-.16.38-.38.38s-.38-.17-.38-.38v-2.73c0-.22.17-.39.38-.39s.38.16.38.39Z"/>
              <path class="cls-6" d="M269.49,168.13c.22,0,.39.18.39.39v4.14c0,.21-.18.39-.39.39s-.39-.18-.39-.39v-4.14c0-.21.18-.39.39-.39Z"/>
            </g>
            <g>
              <path class="cls-6" d="M253.8,199.49h-.86v1.52c0,.21-.18.39-.39.39s-.39-.18-.39-.39v-4.14c0-.22.17-.39.39-.39h1.25c.83,0,1.51.67,1.51,1.51s-.67,1.49-1.51,1.49ZM252.94,198.71h.86c.41,0,.72-.32.73-.71,0-.41-.32-.73-.73-.73h-.86v1.44Z"/>
              <path class="cls-6" d="M259.13,199.65v1.37c0,.2-.17.37-.37.37-.18,0-.32-.13-.36-.3-.27.19-.58.3-.93.3-.48,0-.89-.2-1.19-.51-.3-.32-.48-.76-.48-1.23s.17-.92.48-1.23c.3-.32.71-.53,1.19-.53.35,0,.67.12.93.31.04-.18.18-.31.36-.31.2,0,.37.17.37.38v1.38ZM258.39,199.65c0-.29-.1-.55-.27-.72-.17-.19-.41-.29-.65-.29s-.49.1-.65.29c-.17.18-.27.43-.27.72s.1.54.27.72c.16.17.4.27.65.27s.48-.1.65-.27c.17-.18.27-.44.27-.72Z"/>
              <path class="cls-6" d="M260.33,200.4c.13-.17.37-.19.53-.06.18.15.5.32.77.31.19,0,.36-.06.48-.13.1-.08.13-.15.13-.21,0-.03,0-.05-.02-.07,0-.02-.04-.05-.09-.08-.1-.07-.31-.15-.56-.2h0c-.22-.04-.43-.1-.61-.18-.19-.09-.36-.22-.48-.41-.08-.13-.12-.28-.12-.44,0-.32.18-.6.41-.77.25-.17.54-.26.86-.26.48,0,.83.23,1.05.39.17.11.22.34.11.52-.11.17-.34.22-.52.1-.22-.15-.42-.26-.64-.26-.18,0-.33.06-.42.13-.09.06-.11.13-.11.16,0,.03,0,.03.01.06,0,.01.03.04.08.07.09.06.27.13.51.17h0s0,0,0,0c.23.04.45.11.65.2.19.08.38.22.5.41.08.14.13.3.13.46,0,.34-.19.63-.44.81-.25.18-.57.28-.91.28-.55,0-.97-.26-1.25-.48-.15-.13-.17-.36-.05-.52Z"/>
              <path class="cls-6" d="M263.71,200.4c.13-.17.37-.19.53-.06.18.15.5.32.77.31.19,0,.36-.06.48-.13.1-.08.13-.15.13-.21,0-.03,0-.05-.02-.07,0-.02-.04-.05-.09-.08-.1-.07-.31-.15-.56-.2h0c-.22-.04-.43-.1-.61-.18-.19-.09-.36-.22-.48-.41-.08-.13-.12-.28-.12-.44,0-.32.18-.6.41-.77.25-.17.54-.26.86-.26.48,0,.83.23,1.05.39.17.11.22.34.11.52-.11.17-.34.22-.52.1-.22-.15-.42-.26-.64-.26-.18,0-.33.06-.42.13-.09.06-.11.13-.11.16,0,.03,0,.03.01.06,0,.01.03.04.08.07.09.06.27.13.51.17h0s0,0,0,0c.23.04.45.11.65.2.19.08.38.22.5.41.08.14.13.3.13.46,0,.34-.19.63-.44.81-.25.18-.57.28-.91.28-.55,0-.97-.26-1.25-.48-.15-.13-.17-.36-.05-.52Z"/>
              <path class="cls-6" d="M271.73,198.46l-1.16,2.72s-.01.04-.03.06c0,0,0,0,0,0,0,.01-.02.03-.04.04,0,0-.01,0-.01,0-.01.01-.03.03-.04.04,0,0,0,0,0,.01-.02.01-.04.03-.06.04,0,0,0,0,0,0-.01,0-.03,0-.06.01h-.01s-.04,0-.07,0c-.02,0-.04,0-.06,0h-.01s-.03-.01-.05-.01h-.01s-.04-.03-.06-.05h0s-.03-.03-.04-.04c0,0-.01,0-.01,0-.01-.01-.03-.03-.04-.04,0,0,0,0,0,0-.01-.02-.02-.04-.03-.06l-.51-1.21-.5,1.21s-.02.04-.04.06h0s-.03.03-.04.05c0,0,0,0,0,0-.01.01-.03.03-.04.04-.03.02-.04.03-.06.04h-.01s0,0,0,0c-.01,0-.03,0-.04.01h-.01s-.05,0-.07,0c-.03,0-.05,0-.07,0h-.02s-.03-.01-.04-.01t-.01,0s-.05-.02-.06-.04t0,0s-.02-.02-.04-.04h-.01s-.02-.03-.03-.05t0,0s-.02-.04-.04-.06l-1.15-2.72c-.08-.19,0-.4.2-.48.17-.08.39,0,.46.21l.83,1.89.49-1.17c.06-.14.2-.22.34-.22.15,0,.29.08.34.22l.5,1.17.83-1.89c.07-.2.29-.29.47-.21.19.08.29.29.2.48Z"/>
              <path class="cls-6" d="M273.4,200.89c-.3-.31-.48-.74-.48-1.23s.18-.89.48-1.23c.32-.33.72-.53,1.21-.53s.88.2,1.17.53c.32.34.49.75.49,1.23s-.17.93-.49,1.23c-.29.33-.71.53-1.17.53s-.89-.2-1.21-.53ZM273.68,199.65c0,.3.09.55.25.74.18.17.41.26.67.26.25,0,.47-.09.64-.26.17-.2.27-.44.27-.74s-.1-.54-.27-.73c-.18-.15-.4-.27-.64-.27-.27,0-.5.11-.67.27-.16.19-.25.44-.25.73Z"/>
              <path class="cls-6" d="M279.47,198.27c0,.2-.16.37-.37.37-.16,0-.3.04-.42.13-.13.08-.24.2-.32.34-.17.22-.25.49-.29.59v1.33c0,.2-.17.37-.39.37s-.37-.17-.37-.37v-2.76c0-.2.17-.36.37-.36s.39.16.39.36v.05s.1-.11.15-.14c.23-.15.53-.28.88-.27.21,0,.37.16.37.36Z"/>
              <path class="cls-6" d="M283.39,201.02c0,.2-.17.38-.38.38-.19,0-.34-.13-.37-.3-.27.18-.6.3-.95.3-.95,0-1.7-.8-1.7-1.75s.76-1.76,1.7-1.76c.34,0,.68.11.94.29v-1.32c0-.2.17-.38.39-.38s.38.18.38.38v2.78h0v1.37ZM281.69,198.66c-.25,0-.48.11-.66.29-.18.17-.28.43-.28.71s.1.52.28.69c.17.18.41.29.66.29s.48-.11.66-.29c.18-.17.28-.43.28-.69,0-.28-.1-.53-.28-.71-.17-.18-.4-.29-.66-.29Z"/>
            </g>
            <polygon class="cls-10" points="251.43 232.22 268.02 232.07 284.6 232.02 317.77 231.92 350.94 232.02 367.53 232.07 384.12 232.22 367.53 232.36 350.94 232.42 317.77 232.51 284.6 232.42 268.02 232.36 251.43 232.22"/>
            <polygon class="cls-9" points="251.43 161.52 268.02 161.38 284.6 161.33 317.77 161.23 350.94 161.33 367.53 161.38 384.12 161.52 367.53 161.67 350.94 161.72 317.77 161.82 284.6 161.72 268.02 161.67 251.43 161.52"/>
            <g>
              <path class="cls-11" d="M337.3,122.73c-3.23,2.01-6.81,3.54-10.71,4.48-10.08,2.46-20.18.57-28.35-4.5-7.99-4.94-14.14-12.91-16.55-22.76-4.86-19.94,7.34-40.04,27.28-44.9,19.92-4.87,40.02,7.34,44.9,27.28,3.91,16.04-3.24,32.18-16.56,40.4Z"/>
              <g>
                <circle class="cls-4" cx="317.76" cy="86.89" r="11.3" transform="translate(-6.07 26.46) rotate(-4.72)"/>
                <path class="cls-4" d="M337.3,118.07v4.66c-3.23,2.01-6.81,3.54-10.71,4.48-10.08,2.46-20.18.57-28.35-4.5v-4.65c0-10.76,8.74-19.53,19.53-19.53s19.53,8.77,19.53,19.53Z"/>
              </g>
            </g>
            <g>
              <path class="cls-10" d="M251.43,280.65c4.53-.11,9.06-.19,13.59-.23l13.59-.07,13.59.07c4.53.04,9.06.12,13.59.23-4.53.11-9.06.19-13.59.23l-13.59.07-13.59-.07c-4.53-.04-9.06-.12-13.59-.23Z"/>
              <path class="cls-10" d="M329.77,280.65c4.53-.11,9.06-.19,13.59-.23l13.59-.07,13.59.07c4.53.04,9.06.12,13.59.23-4.53.11-9.06.19-13.59.23l-13.59.07-13.59-.07c-4.53-.04-9.06-.12-13.59-.23Z"/>
              <g>
                <path class="cls-10" d="M314.44,281.91c-.31-.31-.49-.76-.49-1.26s.19-.91.49-1.25c.32-.34.73-.54,1.23-.54s.9.21,1.19.54c.32.34.5.76.5,1.25s-.18.94-.5,1.26c-.29.34-.72.54-1.19.54s-.91-.21-1.23-.54ZM314.72,280.66c0,.31.09.56.26.76.18.17.41.26.68.26.25,0,.48-.09.66-.26.18-.2.28-.45.28-.76s-.1-.55-.28-.74c-.18-.16-.41-.27-.66-.27-.27,0-.51.11-.68.27-.16.19-.26.45-.26.74Z"/>
                <path class="cls-10" d="M320.63,279.24c0,.2-.16.38-.38.38-.16,0-.31.04-.43.14-.14.09-.24.21-.33.34-.17.23-.26.5-.29.6v1.36c0,.21-.18.38-.39.38s-.38-.17-.38-.38v-2.81c0-.21.17-.37.38-.37s.39.16.39.37v.05c.04-.05.1-.11.15-.14.24-.16.54-.29.9-.28.21,0,.38.16.38.37Z"/>
              </g>
            </g>
            <g>
              <rect class="cls-10" x="312.03" y="289.92" width="10.5" height="10.5"/>
              <path class="cls-4" d="M315.72,296.31h-1.4v-1.61h1.37c0-.12.01-.22.02-.31,0-.42,0-.85.03-1.27.09-.92.65-1.57,1.57-1.7.57-.08,1.16-.01,1.75-.01v1.46c-.21,0-.42,0-.63,0-.19,0-.38,0-.56.04-.26.06-.44.23-.45.51-.02.41,0,.82,0,1.27h1.6c-.07.53-.12,1.01-.2,1.5,0,.05-.13.11-.2.11-.38.01-.77,0-1.19,0v4.13h-1.7v-4.12Z"/>
            </g>
            <g>
              <rect class="cls-11" x="283.09" y="245.91" width="68.27" height="21.71"/>
              <g>
                <path class="cls-4" d="M302.16,259.81v-5.88c0-.3.24-.55.55-.55s.56.25.56.55v5.32h2.7c.29,0,.55.25.55.56s-.26.55-.55.55h-3.26c-.31,0-.55-.25-.55-.55Z"/>
                <path class="cls-4" d="M312.88,254.25c.62.66,1.01,1.53,1.01,2.52s-.39,1.87-1.01,2.52c-.59.65-1.46,1.07-2.38,1.07s-1.83-.42-2.44-1.07c-.62-.65-.99-1.53-.99-2.52s.37-1.86.99-2.52c.61-.66,1.48-1.07,2.44-1.07s1.79.41,2.38,1.07ZM312.75,256.77c0-.68-.27-1.31-.68-1.74-.42-.45-.98-.71-1.58-.71-.64,0-1.2.26-1.61.71-.42.44-.68,1.07-.68,1.74s.26,1.31.68,1.73c.42.45.98.72,1.61.72.6,0,1.16-.27,1.58-.72.41-.43.68-1.06.68-1.73Z"/>
                <path class="cls-4" d="M315.54,256.78c0-2,1.65-3.6,3.68-3.6.85,0,1.65.29,2.27.78.26.19.3.56.11.81-.19.24-.56.29-.81.09-.43-.33-.98-.54-1.58-.54-.72,0-1.35.27-1.79.73-.47.45-.75,1.06-.75,1.73s.28,1.26.75,1.71c.45.46,1.08.73,1.79.73.5,0,.97-.15,1.37-.38v-1.37h-1.43c-.31,0-.57-.26-.57-.57s.26-.56.57-.56h1.98c.32,0,.58.24.58.56v2.2c0,.07-.02.11-.03.17-.01.02-.01.03-.02.05h0c-.03.1-.09.18-.19.25-.63.49-1.42.78-2.26.78-2.02,0-3.68-1.58-3.68-3.58Z"/>
                <path class="cls-4" d="M324.04,253.93c0-.31.24-.55.55-.55s.56.24.56.55v5.88c0,.31-.26.55-.56.55s-.55-.24-.55-.55v-5.88Z"/>
                <path class="cls-4" d="M328.11,259.81c0,.3-.25.55-.54.55-.31,0-.55-.25-.55-.55v-5.79h0c0-.18.07-.36.22-.47.25-.17.59-.12.76.12l3.22,4.46v-4.11c0-.29.24-.54.54-.54s.55.25.55.54v5.79c0,.3-.25.55-.55.55-.16,0-.31-.08-.41-.2-.02-.02-.04-.04-.05-.06l-3.19-4.43v4.14Z"/>
              </g>
            </g>
            <g>
              <rect class="cls-9" x="251.43" y="178.02" width="132.69" height="11.75"/>
              <g>
                <path class="cls-7" d="M256.5,182.91c0-.12.09-.2.2-.2s.2.09.2.2v2.27c0,.71.57,1.28,1.27,1.29.71,0,1.29-.58,1.29-1.29v-2.27c0-.12.1-.2.2-.2.12,0,.21.09.21.2v2.27c0,.93-.76,1.7-1.71,1.7s-1.68-.76-1.68-1.7v-2.27Z"/>
                <path class="cls-7" d="M261.51,186.01c.07-.09.2-.1.29-.03.29.21.75.48,1.28.48.32,0,.6-.1.79-.25.2-.14.31-.32.31-.51,0-.2-.09-.33-.3-.51-.18-.14-.48-.24-.88-.31h-.02c-.37-.08-.71-.16-.94-.33-.26-.15-.45-.42-.45-.75s.19-.62.45-.82c.25-.17.59-.28,1.02-.28.54,0,.92.25,1.24.45.09.07.12.2.06.29-.06.09-.19.12-.28.06-.31-.2-.61-.42-1.02-.42-.34,0-.61.09-.79.24-.17.14-.26.31-.26.48s.08.29.24.42c.19.13.47.23.85.29h.02c.4.06.72.18,1.01.34.27.18.47.5.47.85s-.19.63-.48.84c-.29.21-.63.33-1.04.33-.67,0-1.2-.32-1.54-.59-.09-.08-.09-.19-.03-.27Z"/>
                <path class="cls-7" d="M265.68,184.81c0-1.16.9-2.09,2.02-2.09s1.92.85,2,1.94h0v.03c0,.11-.09.19-.2.19h-3.41c.04.91.76,1.6,1.61,1.6.55,0,1.06-.29,1.34-.76.06-.1.19-.12.27-.07.09.07.13.19.07.29-.36.57-.98.94-1.68.94-1.12,0-2.02-.93-2.02-2.07ZM266.11,184.47h3.15c-.14-.78-.8-1.35-1.56-1.35s-1.44.56-1.59,1.35Z"/>
                <path class="cls-7" d="M270.97,182.93c0-.12.09-.2.21-.2.1,0,.2.08.2.2v.92s.03-.07.06-.1c.31-.49.87-1.02,1.67-1.02.11,0,.2.08.2.2,0,.11-.09.2-.2.2-.54,0-.92.31-1.21.68-.28.37-.44.8-.5.97-.02.03-.02.05-.02.07v1.83c0,.12-.09.2-.2.2-.12,0-.21-.09-.21-.2v-3.75Z"/>
                <path class="cls-7" d="M277.68,184.41c0-.7-.57-1.28-1.28-1.28s-1.27.58-1.29,1.28v2.29s-.02.07-.04.09c-.03.05-.09.08-.15.08h-.05c-.06-.02-.11-.06-.14-.11,0,0,0-.02,0-.03s0-.02,0-.02v-3.8c0-.11.08-.2.2-.2.11,0,.2.09.2.2v.4c.31-.37.77-.6,1.29-.6.93,0,1.69.76,1.69,1.69v2.26c0,.12-.09.2-.2.2s-.2-.09-.2-.2v-2.26Z"/>
                <path class="cls-7" d="M283.41,182.92v3.75c0,.11-.09.2-.2.2s-.2-.09-.2-.2v-.62c-.36.49-.93.82-1.56.82-1.1,0-1.97-.94-1.97-2.08s.88-2.08,1.97-2.08c.64,0,1.21.32,1.56.82v-.61c0-.12.09-.2.2-.2s.2.09.2.2ZM283,184.8c0-.93-.7-1.68-1.56-1.68s-1.56.75-1.56,1.68.71,1.67,1.56,1.67,1.56-.74,1.56-1.67Z"/>
                <path class="cls-7" d="M291.13,184.41c-.02-.7-.58-1.29-1.29-1.29s-1.28.59-1.28,1.29v2.29s0,.02,0,.02v.02c-.02.05-.06.09-.1.11-.03.02-.07.03-.1.03h-.04s-.02,0-.02,0c-.02,0-.03-.02-.05-.03,0,0-.02,0-.03-.02l-.02-.03s0-.02-.02-.02t0-.02s0,0,0-.02c0,0,0-.02,0-.03v-2.31c0-.7-.57-1.29-1.28-1.29s-1.28.59-1.28,1.29v2.27c0,.07-.03.13-.09.16,0,0-.03.03-.05.03,0,0-.02,0-.03,0h-.05c-.08,0-.14-.08-.17-.15v-3.81c0-.11.09-.2.2-.2.12,0,.2.08.2.2v.4c.31-.37.76-.59,1.28-.59.65,0,1.2.36,1.49.88.3-.53.86-.88,1.49-.88.93,0,1.69.76,1.69,1.69v2.27c0,.1-.09.2-.2.2-.11,0-.19-.09-.19-.2v-2.27Z"/>
                <path class="cls-7" d="M292.96,184.81c0-1.16.9-2.09,2.02-2.09s1.92.85,2,1.94h0v.03c0,.11-.09.19-.2.19h-3.41c.04.91.76,1.6,1.61,1.6.55,0,1.06-.29,1.34-.76.06-.1.19-.12.27-.07.09.07.13.19.07.29-.36.57-.98.94-1.68.94-1.12,0-2.02-.93-2.02-2.07ZM293.39,184.47h3.15c-.14-.78-.8-1.35-1.56-1.35s-1.44.56-1.59,1.35Z"/>
                <path class="cls-7" d="M301.08,180.92c1.65,0,2.97,1.33,2.97,2.97,0,.5-.11.96-.31,1.36-.02.03-.27.5-.77.65-.06.02-.12.02-.17.02-.23,0-.39-.1-.48-.23-.09-.13-.14-.26-.14-.41v-.29c-.28.31-.65.51-1.1.51-.84,0-1.52-.73-1.52-1.61s.68-1.59,1.52-1.59,1.5.72,1.5,1.59v1.36h0c0,.05.03.14.05.19.03.03.07.06.15.06h.07c.26-.06.46-.36.49-.44.19-.34.28-.74.28-1.16,0-1.4-1.15-2.56-2.56-2.56s-2.57,1.16-2.57,2.56,1.16,2.57,2.57,2.57c.22,0,.42,0,.64-.07.11-.03.23.03.24.14.04.11-.03.23-.14.25-.23.06-.48.09-.73.09-1.66,0-2.98-1.33-2.98-2.98s1.32-2.97,2.98-2.97ZM301.08,185.06c.59,0,1.09-.51,1.09-1.16s-.5-1.17-1.09-1.17-1.08.53-1.08,1.17.48,1.16,1.08,1.16Z"/>
                <path class="cls-7" d="M312.72,184.41c-.02-.7-.58-1.29-1.29-1.29s-1.28.59-1.28,1.29v2.29s0,.02,0,.02v.02c-.02.05-.06.09-.1.11-.03.02-.07.03-.1.03h-.04s-.02,0-.02,0c-.02,0-.03-.02-.05-.03,0,0-.02,0-.03-.02l-.02-.03s0-.02-.02-.02t0-.02s0,0,0-.02c0,0,0-.02,0-.03v-2.31c0-.7-.57-1.29-1.28-1.29s-1.28.59-1.28,1.29v2.27c0,.07-.03.13-.09.16,0,0-.03.03-.05.03,0,0-.02,0-.03,0h-.05c-.08,0-.14-.08-.17-.15v-3.81c0-.11.09-.2.2-.2.12,0,.2.08.2.2v.4c.31-.37.76-.59,1.28-.59.65,0,1.2.36,1.49.88.3-.53.86-.88,1.5-.88.93,0,1.69.76,1.69,1.69v2.27c0,.1-.08.2-.2.2-.11,0-.19-.09-.19-.2v-2.27Z"/>
                <path class="cls-7" d="M318.34,182.92v3.75c0,.11-.09.2-.2.2s-.2-.09-.2-.2v-.62c-.36.49-.93.82-1.56.82-1.1,0-1.97-.94-1.97-2.08s.87-2.08,1.97-2.08c.64,0,1.21.32,1.56.82v-.61c0-.12.09-.2.2-.2s.2.09.2.2ZM317.93,184.8c0-.93-.71-1.68-1.56-1.68s-1.56.75-1.56,1.68.71,1.67,1.56,1.67,1.56-.74,1.56-1.67Z"/>
                <path class="cls-7" d="M320.12,181.56c0-.11.09-.2.2-.2.12,0,.21.09.21.2v.2c0,.12-.09.22-.21.22-.11,0-.2-.1-.2-.22v-.2ZM320.12,182.92c0-.12.09-.2.2-.2.12,0,.21.09.21.2v3.75c0,.11-.09.2-.21.2-.11,0-.2-.09-.2-.2v-3.75Z"/>
                <path class="cls-7" d="M322.38,181.14c0-.11.09-.2.2-.2.12,0,.21.09.21.2v5.54c0,.11-.09.2-.21.2-.11,0-.2-.09-.2-.2v-5.54Z"/>
                <path class="cls-7" d="M324.77,186.03c.24,0,.42.19.42.42s-.19.42-.42.42-.43-.19-.43-.42.19-.42.43-.42Z"/>
                <path class="cls-7" d="M325.92,184.79c0-1.16.95-2.07,2.14-2.07.49,0,.96.17,1.32.46.09.06.1.19.03.28-.07.08-.19.1-.28.03-.3-.24-.67-.37-1.07-.37-.97,0-1.73.76-1.73,1.67s.76,1.68,1.73,1.68c.4,0,.77-.14,1.07-.37.09-.07.21-.04.28.03.08.09.06.22-.04.3-.35.27-.82.44-1.31.44-1.19,0-2.14-.92-2.14-2.09Z"/>
                <path class="cls-7" d="M332.72,182.72c1.1,0,1.97.95,1.97,2.08s-.87,2.08-1.97,2.08-1.97-.95-1.97-2.08.88-2.08,1.97-2.08ZM332.72,186.47c.85,0,1.56-.75,1.56-1.67s-.71-1.68-1.56-1.68-1.56.76-1.56,1.68.71,1.67,1.56,1.67Z"/>
                <path class="cls-7" d="M342.21,184.41c-.02-.7-.58-1.29-1.29-1.29s-1.28.59-1.28,1.29v2.29s0,.02,0,.02v.02c-.02.05-.06.09-.1.11-.03.02-.07.03-.1.03h-.04s-.02,0-.02,0c-.02,0-.03-.02-.05-.03,0,0-.02,0-.03-.02l-.02-.03s0-.02-.02-.02t0-.02s0,0,0-.02c0,0,0-.02,0-.03v-2.31c0-.7-.57-1.29-1.28-1.29s-1.28.59-1.28,1.29v2.27c0,.07-.03.13-.09.16,0,0-.03.03-.05.03,0,0-.02,0-.03,0h-.05c-.08,0-.14-.08-.17-.15v-3.81c0-.11.09-.2.2-.2.12,0,.2.08.2.2v.4c.31-.37.76-.59,1.28-.59.65,0,1.2.36,1.49.88.3-.53.86-.88,1.5-.88.93,0,1.69.76,1.69,1.69v2.27c0,.1-.08.2-.2.2-.11,0-.2-.09-.2-.2v-2.27Z"/>
              </g>
            </g>
            <g>
              <rect class="cls-9" x="251.43" y="206.39" width="132.69" height="11.75"/>
              <g>
                <path class="cls-7" d="M257.52,212.44l-.77.53c-.05.03-.09.05-.14.05-.09,0-.17-.09-.17-.18,0-.08.06-.14.12-.16l.87-.42-.87-.42c-.07-.03-.12-.08-.12-.16,0-.09.08-.17.17-.18.06,0,.08.02.14.05l.77.53-.07-.93c0-.1.07-.19.17-.19s.18.09.17.19l-.07.93.77-.53c.05-.03.09-.05.14-.05.09,0,.17.09.17.18s-.06.14-.12.16l-.88.42.88.42c.06.03.12.07.12.16s-.08.18-.17.18c-.05,0-.09-.02-.14-.05l-.77-.53.07.93c0,.1-.07.19-.17.19s-.18-.09-.17-.19l.07-.93Z"/>
                <path class="cls-7" d="M261.17,212.44l-.77.53c-.05.03-.08.05-.14.05-.09,0-.17-.09-.17-.18,0-.08.06-.14.12-.16l.87-.42-.87-.42c-.07-.03-.12-.08-.12-.16,0-.09.08-.17.17-.18.06,0,.09.02.14.05l.77.53-.07-.93c0-.1.07-.19.17-.19s.18.09.17.19l-.07.93.77-.53c.05-.03.09-.05.14-.05.09,0,.17.09.17.18s-.06.14-.12.16l-.88.42.88.42c.06.03.12.07.12.16s-.08.18-.17.18c-.05,0-.08-.02-.14-.05l-.77-.53.07.93c0,.1-.07.19-.17.19s-.18-.09-.17-.19l.07-.93Z"/>
                <path class="cls-7" d="M264.83,212.44l-.77.53c-.05.03-.09.05-.14.05-.09,0-.17-.09-.17-.18,0-.08.06-.14.12-.16l.87-.42-.87-.42c-.07-.03-.12-.08-.12-.16,0-.09.08-.17.17-.18.06,0,.09.02.14.05l.77.53-.07-.93c0-.1.07-.19.17-.19s.18.09.17.19l-.07.93.77-.53c.05-.03.08-.05.14-.05.09,0,.17.09.17.18s-.06.14-.12.16l-.88.42.88.42c.06.03.12.07.12.16s-.08.18-.17.18c-.05,0-.08-.02-.14-.05l-.77-.53.07.93c0,.1-.07.19-.17.19s-.18-.09-.17-.19l.07-.93Z"/>
                <path class="cls-7" d="M268.48,212.44l-.77.53c-.05.03-.09.05-.14.05-.09,0-.17-.09-.17-.18,0-.08.06-.14.12-.16l.87-.42-.87-.42c-.07-.03-.12-.08-.12-.16,0-.09.08-.17.17-.18.06,0,.09.02.14.05l.77.53-.07-.93c0-.1.07-.19.17-.19s.18.09.17.19l-.07.93.77-.53c.05-.03.09-.05.14-.05.09,0,.17.09.17.18s-.06.14-.12.16l-.88.42.88.42c.06.03.12.07.12.16s-.08.18-.17.18c-.05,0-.08-.02-.14-.05l-.77-.53.07.93c0,.1-.07.19-.17.19s-.18-.09-.17-.19l.07-.93Z"/>
                <path class="cls-7" d="M272.14,212.44l-.77.53c-.05.03-.09.05-.14.05-.09,0-.17-.09-.17-.18,0-.08.06-.14.12-.16l.87-.42-.87-.42c-.07-.03-.12-.08-.12-.16,0-.09.08-.17.17-.18.06,0,.08.02.14.05l.77.53-.07-.93c0-.1.07-.19.17-.19s.18.09.17.19l-.07.93.77-.53c.05-.03.08-.05.14-.05.09,0,.17.09.17.18s-.06.14-.12.16l-.88.42.88.42c.06.03.12.07.12.16s-.08.18-.17.18c-.05,0-.09-.02-.14-.05l-.77-.53.07.93c0,.1-.07.19-.17.19s-.18-.09-.17-.19l.07-.93Z"/>
                <path class="cls-7" d="M275.79,212.44l-.77.53c-.05.03-.09.05-.14.05-.09,0-.17-.09-.17-.18,0-.08.06-.14.12-.16l.87-.42-.87-.42c-.07-.03-.12-.08-.12-.16,0-.09.08-.17.17-.18.06,0,.09.02.14.05l.77.53-.07-.93c0-.1.07-.19.17-.19s.18.09.17.19l-.07.93.77-.53c.05-.03.09-.05.14-.05.09,0,.17.09.17.18s-.06.14-.12.16l-.88.42.88.42c.06.03.12.07.12.16s-.08.18-.17.18c-.05,0-.08-.02-.14-.05l-.77-.53.07.93c0,.1-.07.19-.17.19s-.18-.09-.17-.19l.07-.93Z"/>
                <path class="cls-7" d="M279.45,212.44l-.77.53c-.05.03-.09.05-.14.05-.09,0-.17-.09-.17-.18,0-.08.06-.14.12-.16l.87-.42-.87-.42c-.07-.03-.12-.08-.12-.16,0-.09.08-.17.17-.18.06,0,.09.02.14.05l.77.53-.07-.93c0-.1.07-.19.17-.19s.18.09.17.19l-.07.93.77-.53c.05-.03.08-.05.14-.05.09,0,.17.09.17.18s-.06.14-.12.16l-.88.42.88.42c.06.03.12.07.12.16s-.08.18-.17.18c-.05,0-.08-.02-.14-.05l-.77-.53.07.93c0,.1-.07.19-.17.19s-.18-.09-.17-.19l.07-.93Z"/>
                <path class="cls-7" d="M283.1,212.44l-.77.53c-.05.03-.09.05-.14.05-.09,0-.17-.09-.17-.18,0-.08.06-.14.12-.16l.87-.42-.87-.42c-.07-.03-.12-.08-.12-.16,0-.09.08-.17.17-.18.06,0,.09.02.14.05l.77.53-.07-.93c0-.1.07-.19.17-.19s.18.09.17.19l-.07.93.77-.53c.05-.03.09-.05.14-.05.09,0,.17.09.17.18s-.06.14-.12.16l-.88.42.88.42c.06.03.12.07.12.16s-.08.18-.17.18c-.05,0-.09-.02-.14-.05l-.77-.53.07.93c0,.1-.07.19-.17.19s-.18-.09-.17-.19l.07-.93Z"/>
              </g>
            </g>
          </g>
        </g>
      </g>
    </g>
  </g>
  <g id="Table">
    <polygon class="cls-6" points=".5 362.69 53.82 362.45 107.15 362.36 213.79 362.19 320.44 362.36 373.76 362.45 427.08 362.69 373.76 362.94 320.44 363.03 213.79 363.19 107.15 363.03 53.82 362.94 .5 362.69"/>
  </g>
  <g id="Plant">
    <g>
      <g>
        <path class="cls-6" d="M378.48,304.44c14.34,14.04,16.74,35.75,13.72,54.77-.08.43-.75.31-.75-.09,0-4.33.13-8.62.12-12.9-.08-.2-.14-.38-.22-.58-3.74-2.72-7.18-5.79-9.31-10.01-2.39-4.71-3.34-10.02-5.17-14.94-.17-.47.33-.33.66-.09,8.72,6.43,11.5,13.35,14,22.6-.12-4.8-.48-9.6-1.52-14.4-1.88-8.78-5.61-17.48-11.92-23.99-.24-.25.13-.63.38-.38Z"/>
        <g>
          <path class="cls-11" d="M375.79,306.08c-2.47.08-4.01,4.03-5.93,5.18-1.02.61-2.01.57-2.72-.43-1.9-2.66.71-5.94,3.17-7.77-1.76.72-3.21,1.99-5.11,2.35-1.15.21-2.04-.21-2.31-1.38-.83-3.62,3.71-5.24,6.83-5.31-1.51-1.05-5.85-3.91-3.54-5.31,2.33-1.41,7.42,2.68,9.08,4.02,2.44,1.98,5.35,4.93,5.46,8.03.14,3.61-3.01,1.39-4.91.63Z"/>
          <path class="cls-12" d="M375.79,306.08c-2.47.08-4.01,4.03-5.93,5.18-1.02.61-2.01.57-2.72-.43-1.9-2.66.71-5.94,3.17-7.77-1.76.72-3.21,1.99-5.11,2.35-1.15.21-2.04-.21-2.31-1.38-.83-3.62,3.71-5.24,6.83-5.31-1.51-1.05-5.85-3.91-3.54-5.31,2.33-1.41,7.42,2.68,9.08,4.02,2.44,1.98,5.35,4.93,5.46,8.03.14,3.61-3.01,1.39-4.91.63Z"/>
          <path class="cls-11" d="M376.5,306.69c-3.15-1.43-9.21.63-9.73-.56-1.04-2.43,3.8-4.1,6.41-4.42-2.41-.65-7.02-1.69-6.88-4.01.17-2.83,7.07-.4,10.56,2.28,4.4,3.37,4.37,6.63,3.64,7.28-1,.89-3.49-.33-4.02-.57Z"/>
        </g>
      </g>
      <g>
        <path class="cls-6" d="M411.13,303.05c-14.86,13.48-18.09,35.09-15.79,54.21.06.43.73.34.75-.06.16-4.33.2-8.62.37-12.89.09-.19.16-.37.24-.57,3.84-2.58,7.4-5.52,9.69-9.65,2.57-4.61,3.71-9.89,5.73-14.73.19-.46-.32-.35-.66-.11-8.96,6.09-12,12.91-14.85,22.05.3-4.79.85-9.58,2.06-14.33,2.22-8.7,6.27-17.25,12.82-23.52.24-.24-.11-.63-.36-.39Z"/>
        <g>
          <path class="cls-11" d="M413.76,304.79c2.46.18,3.86,4.17,5.73,5.4.99.65,1.98.65,2.74-.32,2-2.58-.48-5.96-2.87-7.89,1.73.79,3.14,2.11,5.02,2.54,1.14.25,2.05-.14,2.36-1.29.97-3.59-3.51-5.37-6.62-5.57,1.55-.99,5.99-3.68,3.74-5.18-2.28-1.5-7.52,2.39-9.22,3.67-2.51,1.88-5.53,4.73-5.76,7.81-.28,3.6,2.96,1.5,4.88.82Z"/>
          <path class="cls-12" d="M413.76,304.79c2.46.18,3.86,4.17,5.73,5.4.99.65,1.98.65,2.74-.32,2-2.58-.48-5.96-2.87-7.89,1.73.79,3.14,2.11,5.02,2.54,1.14.25,2.05-.14,2.36-1.29.97-3.59-3.51-5.37-6.62-5.57,1.55-.99,5.99-3.68,3.74-5.18-2.28-1.5-7.52,2.39-9.22,3.67-2.51,1.88-5.53,4.73-5.76,7.81-.28,3.6,2.96,1.5,4.88.82Z"/>
          <path class="cls-11" d="M413.03,305.37c3.21-1.31,9.18.98,9.74-.19,1.14-2.39-3.64-4.24-6.24-4.66,2.43-.56,7.08-1.42,7.02-3.75-.07-2.84-7.05-.67-10.64,1.88-4.52,3.2-4.62,6.46-3.92,7.14.96.93,3.5-.2,4.03-.41Z"/>
        </g>
      </g>
      <g>
        <path class="cls-6" d="M395.94,338.66c-1.1,7.1-2.46,14.45-4.61,21.31-.21.63-1.13.47-1.04-.21.98-6.57,2.76-13.02,3.73-19.58.99-6.65,1.52-13.38,1.14-20.11-.63-11.07-3.63-22.84-10.85-31.5-.16-.21.18-.5.34-.3,14.46,16.86,12.16,37.53,12.15,39.38,2.05-6.98,4.16-14.98,11.9-22.09.33-.31.59-.16.54.36-1.38,12.95-4.98,19.71-12.49,26.63-.21,2.05-.48,4.09-.8,6.11Z"/>
        <g>
          <path class="cls-11" d="M384.17,290.51c-2.6-1.16-6.19,2.16-8.76,2.38-1.36.12-2.37-.41-2.61-1.81-.64-3.72,3.72-5.8,7.2-6.47-2.19-.14-4.34.45-6.49-.13-1.3-.36-2.01-1.25-1.7-2.59.96-4.18,6.49-3.57,9.76-2.07-1.04-1.85-4.1-7-1-7.3,3.13-.29,6.35,6.51,7.39,8.74,1.53,3.28,3.06,7.81,1.62,11.08-1.67,3.82-3.83-.08-5.41-1.82Z"/>
          <path class="cls-12" d="M384.17,290.51c-2.6-1.16-6.19,2.16-8.76,2.38-1.36.12-2.37-.41-2.61-1.81-.64-3.72,3.72-5.8,7.2-6.47-2.19-.14-4.34.45-6.49-.13-1.3-.36-2.01-1.25-1.7-2.59.96-4.18,6.49-3.57,9.76-2.07-1.04-1.85-4.1-7-1-7.3,3.13-.29,6.35,6.51,7.39,8.74,1.53,3.28,3.06,7.81,1.62,11.08-1.67,3.82-3.83-.08-5.41-1.82Z"/>
          <path class="cls-11" d="M384.61,291.5c-2.55-3.07-9.87-3.98-9.81-5.48.14-3.05,6-2.34,8.87-1.36-2.17-1.89-6.43-5.29-5.11-7.62,1.61-2.85,7.54,3.15,9.81,7.68,2.87,5.71,1.2,9.08.12,9.39-1.49.43-3.46-2.1-3.88-2.61Z"/>
        </g>
      </g>
      <path class="cls-11" d="M405.45,342.55l6.38,48.72h-38.81c.8-4.32,8.02-48.78,8.02-48.78l24.41.06Z"/>
    </g>
  </g>
  <g id="Character">
    <g>
      <g>
        <path class="cls-6" d="M174.11,251.27c-.03.51-.43,1-.96,1.02-1.22-.04-2.69-.11-4.33-.17-2.79-10.45-6.1-18.86-5.34-15.63,1.1,4.67,1.57,11.28,1.09,15.44-1.91-.09-6.33-.35-8.54-.48-1.47-18.03-4.37-31.59-4.54-27.52-.65,16.43-2.17,21.57-3.9,27.05-20.61-1.22-47.61-3.1-67.1-4.89-1.21-10.01-2.06-20.79-2.48-20.09-3.24,5.24-4.81,13.18-5.52,19.34-6.2-.61-11.14-1.22-14.14-1.73,0,0-.58-8.37-.5-11.09.16-6.94,1.67-13.92,4.35-20.35,2.79-6.63,6.99-12.3,11.02-18.15.03-.05.06-.1.1-.13,0-.02.02-.02.03-.05,2.76-4.05,4.91-7.97,6.53-12.2.02-.02.03-.05.04-.09,1.13-3,1.99-6.14,2.64-9.62,2.18-11.97,10.08-21.69,21.76-23.68,21.26-13.89,44.12-7.17,48.96,8.99.46,1.57.89,3.37,1.28,5.31v.06c1.47,7.2,2.47,16.46,3.55,23.65-.02.02,0,.04,0,.04-.02.02-.01.04.01.08v.02c.54,3.43,1.08,6.35,1.69,8.35,4.08,13.16,15.69,21.62,14.29,56.54Z"/>
        <path class="cls-6" d="M99.03,151.03c-7.85,3.1-13.02,8.28-15.11,16.97-1.22,5.06-2.09,10.04-4.57,14.68-2.56,4.79-6.22,8.55-9.97,12.3-5.95,5.96-10.31,12.05-12.04,20.61-1.76,8.69-2.44,19.1-.34,27.6.01.05.08.03.07-.02-1.52-8.56-.37-20.06,2.03-28.61,2.64-9.39,8.69-14.83,14.99-21.51,5.01-5.31,8.49-11.39,10.2-18.65,1.02-4.3,1.43-8.83,3.62-12.75,2.61-4.68,7.11-7.35,11.54-9.68.6-.32.16-1.18-.43-.95Z"/>
        <path class="cls-6" d="M170.86,209.54c-4.53-7.39-9.38-13.8-11.56-22.61-1.98-8.03-2.72-16.37-4.76-24.4-.03-.13-.22-.1-.2.04,2.94,14.18,2.33,28.11,9.97,40.58,4.15,6.77,8.35,13.09,10.73,20.94,2.5,8.25,3.06,16.63,2.36,25.34-.02.3.37.33.42.04,2.81-13.92.14-28.32-6.97-39.93Z"/>
      </g>
      <g>
        <g>
          <g>
            <path class="cls-2" d="M225.99,189.13l-27.79,52.33c-1,1.49-.5,3.02,1.1,3.42l28.79,7.09c1.61.4,3.73-.49,4.72-1.98l27.79-52.33c1-1.49.5-3.02-1.1-3.42l-28.79-7.09c-1.61-.4-3.73.49-4.73,1.98Z"/>
            <path class="cls-10" d="M229.41,189.94l-27.79,52.33c-1,1.49-.5,3.02,1.1,3.42l28.79,7.09c1.61.4,3.73-.49,4.72-1.98l27.79-52.33c1-1.49.5-3.02-1.1-3.42l-28.79-7.09c-1.61-.4-3.72.49-4.73,1.98Z"/>
            <path class="cls-6" d="M236.68,194.43c-.36,1.34-1.75,2.14-3.09,1.78-1.34-.36-2.14-1.74-1.78-3.09.36-1.34,1.74-2.14,3.09-1.78,1.34.36,2.14,1.75,1.78,3.09Z"/>
          </g>
          <path class="cls-1" d="M108.37,261.38c11.99,37.61,43.32,88.52,58.74,90.74,7.34,1.06,20.24,4.54,31-2.65,23.47-15.68,46.87-47.02,54.13-65.25,2.72-6.83-32.88-30.25-38.8-25.07-13.87,12.11-31.43,37.13-33.55,36.69-7.83-1.64-35.39-31.45-54.6-52.42-23.32-25.46-21.7,2.96-16.92,17.95Z"/>
          <g>
            <path class="cls-1" d="M260.79,251.28c.03-15.17-2.29-19.06,4.53-31.85,4.48-8.39,1.04-14.85-7.14-9.29-13.38,9.09-17.52,28.65-17.01,35.85l19.62,5.29Z"/>
            <path class="cls-1" d="M247.45,293.01s11.43-18.22,13.06-34.38c1.13-11.17.87-35.76-26.15-55.6-6.41-4.71-18.88-6.87-11.2,4.62,5.45,8.16,11.37,11.69,13.68,17.01,0,0-16.19-.87-20.65,5.74-2,2.95-7.25,11.13-10.44,18.09,0,0,1.33,1.1,3.21,2.26,0,0-3.99,6.31-1.38,17.38l39.87,24.89Z"/>
            <path class="cls-1" d="M259.88,247.79c-3.41-4.8-10.8-14.85-19.7-20.97-9.89-6.8-30.78-17.23-35.73-9.88-3.62,5.39,4,10.08,4,10.08,0,0-9.54-2.49-11.75,3.1-2.01,5.09,4.1,8.36,4.1,8.36,0,0-6.05-.52-7.04,4.76-1.2,6.35,11.68,6.39,16.02,13.86.98,1.68,50.1-9.31,50.1-9.31Z"/>
            <path class="cls-6" d="M234.74,238.46c-3.94-3.99-15.23-10.75-26.06-11.56-.25-.02-.39.16-.17.22,11.74,3.43,21.97,8.87,26.17,11.43.06.03.11-.05.06-.09Z"/>
            <path class="cls-6" d="M227.58,248.25c-3.76-3.09-15.7-9.54-26.7-9.99-.25,0-.38.18-.16.23,12.41,3.07,22.46,7.54,26.8,9.85.06.03.11-.06.06-.1Z"/>
          </g>
        </g>
        <g>
          <path class="cls-11" d="M125.22,309.44l30.57-38.28s-24.33-26.83-39.88-37.95c-8.71-6.23-13.67.45-12.44,10.05,4.31,33.6,21.75,66.19,21.75,66.19Z"/>
          <path class="cls-11" d="M125.22,309.44l30.57-38.28s-24.33-26.83-39.88-37.95c-8.71-6.23-13.67.45-12.44,10.05,4.31,33.6,21.75,66.19,21.75,66.19Z"/>
          <path class="cls-4" d="M146.06,262.56c-1.48,0-2.7,1.22-2.7,2.7s1.22,2.67,2.7,2.67,2.67-1.2,2.67-2.67-1.2-2.7-2.67-2.7ZM146.06,267.47c-1.24,0-2.23-.99-2.23-2.21s.99-2.23,2.23-2.23,2.21.99,2.21,2.23-.99,2.21-2.21,2.21ZM121.35,270.81c-1.47,0-2.67,1.2-2.67,2.68s1.2,2.67,2.67,2.67,2.68-1.2,2.68-2.67-1.2-2.68-2.68-2.68ZM121.35,275.7c-1.21,0-2.21-.98-2.21-2.21s1-2.22,2.21-2.22,2.22,1,2.22,2.22-1,2.21-2.22,2.21ZM123.3,249.38c-1.48,0-2.69,1.2-2.69,2.67s1.21,2.7,2.69,2.7,2.68-1.2,2.68-2.7-1.2-2.67-2.68-2.67ZM123.3,254.29c-1.24,0-2.23-1-2.23-2.24s.99-2.21,2.23-2.21,2.21,1,2.21,2.21-.99,2.24-2.21,2.24ZM103.41,238.23c-.02.15-.03.3-.05.46.9.27,1.56,1.12,1.56,2.13s-.62,1.79-1.49,2.09c0,.11.03.23.04.34,0,.04,0,.08.02.12,1.09-.33,1.89-1.34,1.89-2.55s-.84-2.28-1.97-2.59ZM140.16,290.73c-.09-1.4-1.26-2.5-2.68-2.5s-2.68,1.2-2.68,2.68,1.2,2.69,2.68,2.69c.14,0,.28-.01.41-.03l.51-.63c-.28.13-.59.2-.92.2-1.22,0-2.21-1-2.21-2.23s.99-2.22,2.21-2.22,2.23,1,2.23,2.22c0,.15-.02.3-.05.45l.5-.63Z"/>
          <path class="cls-12" d="M152.29,275.52l-27.06,33.93s-17.44-32.59-21.76-66.19c-.85-6.6,1.24-11.81,5.44-12.4l43.37,44.66Z"/>
          <path class="cls-6" d="M148.69,267.68c-5.19,5.5-18.84,20.83-26.4,31.95-.05.07.19.27.24.21,7.69-8.3,21.81-25.93,26.51-31.86.09-.11-.25-.4-.35-.3Z"/>
        </g>
      </g>
      <g>
        <path class="cls-11" d="M14.02,363.29l131.83-.31-7.29-45.33s10.42-12.65,8.45-26.38c-2.16-15.04-29.28-53.15-31.56-55.3-9.17-8.61-18.89-10.16-28.23-7.05h-.02c-43.1,27.1-73.19,134.37-73.19,134.37Z"/>
        <path class="cls-4" d="M143.07,345.7c-.41.49-1.02.8-1.7.8-1.23,0-2.23-1-2.23-2.21s1-2.24,2.23-2.24c.43,0,.83.12,1.17.34l-.09-.57c-.33-.15-.69-.23-1.08-.23-1.47,0-2.69,1.22-2.69,2.7s1.22,2.67,2.69,2.67c.69,0,1.31-.26,1.79-.68l-.09-.58ZM116.46,331.85c-1.47,0-2.67,1.22-2.67,2.69s1.2,2.68,2.67,2.68,2.68-1.2,2.68-2.68-1.2-2.69-2.68-2.69ZM116.46,336.76c-1.21,0-2.21-1-2.21-2.22s1-2.23,2.21-2.23,2.22,1,2.22,2.23-1,2.22-2.22,2.22ZM137.48,288.23c-1.48,0-2.68,1.2-2.68,2.68s1.2,2.69,2.68,2.69,2.69-1.2,2.69-2.69-1.21-2.68-2.69-2.68ZM137.48,293.14c-1.22,0-2.21-1-2.21-2.23s.99-2.22,2.21-2.22,2.23,1,2.23,2.22-.99,2.23-2.23,2.23ZM40.84,356.1c-1.5,0-2.7,1.22-2.7,2.7s1.2,2.67,2.7,2.67,2.67-1.2,2.67-2.67-1.19-2.7-2.67-2.7ZM40.84,361.01c-1.24,0-2.23-.99-2.23-2.21s.99-2.23,2.23-2.23,2.21.99,2.21,2.23-.99,2.21-2.21,2.21ZM68.16,347.28c-1.5,0-2.7,1.21-2.7,2.69s1.2,2.68,2.7,2.68,2.67-1.2,2.67-2.68-1.2-2.69-2.67-2.69ZM68.16,352.18c-1.24,0-2.24-.99-2.24-2.21s1-2.23,2.24-2.23,2.21.99,2.21,2.23-.99,2.21-2.21,2.21ZM47.51,279.41c-.13,0-.26.01-.38.03-.1.18-.19.35-.28.53.21-.06.43-.1.66-.1,1.22,0,2.21,1,2.21,2.21s-.99,2.22-2.21,2.22c-.98,0-1.82-.65-2.1-1.54-.1.19-.19.37-.28.55.44.86,1.34,1.45,2.38,1.45,1.48,0,2.68-1.2,2.68-2.68s-1.2-2.67-2.68-2.67ZM55.06,299.95c-1.48,0-2.68,1.2-2.68,2.67s1.2,2.68,2.68,2.68,2.67-1.2,2.67-2.68-1.2-2.67-2.67-2.67ZM55.06,304.84c-1.22,0-2.22-1-2.22-2.22s1-2.21,2.22-2.21,2.21,1,2.21,2.21-1,2.22-2.21,2.22ZM77.13,244.14c-1.47,0-2.67,1.2-2.67,2.68s1.2,2.69,2.67,2.69,2.7-1.22,2.7-2.69-1.22-2.68-2.7-2.68ZM77.13,249.05c-1.21,0-2.21-1-2.21-2.23s1-2.22,2.21-2.22,2.24,1,2.24,2.22-1,2.23-2.24,2.23ZM79.82,290.68c-1.48,0-2.68,1.2-2.68,2.68s1.2,2.69,2.68,2.69,2.69-1.21,2.69-2.69-1.2-2.68-2.69-2.68ZM79.82,295.59c-1.22,0-2.22-.99-2.22-2.23s1-2.21,2.22-2.21,2.23.99,2.23,2.21-.99,2.23-2.23,2.23ZM102.71,238.13c-1.48,0-2.68,1.21-2.68,2.69s1.2,2.67,2.68,2.67,2.67-1.19,2.67-2.67-1.2-2.69-2.67-2.69ZM102.71,243.03c-1.22,0-2.22-.99-2.22-2.21s1-2.23,2.22-2.23,2.21.99,2.21,2.23-.99,2.21-2.21,2.21ZM123.3,249.38c-1.48,0-2.69,1.2-2.69,2.67s1.21,2.7,2.69,2.7,2.68-1.2,2.68-2.7-1.2-2.67-2.68-2.67ZM123.3,254.29c-1.24,0-2.23-1-2.23-2.24s.99-2.21,2.23-2.21,2.21,1,2.21,2.21-.99,2.24-2.21,2.24ZM114.25,353.42c-1.48,0-2.68,1.2-2.68,2.68s1.2,2.69,2.68,2.69,2.68-1.22,2.68-2.69-1.2-2.68-2.68-2.68ZM114.25,358.33c-1.22,0-2.21-1-2.21-2.23s.99-2.22,2.21-2.22,2.21,1,2.21,2.22-.99,2.23-2.21,2.23ZM89.73,335.93c-1.48,0-2.68,1.2-2.68,2.67s1.2,2.68,2.68,2.68,2.67-1.2,2.67-2.68-1.2-2.67-2.67-2.67ZM89.73,340.82c-1.22,0-2.22-1-2.22-2.22s1-2.21,2.22-2.21,2.21,1,2.21,2.21-.98,2.22-2.21,2.22ZM118.68,303.66c-1.48,0-2.68,1.2-2.68,2.67s1.2,2.7,2.68,2.7,2.67-1.2,2.67-2.7-1.2-2.67-2.67-2.67ZM118.68,308.56c-1.22,0-2.22-.99-2.22-2.23s1-2.21,2.22-2.21,2.21.99,2.21,2.21-.99,2.23-2.21,2.23ZM121.35,270.81c-1.47,0-2.67,1.2-2.67,2.68s1.2,2.67,2.67,2.67,2.68-1.2,2.68-2.67-1.2-2.68-2.68-2.68ZM121.35,275.7c-1.21,0-2.21-.98-2.21-2.21s1-2.22,2.21-2.22,2.22,1,2.22,2.22-1,2.21-2.22,2.21ZM139.93,314.47c-1.47,0-2.67,1.2-2.67,2.67,0,1.1.67,2.05,1.61,2.46l-.09-.57c-.63-.39-1.06-1.09-1.06-1.89,0-1.21,1-2.21,2.21-2.21.19,0,.37.02.54.07.08-.13.17-.26.26-.41-.25-.08-.52-.12-.8-.12ZM104.94,285.78c-1.48,0-2.69,1.21-2.69,2.69s1.21,2.68,2.69,2.68,2.68-1.2,2.68-2.68-1.2-2.69-2.68-2.69ZM104.94,290.68c-1.24,0-2.23-.99-2.23-2.21s.99-2.23,2.23-2.23,2.21.99,2.21,2.23-.99,2.21-2.21,2.21ZM36.07,314.47c-1.48,0-2.68,1.2-2.68,2.67s1.2,2.68,2.68,2.68,2.68-1.2,2.68-2.68-1.2-2.67-2.68-2.67ZM36.07,319.36c-1.22,0-2.21-1-2.21-2.22s.99-2.21,2.21-2.21,2.21,1,2.21,2.21-.99,2.22-2.21,2.22ZM89.73,360.56c-1.44,0-2.61,1.13-2.68,2.56h.47c.06-1.16,1.03-2.1,2.21-2.1s2.14.93,2.2,2.09h.47c-.07-1.42-1.24-2.55-2.67-2.55ZM69.02,318.64c-1.47,0-2.67,1.2-2.67,2.67s1.2,2.68,2.67,2.68,2.68-1.2,2.68-2.68-1.2-2.67-2.68-2.67ZM69.02,323.53c-1.21,0-2.21-.98-2.21-2.22s1-2.21,2.21-2.21,2.22,1,2.22,2.21-1,2.22-2.22,2.22ZM70.35,269.45c-1.47,0-2.67,1.2-2.67,2.68s1.2,2.67,2.67,2.67,2.7-1.19,2.7-2.67-1.22-2.68-2.7-2.68ZM70.35,274.34c-1.21,0-2.21-.97-2.21-2.21s1-2.22,2.21-2.22,2.24,1,2.24,2.22-1,2.21-2.24,2.21ZM22.78,337.66c-.18,0-.35.02-.51.05-.06.18-.12.35-.18.52.22-.07.45-.11.69-.11,1.24,0,2.23,1,2.23,2.22s-.99,2.23-2.23,2.23c-.78,0-1.46-.4-1.85-1.01-.06.18-.12.35-.18.52.49.58,1.22.95,2.03.95,1.48,0,2.7-1.2,2.7-2.69s-1.22-2.68-2.7-2.68ZM51.95,333.22c-1.48,0-2.68,1.2-2.68,2.67s1.2,2.7,2.68,2.7,2.69-1.2,2.69-2.7-1.22-2.67-2.69-2.67ZM51.95,338.12c-1.22,0-2.22-.99-2.22-2.23s1-2.21,2.22-2.21,2.23.99,2.23,2.21-1,2.23-2.23,2.23ZM94.63,312.25c-1.48,0-2.7,1.2-2.7,2.68s1.22,2.68,2.7,2.68,2.67-1.2,2.67-2.68-1.2-2.68-2.67-2.68ZM94.63,317.14c-1.24,0-2.24-.99-2.24-2.21s1-2.21,2.24-2.21,2.21.99,2.21,2.21-1,2.21-2.21,2.21ZM87.68,228.78c-.37.5-.94.84-1.61.88h0c-.21.14-.41.28-.62.43.15.03.3.04.46.04,1.08,0,2.01-.64,2.44-1.56-.22.07-.44.13-.66.21ZM95.96,258.58c-1.47,0-2.67,1.2-2.67,2.67s1.2,2.7,2.67,2.7,2.7-1.22,2.7-2.7-1.2-2.67-2.7-2.67ZM95.96,263.49c-1.21,0-2.21-1-2.21-2.24s1-2.21,2.21-2.21,2.24,1,2.24,2.21-1,2.24-2.24,2.24Z"/>
        <path class="cls-6" d="M129.76,254.28c2.55,4.24,5.36,8.34,8.03,12.52-1.07-2.96-2.13-5.93-3.31-8.85-.02-.06.06-.11.09-.05,1.84,3.56,3.46,7.19,4.56,11.03,1.96,3.18,3.8,6.42,5.33,9.84,1.83,4.1,3.22,8.4,3.57,12.9.35,4.49-.42,9.03-1.87,13.28-1.68,4.93-4.14,9.53-6.68,14.06-.34.6-1.17.05-.89-.55,3.74-7.97,7.87-16.36,7.5-25.4-.37-8.93-4.53-17.18-8.61-24.93-2.46-4.67-4.96-9.36-8-13.69-.12-.17.18-.35.3-.16Z"/>
        <g>
          <path class="cls-6" d="M117.7,314.19c-5.37.55-10.77,1.29-16.01,2.63-2.61.67-5.17,1.45-7.72,2.29-1.27.42-2.55.8-3.84,1.17-1.32.38-2.74.73-4.12.78-.12,0-.12.19,0,.19,1.34.04,2.63.07,3.97-.07,1.27-.14,2.54-.41,3.79-.71,2.65-.65,5.27-1.43,7.91-2.11,5.33-1.37,10.67-2.74,16.09-3.72.25-.05.19-.47-.07-.44Z"/>
          <path class="cls-6" d="M131.02,318.97c-4.42-.45-8.93-.7-13.37-.64-2.24.03-4.45.18-6.68.4-1.06.1-2.12.23-3.18.36-1.16.15-2.31.45-3.48.58-.12.01-.12.2,0,.19,1.1-.09,2.23,0,3.33-.03,1.11-.03,2.22-.06,3.34-.09,2.23-.05,4.45-.08,6.68-.16,4.46-.15,8.9-.26,13.36-.25.24,0,.22-.34,0-.37Z"/>
        </g>
      </g>
      <g>
        <g>
          <path class="cls-1" d="M71.4,240.8C37.83,276-3.93,349.55,4.33,364.18c9.2,16.3,57.24-33.51,55.72-35.91-1.29-2.04,15.82-46.62,27.97-79,12.14-32.36-8.32-17.16-16.62-8.46Z"/>
          <g>
            <path class="cls-11" d="M30.26,283l48.21,8.68s12.04-34.16,14.42-53.13c1.34-10.63-4.91-11.07-12.77-5.42-27.51,19.77-49.87,49.87-49.87,49.87Z"/>
            <path class="cls-4" d="M47.51,279.41c-1.48,0-2.68,1.2-2.68,2.67s1.2,2.68,2.68,2.68,2.68-1.2,2.68-2.68-1.2-2.67-2.68-2.67ZM47.51,284.3c-1.22,0-2.21-1-2.21-2.22s.99-2.21,2.21-2.21,2.21,1,2.21,2.21-.99,2.22-2.21,2.22ZM77.13,244.14c-1.47,0-2.67,1.2-2.67,2.68s1.2,2.69,2.67,2.69,2.7-1.22,2.7-2.69-1.22-2.68-2.7-2.68ZM77.13,249.05c-1.21,0-2.21-1-2.21-2.23s1-2.22,2.21-2.22,2.24,1,2.24,2.22-1,2.23-2.24,2.23ZM56.06,254.67c-.42,0-.81.1-1.17.27h-.01c-.42.42-.83.83-1.24,1.25h0c-.17.36-.26.74-.26,1.16,0,1.47,1.2,2.69,2.68,2.69s2.69-1.22,2.69-2.69-1.2-2.68-2.69-2.68ZM56.06,259.58c-1.22,0-2.22-.99-2.22-2.23s1-2.22,2.22-2.22,2.23,1,2.23,2.22-1,2.23-2.23,2.23ZM77.84,291.57l.56.1s.06-.06.1-.08c.04-.11.12-.34.24-.68-.35.15-.66.38-.9.66ZM70.35,269.45c-1.47,0-2.67,1.2-2.67,2.68s1.2,2.67,2.67,2.67,2.7-1.19,2.7-2.67-1.22-2.68-2.7-2.68ZM70.35,274.34c-1.21,0-2.21-.97-2.21-2.21s1-2.22,2.21-2.22,2.24,1,2.24,2.22-1,2.21-2.24,2.21ZM85.59,230.11c.1.01.2.02.31.02.59,0,1.11-.19,1.55-.5-.59.08-1.21.25-1.86.48Z"/>
            <path class="cls-6" d="M78.16,283.78c-7.31-1.95-27.28-6.66-40.66-8.03-.08,0-.15.29-.07.31,10.96,2.82,33.18,6.86,40.63,8.17.14.02.24-.41.1-.45Z"/>
            <g>
              <path class="cls-6" d="M72.6,290.62c1.99.19,3.97.43,5.94.7l-.41.25c1.43-5.25,3.03-10.45,4.74-15.62,1.72-5.16,3.54-10.29,5.61-15.34-1.26,5.3-2.78,10.53-4.39,15.73-1.62,5.2-3.36,10.35-5.26,15.46l-.12.31-.3-.07c-1.94-.44-3.88-.91-5.81-1.42Z"/>
              <path class="cls-6" d="M85.29,271c.41-1.11,1.01-2.09,1.64-3.04.66-.94,1.35-1.84,2.18-2.71-.09.59-.33,1.13-.57,1.66-.24.53-.55,1.02-.87,1.51-.67.95-1.41,1.85-2.38,2.59Z"/>
            </g>
          </g>
        </g>
        <g>
          <g>
            <path class="cls-1" d="M5.42,365.68c9.11,9.85,30.13,9.1,83.24,12.16,7.35.42,24.29-50.64,16.47-51.49-9.86-1.08-48.34-3.12-51.17-2.92-23.9,1.73-54.71,35.57-48.54,42.26Z"/>
            <g>
              <path class="cls-1" d="M94.45,325.39s22.37.32,34.07,4.12c15.67,5.09,27.1,15.94,31.61,20.77,9.43,10.09,25.24,41.01,17.13,47.12-7.34,5.53-21.91-26.89-21.91-26.89,0,0,20.3,30.6,10.24,35.64-10.06,5.03-24.83-33.56-24.83-33.56,0,0,20.16,31.91,8.96,35.46-8.46,2.68-23.81-31.52-23.81-31.52,0,0,17.14,27.55,8.55,30.68-9.49,3.46-25.63-27.22-25.63-27.22-23.16,4.29-35.94-3.15-44.4-9.52-2.05-1.54,30.03-45.07,30.03-45.07Z"/>
              <g>
                <path class="cls-6" d="M149.01,359.48c2.52,3.51,5.08,7.04,7.28,10.76,2.19,3.72,4.26,7.52,6.1,11.43,4.51,9.58,5.83,16.29,5.71,15.89-3-9.59-10.65-23.03-12.85-26.75-2.19-3.71-4.19-7.54-6.38-11.25-.06-.09.08-.16.14-.08Z"/>
                <path class="cls-6" d="M135.43,367.16c3.02,4.62,6.18,9.09,9,13.85,2.8,4.73,5.04,9.46,7.51,14.37.19.38-.08.36-.28-.02-2.66-4.81-5.49-9.05-8.21-13.83-2.71-4.76-5.25-9.66-8.13-14.32-.05-.07.07-.13.12-.06Z"/>
                <path class="cls-6" d="M122.59,371.66c4.97,6.82,8.68,14.56,12.14,22.23.17.38-.17.32-.37-.06-3.9-7.47-6.9-13.35-12.01-21.99-.08-.13.13-.32.24-.17Z"/>
              </g>
            </g>
          </g>
          <path class="cls-6" d="M34.29,331.87c3.2-2.6,12.37-8.92,22.17-8.65.11,0,.13.16.02.17-7.94.91-18.78,6.34-22.09,8.61-.09.06-.17-.07-.09-.13Z"/>
        </g>
      </g>
      <g>
        <g>
          <path class="cls-1" d="M93.84,228.25c.18,2.32,8.62,18.48,18.92,19.58,3.35.35,6.09-17.87,6.09-17.87l.51-1.3,7.12-18.19-19.94-17.61-2.91-2.37s-1.62,5.11-3.57,11.48c-.09.3-.18.59-.28.91-.12.36-.24.69-.33,1.03-.3.95-.61,1.92-.89,2.89-.22.74-.44,1.46-.64,2.24-.22.78-.42,1.55-.65,2.33-2.04,7.76-3.48,15.9-3.41,16.88Z"/>
          <path class="cls-6" d="M100.05,201.97c3.09,15.83,14.12,23.78,19.31,26.69l7.12-18.19-19.94-17.61-2.91-2.37s-1.62,5.11-3.57,11.48Z"/>
        </g>
        <g>
          <path class="cls-1" d="M158.23,188.8c-4.52,33.98-25.38,35.12-32.71,34.13-6.65-.89-29.19-4.77-28.21-39.04.98-34.27,18.21-42.91,33.53-41.68,15.32,1.23,31.9,12.6,27.38,46.58Z"/>
          <g>
            <path class="cls-6" d="M153.35,185.15c-.77-.25-1.44-.61-2.17-.94-.83-.37-1.53-.58-2.03-1.39-.27-.43-.09-1.16.3-1.46.92-.7,2.05-.5,3.06-.09,1.1.44,1.84,1.06,2.42,2.1.56,1-.56,2.12-1.58,1.78Z"/>
            <path class="cls-6" d="M130.37,179.32c.81.07,1.56,0,2.37-.01.91-.02,1.63.07,2.41-.47.42-.29.54-1.03.3-1.46-.57-1.01-1.68-1.26-2.78-1.29-1.19-.03-2.11.25-3.05.98-.91.7-.31,2.17.75,2.26Z"/>
            <g>
              <g>
                <path class="cls-6" d="M134,186.79c0-.09-.2.08-.21.17-.34,2.31-1.12,4.9-3.34,5.29-.07.01-.08.13,0,.13,2.6.1,3.6-3.35,3.56-5.59Z"/>
                <path class="cls-6" d="M132.38,184.02c-3.64-.95-5.27,6.41-1.9,7.29,3.32.86,4.95-6.49,1.9-7.29Z"/>
              </g>
              <path class="cls-6" d="M130.85,184.09c-.73.27-1.53.87-2.32.77-.92-.11-1.42-1.03-1.84-1.9-.04-.09-.12-.04-.14.06-.33,1.41-.11,2.97,1.35,3.52,1.34.5,2.6-.53,3.27-1.87.12-.25-.02-.69-.31-.58Z"/>
            </g>
            <g>
              <g>
                <path class="cls-6" d="M147.6,188.92c.04-.08.15.15.13.24-.59,2.26-.89,4.95.99,6.17.06.04.03.15-.05.12-2.43-.93-2-4.49-1.07-6.54Z"/>
                <path class="cls-6" d="M150.17,187.01c3.72.56,2.33,7.97-1.12,7.45-3.39-.51-2-7.92,1.12-7.45Z"/>
              </g>
              <path class="cls-6" d="M151.63,187.79c.51.5.96,1.33,1.65,1.5.8.21,1.55-.48,2.21-1.15.07-.07.12,0,.1.1-.23,1.42-.97,2.81-2.39,2.82-1.29.01-1.97-1.37-2.04-2.85-.01-.27.26-.63.47-.43Z"/>
            </g>
            <path class="cls-6" d="M130.36,206.44c.4.67.74,1.54,1.54,1.83.77.28,1.78.17,2.58.09.08,0,.13.09.07.14-.82.71-2.2.92-3.19.45-.97-.45-1.24-1.47-1.24-2.47,0-.14.19-.14.24-.04Z"/>
            <path class="cls-6" d="M141.64,200.18s-.24,3.51-.58,5.12c-.03.15-.44.14-.99.06-.03,0-.04.01-.06-.01-2.93-.15-5.59-1.73-6.83-4.41-.08-.18.16-.3.29-.17,1.8,2,4.06,2.89,6.57,3.46.21-.42.21-6.03.47-5.99.9.11,2.5,1.07,3.48,1.59.72-7.3.25-14.65,1.08-21.91.03-.26.41-.26.44-.02,1.03,7.67.39,16.09-.15,23.65-.06.94-3.12-.96-3.71-1.37Z"/>
          </g>
          <g>
            <path class="cls-6" d="M106.59,147.65c-1.16,2.69-16.61,4.54-23.41-5.89-6.7-10.28,2.17-22.93,14.46-16.89,7.77,3.81,11.4,17.09,8.95,22.79Z"/>
            <path class="cls-6" d="M82.97,127.63c2.67-2.95,6.33-4.75,10-5.33,3.71-.58,7.4.7,9.72,3.54,2.45,2.77,3.72,6.49,4.4,10.25.31,1.9.46,3.84.42,5.78,0,1.95-.2,3.91-.93,5.77,1.18-1.65,1.63-3.7,1.99-5.68.3-2.01.39-4.05.2-6.09-.37-4.04-1.63-8.22-4.44-11.47-1.41-1.6-3.24-2.94-5.33-3.59-2.08-.64-4.31-.68-6.35-.2-4.08.94-7.7,3.53-9.69,7Z"/>
          </g>
          <g>
            <path class="cls-6" d="M99.01,185.4c6,2.46,11.44-11.35,11.44-11.35,0,0,27.7,2.66,35.77-18.31,0,0,.83,14.97,13.03,24.94,0,0,5.45-23.9-12.05-33.55,0,0-20.98-14.74-39.04.19-18.06,14.93-13.17,36.42-9.14,38.08Z"/>
            <path class="cls-6" d="M146.74,154.17c-.53,3.39-1.93,6.63-3.84,9.53-1.91,2.89-4.4,5.47-7.35,7.36-.7.53-1.52.87-2.27,1.31l-1.15.62c-.4.17-.81.33-1.22.48-.82.3-1.62.64-2.45.9-.84.22-1.69.41-2.54.6-.42.09-.84.2-1.27.27l-1.29.14-2.57.27c-1.72.01-3.44-.06-5.14-.16,1.7-.25,3.39-.33,5.06-.6l2.48-.48,1.24-.23c.41-.11.8-.25,1.2-.37.8-.26,1.59-.5,2.39-.73.78-.29,1.53-.65,2.3-.96l1.15-.48,1.08-.61c.71-.43,1.48-.75,2.13-1.26,2.81-1.76,5.17-4.15,7.24-6.75,1.03-1.32,1.93-2.73,2.73-4.21.83-1.47,1.51-3.02,2.08-4.63Z"/>
          </g>
          <g>
            <path class="cls-11" d="M97.25,162.75l-2.77,2.38,6.83,11.53,6.11-5.43-10.16-8.49ZM101.94,173.26l-4.98-7.4.63-.57,6.53,6.09-2.19,1.88Z"/>
            <path class="cls-11" d="M99.95,157.6l-1.67,3.25,10.67,8.11,3.61-7.33-12.61-4.04ZM108.26,165.56l-7.4-4.98.37-.77,8.35,3.18-1.32,2.56Z"/>
          </g>
          <g>
            <path class="cls-1" d="M102.37,187.22s-4.98-12.07-10.3-10.52c-5.32,1.55-3.19,17.91,1.91,21.22,5.1,3.31,8.26-1.36,8.26-1.36l.13-9.35Z"/>
            <path class="cls-6" d="M92.8,181.38c-.09-.03-.13.09-.06.14,3.55,2.45,4.8,6.52,5.41,10.59-.84-1.7-2.24-2.84-4.48-1.89-.12.05-.06.23.06.23,1.67.01,2.77.55,3.56,2.07.56,1.08.83,2.34,1.15,3.51.1.39.78.34.73-.09,0-.03,0-.07-.01-.1,1.2-4.95-1.12-12.77-6.35-14.46Z"/>
          </g>
        </g>
      </g>
    </g>
  </g>
  <g id="Padlock">
    <g>
      <g>
        <path class="cls-3" d="M253.53,48.54v27.98h-7.91v-27.98c0-10.64-8.08-19.29-18.02-19.29s-18.02,8.65-18.02,19.29v27.98h-7.91v-27.98c0-15.24,11.63-27.63,25.93-27.63s25.93,12.39,25.93,27.63Z"/>
        <polygon class="cls-7" points="201.67 55.81 209.58 56.13 209.58 76.52 201.67 76.52 201.67 55.81"/>
        <polygon class="cls-7" points="253.53 57.93 253.53 76.52 245.62 76.52 245.62 57.6 253.53 57.93"/>
      </g>
      <rect class="cls-11" x="191.54" y="60.59" width="72.12" height="65.43"/>
      <rect class="cls-12" x="227.6" y="60.59" width="36.06" height="65.43"/>
      <path class="cls-6" d="M230.65,95.7l3.02,14.32h-12.81l3.02-14.32c-1.8-1.14-3.02-3.13-3.02-5.41,0-3.57,2.87-6.41,6.41-6.41s6.41,2.84,6.41,6.41c0,2.28-1.22,4.27-3.02,5.41Z"/>
    </g>
  </g>
</svg>