<?xml version="1.0" encoding="UTF-8"?>
<svg xmlns="http://www.w3.org/2000/svg" viewBox="0 0 419.2 414.7">
  <defs>
    <style>
      .cls-1 {
        fill-rule: evenodd;
      }

      .cls-1, .cls-2, .cls-3, .cls-4, .cls-5, .cls-6, .cls-7, .cls-8, .cls-9, .cls-10, .cls-11, .cls-12, .cls-13 {
        stroke-width: 0px;
      }

      .cls-1, .cls-9 {
        fill: #ebebeb;
      }

      .cls-14 {
        stroke: #ebebeb;
        stroke-miterlimit: 10;
      }

      .cls-14, .cls-15 {
        fill: none;
      }

      .cls-15 {
        stroke: #ffc727;
        stroke-linecap: round;
        stroke-linejoin: round;
        stroke-width: 6px;
      }

      .cls-2 {
        fill: #37474f;
      }

      .cls-3 {
        fill: #ff9abb;
      }

      .cls-4 {
        opacity: .2;
      }

      .cls-5 {
        fill: #c7c7c7;
      }

      .cls-6 {
        fill: #fff;
      }

      .cls-7 {
        fill: #263238;
      }

      .cls-8 {
        fill: #a6a6a6;
      }

      .cls-10 {
        fill: #455a64;
      }

      .cls-11 {
        fill: #ffc727;
      }

      .cls-12 {
        fill: #d3766a;
      }

      .cls-13 {
        opacity: .1;
      }
    </style>
  </defs>
  <g id="Background_Complete" data-name="Background Complete">
    <g>
      <g>
        <g>
          <circle class="cls-9" cx="85.74" cy="85.98" r="47.35" transform="translate(-9.76 10.99) rotate(-6.94)"/>
          <circle class="cls-6" cx="85.74" cy="85.98" r="36.15" transform="translate(-35.68 85.81) rotate(-45)"/>
          <circle class="cls-9" cx="85.74" cy="85.98" r="25.83"/>
          <circle class="cls-6" cx="85.74" cy="85.98" r="14.28" transform="translate(-17.55 22.15) rotate(-13.37)"/>
          <path class="cls-9" d="M79.29,85.98c0,3.57,2.89,6.45,6.45,6.45s6.45-2.89,6.45-6.45-2.89-6.45-6.45-6.45-6.45,2.89-6.45,6.45Z"/>
        </g>
        <g>
          <g>
            <rect class="cls-8" x="49.89" y="7.9" width="2.08" height="86.54" transform="translate(-21.27 51) rotate(-45)"/>
            <polygon class="cls-8" points="77.74 83.84 85.74 85.98 83.6 77.98 77.74 83.84"/>
          </g>
          <polygon class="cls-8" points="10.1 16.59 21.57 28.06 30.57 30.81 27.82 21.81 16.35 10.34 19.1 19.34 10.1 16.59"/>
        </g>
      </g>
      <g>
        <polygon class="cls-9" points="297.67 8.08 300.99 13.03 306.72 14.66 303.05 19.34 303.27 25.3 297.67 23.25 292.08 25.3 292.3 19.34 288.62 14.66 294.35 13.03 297.67 8.08"/>
        <polygon class="cls-9" points="323.27 8.08 326.59 13.03 332.32 14.66 328.64 19.34 328.86 25.3 323.27 23.25 317.68 25.3 317.9 19.34 314.22 14.66 319.95 13.03 323.27 8.08"/>
        <polygon class="cls-9" points="348.86 8.08 352.18 13.03 357.91 14.66 354.24 19.34 354.46 25.3 348.86 23.25 343.27 25.3 343.49 19.34 339.81 14.66 345.54 13.03 348.86 8.08"/>
        <polygon class="cls-9" points="374.46 8.08 377.78 13.03 383.51 14.66 379.83 19.34 380.05 25.3 374.46 23.25 368.87 25.3 369.09 19.34 365.41 14.66 371.14 13.03 374.46 8.08"/>
        <polygon class="cls-14" points="400.05 8.08 403.37 13.03 409.1 14.66 405.43 19.34 405.65 25.3 400.05 23.25 394.46 25.3 394.68 19.34 391 14.66 396.73 13.03 400.05 8.08"/>
        <polygon class="cls-9" points="400.05 23.25 400.05 8.08 396.73 13.03 391 14.66 394.68 19.34 394.46 25.3 400.05 23.25"/>
      </g>
      <g id="xsrjP0">
        <g>
          <path class="cls-1" d="M368.09,217.08c-1.27-.79-2.37-1.94-4.07-1.77-.65.07-.51-.47-.51-.82-.03-6.37-.05-12.74-.08-19.11,0-.46.03-.84.53-1.1,4.86-2.47,6.95-7.3,9.91-11.44,3.17-4.41,4.25-9.19,3.48-14.46-.21-1.43.46-2.08,1.75-2.37,1.55-.36,3.1.07,3.64,1.13,1.32,2.64,2.45,5.39,2.81,8.34.29,2.41-.57,4.77-.86,7.16-.22,1.75-.62,3.48-.94,5.25.43.31.92.15,1.38.15,5.38,0,10.76-.03,16.14-.05,2.27,0,3.38.64,3.7,2.14.39,1.87-.59,3.78-2.33,4.67-.4.2-1.13.02-1.18.65-.04.64.7.57,1.08.83,1.95,1.33,1.6,4.09-.65,5.69-.54.38-1.59.21-1.62,1.01-.01.63.97.62,1.42,1.07,1.58,1.55.81,4.45-1.54,5.63-.3.15-.67.18-.94.37-.27.18-.53.38,0,.75,2.34,1.66,2.29,3.97-.05,5.67-.23.17-.46.34-.7.51-.85.63-1.86.62-2.83.63-8.44.05-16.87.07-25.31.09-.79,0-1.59-.02-2.22-.61Z"/>
          <path class="cls-1" d="M344.06,205.93c-.01-4.04,0-8.09-.05-12.14,0-.82.07-1.23,1.08-1.22,4.94.04,9.87.03,14.8-.05.97-.01,1.12.32,1.12,1.18,0,8.14.02,16.29.09,24.43,0,1.04-.27,1.33-1.31,1.32-4.79-.04-9.58-.03-14.36.06-1.19.02-1.36-.39-1.35-1.44.05-4.05,0-8.09-.02-12.14Z"/>
        </g>
      </g>
    </g>
  </g>
  <g id="Shopping_cart" data-name="Shopping cart">
    <g>
      <g>
        <path class="cls-5" d="M157.31,399.63H26.35c-1.44,0-2.62-1.17-2.62-2.62v-15.5s0-.07,0-.11h0c0-.06,0-.11.01-.16,0-.09.02-.19.04-.28l15.83-58.14-20.52-127.11-6.85-2.38c-1.39-.41-2.18-1.86-1.77-3.25.41-1.39,1.86-2.18,3.25-1.77l8.45,2.85c.98.29,1.7,1.11,1.85,2.12l20.84,129.2c.04.29.04.59-.02.88l-15.36,55.71,121.99,8.67c.68.05,1.31.35,1.77.85l6.02,6.65c.69.77.87,1.87.45,2.82-.42.95-1.36,1.55-2.39,1.55ZM28.96,394.4h122.45l-1.35-1.5-121.1-8.62v10.11Z"/>
        <path class="cls-5" d="M205.26,237H28.72c-1.44,0-2.62-1.17-2.62-2.62s1.17-2.62,2.62-2.62h176.55c1.44,0,2.62,1.17,2.62,2.62s-1.17,2.62-2.62,2.62Z"/>
        <path class="cls-5" d="M42.26,323.75c-.46,0-.85-.36-.87-.83-.03-.48.34-.89.82-.92l132.62-7.1,26.11-80.79c.15-.46.64-.71,1.1-.56.46.15.71.64.56,1.1l-26.29,81.36c-.11.34-.42.58-.78.6l-133.22,7.13s-.03,0-.05,0Z"/>
      </g>
      <g>
        <path class="cls-5" d="M177.76,309.33H39.84c-.48,0-.87-.39-.87-.87s.39-.87.87-.87h137.93c.48,0,.87.39.87.87s-.39.87-.87.87Z"/>
        <path class="cls-5" d="M181.27,298.73H38.21c-.48,0-.87-.39-.87-.87s.39-.87.87-.87h143.05c.48,0,.87.39.87.87s-.39.87-.87.87Z"/>
        <path class="cls-5" d="M184.51,288.12H36.59c-.48,0-.87-.39-.87-.87s.39-.87.87-.87h147.92c.48,0,.87.39.87.87s-.39.87-.87.87Z"/>
        <path class="cls-5" d="M188.03,277.51H34.97c-.48,0-.87-.39-.87-.87s.39-.87.87-.87h153.06c.48,0,.87.39.87.87s-.39.87-.87.87Z"/>
        <path class="cls-5" d="M191.38,266.9H33.34c-.48,0-.87-.39-.87-.87s.39-.87.87-.87h158.04c.48,0,.87.39.87.87s-.39.87-.87.87Z"/>
        <path class="cls-5" d="M194.98,256.29H31.72c-.48,0-.87-.39-.87-.87s.39-.87.87-.87h163.26c.48,0,.87.39.87.87s-.39.87-.87.87Z"/>
        <path class="cls-5" d="M198.41,245.69H30.1c-.48,0-.87-.39-.87-.87s.39-.87.87-.87h168.31c.48,0,.87.39.87.87s-.39.87-.87.87Z"/>
        <path class="cls-5" d="M54.17,322.64c-.45,0-.83-.35-.87-.81l-6.68-87.38c-.04-.48.32-.9.8-.94.43-.05.9.32.94.8l6.68,87.38c.04.48-.32.9-.8.94-.02,0-.04,0-.07,0Z"/>
        <path class="cls-5" d="M162.3,316.94c-.08,0-.15-.01-.23-.03-.46-.13-.74-.6-.61-1.07l22.21-81.68c.13-.46.6-.74,1.07-.61.46.13.74.6.61,1.07l-22.21,81.68c-.11.39-.46.64-.84.64Z"/>
        <path class="cls-5" d="M68.1,321.99c-.47,0-.86-.38-.87-.85l-2.16-86.73c-.01-.48.37-.88.85-.89h.02c.47,0,.86.38.87.85l2.16,86.73c.01.48-.37.88-.85.89h-.02Z"/>
        <path class="cls-5" d="M82.4,321.21h-.02c-.48,0-.86-.41-.85-.89l1.6-85.95c0-.47.4-.85.87-.85h.02c.48,0,.86.41.85.89l-1.6,85.95c0,.47-.4.85-.87.85Z"/>
        <path class="cls-5" d="M147.08,317.62c-.06,0-.12,0-.18-.02-.47-.1-.78-.56-.68-1.03l16.88-82.36c.1-.47.56-.77,1.03-.68.47.1.77.56.68,1.03l-16.88,82.36c-.08.41-.45.7-.85.7Z"/>
        <path class="cls-5" d="M129.74,318.66s-.1,0-.14-.01c-.48-.08-.8-.53-.72-1l13.66-83.4c.08-.48.53-.8,1-.72.48.08.8.53.72,1l-13.66,83.4c-.07.43-.44.73-.86.73Z"/>
        <path class="cls-5" d="M97.04,320.39s-.04,0-.07,0c-.48-.04-.84-.45-.81-.94l6.37-85.13c.04-.48.46-.84.93-.81.48.04.84.45.81.93l-6.37,85.13c-.04.46-.42.81-.87.81Z"/>
        <path class="cls-5" d="M114.19,319.27s-.06,0-.1,0c-.48-.05-.82-.49-.77-.96l9.34-84.01c.05-.48.47-.83.96-.77.48.05.82.49.77.96l-9.34,84.01c-.05.44-.43.77-.86.77Z"/>
      </g>
      <g>
        <circle class="cls-7" cx="43.31" cy="403.48" r="9.77"/>
        <path class="cls-9" d="M47.75,403.48c0,2.45-1.99,4.44-4.44,4.44s-4.44-1.99-4.44-4.44,1.99-4.44,4.44-4.44,4.44,1.99,4.44,4.44Z"/>
      </g>
      <g>
        <circle class="cls-7" cx="130.74" cy="403.48" r="9.77"/>
        <path class="cls-9" d="M135.18,403.48c0,2.45-1.99,4.44-4.44,4.44s-4.44-1.99-4.44-4.44,1.99-4.44,4.44-4.44,4.44,1.99,4.44,4.44Z"/>
      </g>
      <line class="cls-15" x1="19.49" y1="193.23" x2="5.74" y2="188.01"/>
    </g>
  </g>
  <g id="Floor">
    <path class="cls-7" d="M8.18,413.25c129.04-.61,273.79-.62,402.83,0-129.04.62-273.79.61-402.83,0h0Z"/>
  </g>
  <g id="Device">
    <g>
      <g>
        <path class="cls-7" d="M294.12,30.4H125.06c-9.44,0-17.1,7.79-17.1,17.42v348.01c0,9.61,7.66,17.42,17.1,17.42h169.06c9.44,0,17.12-7.81,17.12-17.42V47.82c0-9.63-7.68-17.42-17.12-17.42ZM300.54,385.07c0,9.16-6.86,16.57-15.32,16.57h-151.24c-8.48,0-15.34-7.41-15.34-16.57V61.01c0-18.66,6.86-19.57,15.34-19.57h30.3c1.76,0,3.2,2,3.2,4.48v1.07c0,5.81,3.18,5.83,7.08,5.83h70.06c3.94,0,7.1-.02,7.1-5.83v-1.07c0-2.48,1.42-4.48,3.21-4.48h30.29c8.46,0,15.32,2.48,15.32,19.57v324.06Z"/>
        <g>
          <path class="cls-6" d="M300.55,61.3v324.06c0,9.16-6.86,16.57-15.32,16.57h-151.24c-8.48,0-15.34-7.41-15.34-16.57V61.3c0-18.66,6.86-19.57,15.34-19.57h30.3c1.76,0,3.2,2,3.2,4.48v1.07c0,5.81,3.18,5.83,7.08,5.83h70.06c3.94,0,7.1-.02,7.1-5.83v-1.07c0-2.48,1.42-4.48,3.21-4.48h30.29c8.46,0,15.32,2.48,15.32,19.57Z"/>
          <path class="cls-6" d="M219.15,45.57h-19.11c-.65,0-1.18-.53-1.18-1.18h0c0-.65.53-1.18,1.18-1.18h19.11c.65,0,1.18.53,1.18,1.18h0c0,.65-.53,1.18-1.18,1.18Z"/>
          <g>
            <g id="u5Zjqx">
              <g>
                <path class="cls-8" d="M159.05,48.72c-.1.1-.2.19-.29.29-.06.06-.11.11-.17.17-.79-.76-1.72-1.17-2.82-1.17-1.1,0-2.03.41-2.82,1.17-.05-.05-.1-.11-.16-.16-.1-.1-.19-.19-.29-.29,0,0,0,0,0,0h0s.01-.02.02-.02c.12-.11.24-.22.37-.33.26-.22.55-.4.86-.55.36-.18.74-.31,1.13-.38.19-.03.38-.05.57-.08.06,0,.48,0,.5,0,.13,0,.26.02.39.03.36.04.7.13,1.04.25.24.09.48.2.7.33.24.14.46.29.67.47.11.09.21.19.31.28h0Z"/>
                <path class="cls-8" d="M153.87,50.1c-.15-.15-.31-.3-.46-.46.53-.52,1.15-.85,1.88-.94,1.09-.15,2.03.18,2.83.94-.16.16-.31.31-.46.46-.52-.51-1.15-.78-1.89-.78-.74,0-1.37.27-1.89.79Z"/>
                <path class="cls-8" d="M157.2,50.56c-.15.15-.31.3-.46.46-.27-.26-.59-.4-.97-.4-.38,0-.7.14-.97.4-.15-.15-.31-.31-.46-.46.73-.77,2.05-.83,2.86,0Z"/>
              </g>
              <path class="cls-8" d="M156.18,51.44c0,.23-.19.42-.42.42s-.42-.19-.42-.42.19-.42.42-.42.42.19.42.42Z"/>
            </g>
            <g>
              <path class="cls-8" d="M130.5,49.61c0-.67.54-1.21,1.21-1.21s1.21.54,1.21,1.21-.54,1.21-1.21,1.21-1.21-.54-1.21-1.21Z"/>
              <path class="cls-8" d="M134.3,49.61c0-.67.54-1.21,1.21-1.21s1.21.54,1.21,1.21-.54,1.21-1.21,1.21-1.21-.54-1.21-1.21Z"/>
              <path class="cls-8" d="M138.1,49.61c0-.67.54-1.21,1.21-1.21s1.21.54,1.21,1.21-.54,1.21-1.21,1.21-1.21-.54-1.21-1.21Z"/>
              <path class="cls-8" d="M141.9,49.61c0-.67.54-1.21,1.21-1.21s1.21.54,1.21,1.21-.54,1.21-1.21,1.21-1.21-.54-1.21-1.21Z"/>
              <path class="cls-8" d="M145.69,49.61c0-.67.54-1.21,1.21-1.21s1.21.54,1.21,1.21-.54,1.21-1.21,1.21-1.21-.54-1.21-1.21Z"/>
            </g>
            <g>
              <path class="cls-8" d="M286.9,52.24h-9.81v-4.55h9.81v4.55ZM277.58,51.74h8.81v-3.55h-8.81v3.55Z"/>
              <rect class="cls-8" x="277.9" y="48.46" width="6.33" height="3"/>
              <rect class="cls-8" x="286.9" y="48.75" width=".87" height="2.43"/>
            </g>
          </g>
        </g>
      </g>
      <g>
        <g>
          <rect class="cls-11" x="199.16" y="27.81" width="20.89" height="49.15"/>
          <path class="cls-11" d="M220.04,76.96s-1.99,10-10.44,10-10.44-10-10.44-10h20.89Z"/>
          <path class="cls-13" d="M220.04,76.96s-1.99,10-10.44,10-10.44-10-10.44-10h20.89Z"/>
        </g>
        <g>
          <g>
            <polygon class="cls-6" points="199.15 76.96 178.26 76.96 180.39 27.81 199.15 27.81 199.15 76.96"/>
            <path class="cls-7" d="M199.15,76.96l-20.89.13h-.14s2.04-49.22,2.02-49.29c0,0,0-.24,0-.24h.24s18.76.05,18.76.05h.2c.08.19-.13,24.63-.07,24.83,0,0-.13,24.52-.13,24.52h0ZM199.15,76.96l-.13-24.63-.07-24.52.2.2-18.76.05.25-.24c-.07-.02-2.06,49.72-2.38,49.01,0,0,20.89.13,20.89.13h0Z"/>
          </g>
          <path class="cls-9" d="M199.16,76.96s-2,10-10.46,10-10.44-10-10.44-10h20.9Z"/>
        </g>
        <g>
          <polygon class="cls-11" points="178.26 76.96 157.37 76.96 161.63 27.81 180.39 27.81 178.26 76.96"/>
          <path class="cls-11" d="M178.26,76.96s-1.99,10-10.44,10-10.44-10-10.44-10h20.89Z"/>
          <path class="cls-13" d="M178.26,76.96s-1.99,10-10.44,10-10.44-10-10.44-10h20.89Z"/>
        </g>
        <g>
          <g>
            <polygon class="cls-6" points="157.36 76.96 136.47 76.96 142.87 27.81 161.63 27.81 157.36 76.96"/>
            <path class="cls-7" d="M157.36,76.96l-20.89.13h-.15s6.32-49.24,6.3-49.31c0,0,.03-.22.03-.22h.22s18.76.05,18.76.05h.22s-.02.22-.02.22l-2.21,24.62-2.26,24.51h0ZM157.36,76.96l2.01-24.64,2.06-24.53.2.22-18.76.05.25-.22c-.08-.03-6.36,49.74-6.64,48.99,0,0,20.89.13,20.89.13h0Z"/>
          </g>
          <path class="cls-9" d="M157.36,76.96s-1.99,10-10.44,10-10.44-10-10.44-10h20.89Z"/>
        </g>
        <g>
          <polygon class="cls-11" points="136.47 76.96 115.58 76.96 124.11 27.81 142.87 27.81 136.47 76.96"/>
          <path class="cls-11" d="M136.47,76.96s-2,10-10.44,10-10.46-10-10.46-10h20.9Z"/>
          <path class="cls-13" d="M136.47,76.96s-2,10-10.44,10-10.46-10-10.46-10h20.9Z"/>
        </g>
        <g>
          <g>
            <path class="cls-6" d="M115.57,76.96h-20.89l9.33-43.01c.77-3.55,4.54-6.14,8.95-6.14h11.14l-8.53,49.15Z"/>
            <path class="cls-7" d="M115.57,76.96l-20.89.13h-.16s.03-.16.03-.16c1.31-6.11,7.6-35.42,8.76-40.85.29-1.21.52-2.99,1.19-4.06,2.21-4,7.12-4.71,11.25-4.43,0,0,8.36.02,8.36.02h.24s-.04.24-.04.24l-4.34,24.61-4.39,24.5h0ZM115.57,76.96l4.14-24.65,4.19-24.54.2.24-8.36.02c-4.01-.24-8.67.4-10.82,4.22-.68,1.16-.82,2.56-1.15,3.92l-1.79,8.16-7.17,32.65-.13-.16,20.89.13h0Z"/>
          </g>
          <path class="cls-9" d="M115.57,76.96s-1.99,10-10.44,10-10.44-10-10.44-10h20.89Z"/>
        </g>
        <g>
          <g>
            <polygon class="cls-6" points="220.05 76.96 240.94 76.96 238.81 27.81 220.05 27.81 220.05 76.96"/>
            <path class="cls-7" d="M220.05,76.96l20.89-.13-.13.14-2.25-49.14.25.24-18.76-.05.2-.2-.07,24.52-.13,24.63h0ZM220.05,76.96l-.13-24.52-.07-24.63v-.2s.2,0,.2,0l18.76-.05h.24s0,.24,0,.24c-.01.18,2.03,49.13,2.02,49.29,0,0-.14,0-.14,0l-20.89-.13h0Z"/>
          </g>
          <path class="cls-9" d="M240.94,76.96s-2,10-10.44,10-10.46-10-10.46-10h20.9Z"/>
        </g>
        <g>
          <polygon class="cls-11" points="240.94 76.96 261.83 76.96 257.57 27.81 238.81 27.81 240.94 76.96"/>
          <path class="cls-11" d="M261.83,76.96s-1.99,10-10.44,10-10.44-10-10.44-10h20.89Z"/>
          <path class="cls-13" d="M261.83,76.96s-1.99,10-10.44,10-10.44-10-10.44-10h20.89Z"/>
        </g>
        <g>
          <g>
            <polygon class="cls-6" points="261.84 76.96 282.73 76.96 276.33 27.81 257.57 27.81 261.84 76.96"/>
            <path class="cls-7" d="M261.84,76.96l20.89-.13c-.29.9-6.54-49.19-6.64-48.98,0,0,.25.22.25.22l-18.76-.05.2-.22c1.05,12.25,3.08,36.91,4.06,49.17h0ZM261.84,76.96l-2.26-24.51-2.21-24.62-.02-.22h.22s18.76-.05,18.76-.05h.22c.07.36,6.27,49.14,6.33,49.53,0,0-.15,0-.15,0l-20.89-.13h0Z"/>
          </g>
          <path class="cls-9" d="M282.73,76.96s-1.99,10-10.44,10-10.44-10-10.44-10h20.89Z"/>
        </g>
        <g>
          <polygon class="cls-11" points="282.73 76.96 303.62 76.96 295.09 27.81 276.34 27.81 282.73 76.96"/>
          <path class="cls-11" d="M303.63,76.96s-2,10-10.46,10-10.44-10-10.44-10h20.9Z"/>
          <path class="cls-13" d="M303.63,76.96s-2,10-10.46,10-10.44-10-10.44-10h20.9Z"/>
        </g>
        <g>
          <g>
            <path class="cls-6" d="M303.63,76.96h20.89l-9.33-43.01c-.77-3.55-4.54-6.14-8.95-6.14h-11.14l8.53,49.15Z"/>
            <path class="cls-7" d="M303.63,76.96l20.89-.13-.13.16-7.17-32.65-1.79-8.16c-.33-1.36-.47-2.77-1.15-3.92-2.16-3.82-6.81-4.46-10.82-4.22,0,0-8.36-.02-8.36-.02l.2-.24c2.11,12.25,6.28,36.92,8.33,49.18h0ZM303.63,76.96l-4.39-24.5-4.34-24.61-.04-.24h.24s8.36-.02,8.36-.02c4.87-.4,10.79.95,12,6.45,0,0,.44,2.04.44,2.04,1.13,5.28,7.49,34.93,8.76,40.85l.03.16h-.16s-20.89-.13-20.89-.13h0Z"/>
          </g>
          <path class="cls-9" d="M324.51,76.96s-1.99,10-10.44,10-10.44-10-10.44-10h20.89Z"/>
        </g>
      </g>
      <g>
        <rect class="cls-11" x="161" y="173.22" width="97.21" height="97.21"/>
        <g>
          <polygon class="cls-6" points="241.54 219.75 177.66 219.75 177.66 210.69 241.54 210.69 241.54 210.69 241.54 219.75"/>
          <polygon class="cls-6" points="237.98 217.83 235.87 251.44 183.34 251.44 181.22 217.83 237.98 217.83"/>
          <path class="cls-6" d="M216.39,214.2c0,3.75-3.04,6.79-6.79,6.79s-6.79-3.04-6.79-6.79,3.04-6.79,6.79-6.79,6.79,3.04,6.79,6.79Z"/>
          <path class="cls-11" d="M200.66,225.11v19.34c0,.96-.76,1.74-1.72,1.74h-.28c-.78,0-1.42-.64-1.42-1.44v-19.64c0-.78.64-1.42,1.42-1.42h.56c.82,0,1.44.64,1.44,1.42Z"/>
          <path class="cls-11" d="M211.3,225.11v19.34c0,.96-.76,1.74-1.72,1.74h-.28c-.78,0-1.42-.64-1.42-1.44v-19.64c0-.78.64-1.42,1.42-1.42h.56c.82,0,1.44.64,1.44,1.42Z"/>
          <path class="cls-11" d="M221.94,225.11v19.34c0,.96-.76,1.74-1.72,1.74h-.28c-.78,0-1.42-.64-1.42-1.44v-19.64c0-.78.64-1.42,1.42-1.42h.56c.82,0,1.44.64,1.44,1.42Z"/>
          <polygon class="cls-6" points="228.23 213.65 225.23 213.65 225.23 195.7 193.97 195.7 193.97 213.65 190.97 213.65 190.97 192.7 228.23 192.7 228.23 213.65"/>
        </g>
        <g>
          <circle class="cls-10" cx="258.2" cy="173.22" r="15.89" transform="translate(-43.68 247.68) rotate(-47.71)"/>
          <path class="cls-6" d="M261.5,171.57c1.1,1.07,1.63,2.51,1.63,3.92s-.54,2.84-1.63,3.94c-1.08,1.07-2.51,1.63-3.94,1.63s-2.84-.56-3.92-1.63c-.49-.49-.49-1.3,0-1.79.49-.49,1.3-.49,1.79,0,.58.58,1.34.87,2.13.87s1.55-.29,2.15-.87c.61-.6.9-1.37.9-2.15s-.29-1.54-.9-2.13c-.58-.6-1.34-.87-2.13-.9-.36.02-.69-.13-.92-.4t-.02-.02c-.52-.49-.52-1.28-.05-1.79l2.28-2.33h-3.63c-.69,0-1.25-.56-1.25-1.28s.56-1.25,1.25-1.25h6.61c.72,0,1.28.56,1.28,1.25,0,.22-.07.43-.16.6-.07.11-.13.22-.22.31l-2.82,2.91c.58.27,1.12.63,1.57,1.1Z"/>
        </g>
      </g>
    </g>
  </g>
  <g id="Character">
    <g>
      <path class="cls-12" d="M329.4,115.49c7.87,5.67,33.06,28.48,34.66,32.27,1.9,4.52-7.86,20.59-11.9,20.24-10.44-.91-28.73-33.79-34.59-48.84-2.86-7.36-1.36-13.16,11.83-3.67Z"/>
      <g>
        <g>
          <path class="cls-12" d="M350.75,113.45c2.26-2.48,20.15,10.84,19.8,15.76-1.31,18.1-6.86,33.47-10.16,36.66-3.81,3.67-11.36,3.36-14.36-2.9-3.96-8.27-4.04-39.93,4.72-49.52Z"/>
          <path class="cls-7" d="M344.09,152.75c-2.01-10.03.59-24.14.59-24.17,0-.19.26-.26.26-.15.07,2-1.29,16.81-.58,24.24,0,.07-.26.15-.27.08Z"/>
        </g>
        <g>
          <path class="cls-12" d="M374.35,115.96c-.3,5.25-5.12,15.73-7.25,17.82-2.13,2.08-20.24-5.51-21.03-8.46-.79-2.96,1.59-20.54,5.18-24.53,3.59-3.99,23.41,9.74,23.1,15.17Z"/>
          <path class="cls-12" d="M345.95,122.25s-2.09-6.51-5.74-11.3c-3.07-4.03-8.08-9.66-5.97-11.39,4.32-3.55,16.81,10.5,16.81,10.5,0,0,4.52,7.09.55,10.99-2.49,2.45-5.65,1.2-5.65,1.2Z"/>
          <g>
            <g>
              <g>
                <polygon class="cls-11" points="351.35 111.64 356.03 108.75 347.67 95.21 341.75 98.86 351.35 111.64"/>
                <polygon class="cls-11" points="341.76 98.86 345.42 103.74 351.36 111.64 356.03 108.76 347.68 95.21 341.76 98.86"/>
                <polygon class="cls-13" points="341.76 98.86 345.42 103.74 350.86 100.37 347.68 95.21 341.76 98.86"/>
              </g>
              <rect class="cls-11" x="340.07" y="92.84" width="8.65" height="6.57" transform="translate(687.98 -2.87) rotate(148.33)"/>
            </g>
            <g>
              <polygon class="cls-11" points="332.79 96.6 338.87 93.64 333.28 84.59 327.91 88.69 332.79 96.6"/>
              <polygon class="cls-11" points="335.12 80.98 343.36 94.34 353.67 89.57 381.06 84.01 361.26 51.93 344.01 73.91 335.12 80.98"/>
              <path class="cls-11" d="M366.5,70.85c5.49,8.9,12.27,14.69,15.13,12.93,2.86-1.77.73-10.42-4.76-19.32-5.49-8.9-12.27-14.69-15.13-12.93s-.73,10.42,4.76,19.32Z"/>
              <path class="cls-4" d="M367.54,69.82c4.88,7.91,10.73,13.14,13.07,11.7s.29-9.03-4.59-16.93c-4.88-7.91-10.73-13.14-13.07-11.7-2.34,1.45-.29,9.03,4.59,16.93Z"/>
              <path class="cls-11" d="M368.23,69.4c.65,1.05,1.32,2.06,1.99,3,.83.11,1.7-.06,2.46-.53,1.77-1.09,2.32-3.41,1.22-5.18l-.93-1.51c-1.09-1.77-3.41-2.32-5.18-1.23-.75.46-1.29,1.16-1.56,1.93.6,1.15,1.27,2.33,2,3.52Z"/>
              <g>
                <polygon class="cls-11" points="338.64 98.28 350.39 92.56 339.58 75.05 329.2 82.98 338.64 98.28"/>
                <polygon class="cls-4" points="338.64 98.28 350.39 92.56 339.58 75.05 329.2 82.98 338.64 98.28"/>
              </g>
              <path class="cls-4" d="M361.12,55.05c-.23,1.41-.01,2.84.27,4.23.31,1.39.73,2.75,1.26,4.07.24.67.55,1.31.83,1.97.32.64.61,1.28.94,1.91.34.62.66,1.26,1.02,1.87.36.61.71,1.23,1.09,1.83,1.51,2.4,3.16,4.73,5.09,6.83.97,1.04,2,2.03,3.14,2.89,1.15.83,2.39,1.6,3.79,1.89-1.37-.37-2.57-1.17-3.67-2.05-1.1-.88-2.09-1.89-3.03-2.94-1.86-2.12-3.5-4.42-4.98-6.83-1.49-2.39-2.86-4.87-3.94-7.48-.56-1.29-1.01-2.64-1.35-4-.34-1.36-.6-2.77-.46-4.19Z"/>
            </g>
            <g>
              <path class="cls-7" d="M372.51,47.05c-.49.85-.94,1.73-1.38,2.6-.45.87-.86,1.76-1.27,2.65-.4.89-.81,1.79-1.18,2.69l-.56,1.36c-.17.46-.36.92-.51,1.38.25-.42.47-.86.71-1.29l.67-1.31c.45-.87.86-1.76,1.27-2.65.4-.89.81-1.79,1.18-2.69.38-.91.75-1.81,1.07-2.74Z"/>
              <path class="cls-7" d="M378.03,75.74c1.1-.14,2.19-.32,3.28-.51,1.09-.19,2.17-.41,3.26-.63,1.08-.23,2.16-.46,3.24-.73l1.61-.4c.53-.15,1.07-.28,1.6-.45-.55.06-1.1.16-1.65.23l-1.64.28c-1.09.19-2.17.41-3.26.63-1.08.23-2.16.46-3.24.73-1.07.26-2.15.53-3.21.85Z"/>
              <path class="cls-7" d="M395.53,64.63c-1.56.48-3.09,1.01-4.63,1.54-1.54.53-3.06,1.09-4.59,1.65-1.52.57-3.04,1.14-4.55,1.75l-2.26.91c-.75.32-1.5.62-2.25.95.78-.24,1.55-.5,2.32-.75l2.31-.79c1.54-.53,3.06-1.09,4.59-1.65,1.52-.57,3.04-1.14,4.55-1.75,1.51-.6,3.02-1.21,4.51-1.86Z"/>
              <path class="cls-7" d="M381.07,44c-.96,1.34-1.88,2.71-2.8,4.08-.92,1.37-1.81,2.76-2.7,4.14-.88,1.39-1.76,2.79-2.61,4.2l-1.27,2.12c-.41.72-.83,1.42-1.23,2.14.48-.67.94-1.35,1.42-2.03l1.38-2.05c.92-1.37,1.81-2.76,2.7-4.15.88-1.39,1.76-2.79,2.61-4.2.85-1.41,1.7-2.82,2.51-4.26Z"/>
              <path class="cls-7" d="M374.33,65.85c1.66-.94,3.29-1.92,4.92-2.9,1.63-.98,3.24-2,4.86-3,1.6-1.03,3.21-2.05,4.8-3.09l2.38-1.58c.78-.54,1.58-1.07,2.36-1.62-.83.47-1.65.95-2.47,1.43l-2.45,1.47c-1.63.99-3.24,2-4.86,3-1.6,1.03-3.21,2.04-4.8,3.09-1.59,1.05-3.18,2.1-4.74,3.19Z"/>
            </g>
          </g>
          <g>
            <path class="cls-12" d="M346.97,108.03c1.3,2.46,3.46-.48,3.46-.48,0,0-2.08,4.98.24,7,2.24,1.94,4.72-1.71,4.9-1.97-.11.26-1.9,4.89.64,6.68,2.64,1.86,4.5-2.23,4.62-2.5-.02.28-.27,4.01,1.97,4.93,3.85,1.58,4.74-7.95,7.43-9.99,0,0,3.98,4.15,4.12,4.25,0,0,1.03-9.04-1.92-12.51-1.56-1.83-3.57-.74-3.57-.74,0,0,.66-2.88-1.3-4.35-1.01-.75-3.11.19-3.11.19,0,0,.43-2.33-1.39-3.53-1.45-.96-3.33.13-3.33.13,0,0-.62-2.43-2.43-2.93-3.63-1.02-13.12,10.52-10.33,15.79Z"/>
            <g>
              <path class="cls-7" d="M359.41,95.29s0-.09-.05-.06c-4.04,3.03-7.56,7.61-9.06,12.46-.05.16.19.31.28.14,2.51-4.71,5.11-8.69,8.84-12.55Z"/>
              <path class="cls-7" d="M364.48,98.48s-.03-.11-.08-.07c-4.15,3.15-7.97,8.41-9.04,14.21-.04.2.13.41.19.19,1.01-3.81,5.56-10.87,8.93-14.33Z"/>
              <path class="cls-7" d="M360.9,117.2c1.25-5.53,4.14-10.1,7.79-14.36.05-.06-.04-.12-.09-.08-2.35,1.6-4.39,4.56-5.79,7-1.33,2.34-2.07,4.71-2.1,7.4,0,.1.17.16.19.04Z"/>
            </g>
            <path class="cls-7" d="M350.34,107.58c-.06.19.29.07.23.26-.22.81-1.15,5.82.46,6.66,1.29.67,3.09-.59,3.59-1.35l1.26-1.9-.52,2.23c-.23.97-.33,2.03-.23,3.02.1.99.46,1.94,1.19,2.46.76.55,1.68.59,2.4.01.74-.54,1.31-1.46,1.69-2.35l1.06-2.49-.19,2.69c-.05.73-.01,1.51.13,2.24.14.72.41,1.43.88,1.89.46.45,1.18.66,1.76.43.61-.23,1.13-.83,1.56-1.44.87-1.27,1.48-2.73,2.16-4.16.33-.72.67-1.44,1.04-2.14.38-.69.77-1.42,1.41-1.91-.59.54-.89,1.29-1.22,2-.31.72-.59,1.46-.87,2.2-.56,1.48-1.14,2.97-1.99,4.37-.44.68-.95,1.39-1.82,1.79-.9.4-1.96.1-2.62-.54-.68-.65-.98-1.5-1.16-2.32-.17-.83-.22-1.64-.18-2.49l.87.2c-.44,1.06-1,2.04-1.97,2.8-.48.37-1.12.62-1.77.6-.66-.02-1.24-.28-1.74-.64-1.03-.76-1.42-2.01-1.51-3.11-.09-1.13.03-2.22.3-3.31l.74.32c-.67.94-2.53,2.58-4.66,1.78-2.62-1.45-.73-6.83-.32-7.79Z"/>
            <path class="cls-7" d="M350.43,107.55c-.46.4-.94.75-1.42.95-.48.21-.96.17-1.31-.09-.35-.25-.59-.76-.77-1.28-.17-.53-.32-1.11-.45-1.7-.17.59-.23,1.21-.14,1.84.09.61.3,1.3.91,1.77.32.21.68.33,1.06.33.37-.02.72-.15,1-.33.56-.37.92-.91,1.13-1.49Z"/>
          </g>
        </g>
      </g>
      <g>
        <g>
          <g>
            <path class="cls-12" d="M304.89,401.14c-1.98-1.23-42.26-50.04-42.61-52.87-.06-.39,6.08-5.91,13.86-12.84.4-.35,29.54-28.55,29.54-28.55l25.02,30.18-27.35,27.9s7.06,25.58,7.12,28.73c.05,3.14-3.61,8.69-5.58,7.45Z"/>
            <path class="cls-11" d="M306.25,375.06c-.07-.16-.09-.25-.06-.29,0,0,.03.11.06.29Z"/>
            <path class="cls-9" d="M310.47,393.68c.05,3.14-3.61,8.69-5.58,7.45-1.98-1.23-42.26-50.04-42.61-52.87-.06-.39,6.07-5.91,13.86-12.84.12-.11,2.68-2.58,6.26-6.04l25.77,30.65-4.82,4.92s7.06,25.57,7.12,28.73Z"/>
            <g>
              <path class="cls-11" d="M306.45,400.63c-2-1.25-42.59-50.68-42.93-53.54-.15-1.09,6.71-7.42,15.21-14.83.09-.08.18-.15.27-.23l26.54,31.6-.55.43s7.07,25.87,7.12,29.06c.04,3.17-3.67,8.77-5.66,7.52Z"/>
              <g>
                <path class="cls-6" d="M307.9,398.49c-6.64-8.5-34.21-42.16-41.41-50.06-.06-.06-.1-.03-.05.04,6.39,8.57,34.24,42,41.33,50.13.15.17.28.07.14-.11Z"/>
                <path class="cls-6" d="M307.09,366.81c-2.08-3.78-5.88-7.38-10.27-7.97-.17-.02-.2.22-.08.3,3.68,2.4,6.81,4.88,9.92,7.99.22.22.57-.06.42-.33Z"/>
                <path class="cls-6" d="M307.6,370.35c-2.08-3.78-5.88-7.38-10.27-7.97-.17-.02-.2.22-.08.3,3.68,2.4,6.81,4.88,9.92,7.99.22.22.57-.06.42-.33Z"/>
                <path class="cls-6" d="M308.12,373.88c-2.08-3.78-5.88-7.38-10.27-7.97-.17-.02-.2.22-.08.3,3.68,2.4,6.81,4.88,9.92,7.99.22.22.57-.06.42-.33Z"/>
              </g>
              <path class="cls-7" d="M308.84,399.93c.39,1.17-2.74,3.41-3.5,2.97-.76-.44-44.78-54.53-45.32-55.62-.55-1.09,3.02-3.45,4.06-2.52,1.04.93,44.77,55.17,44.77,55.17Z"/>
              <path class="cls-6" d="M280.16,344.73c-1.15-5.05-9.01-3.28-7.86,1.79,1.15,5.05,9.01,3.28,7.86-1.79Z"/>
            </g>
          </g>
          <g>
            <path class="cls-2" d="M325.71,276.4c-2.23,11.03-42.71,49.04-42.71,49.04l31.9,36.82s59.68-58.86,56.29-83.22c-2.95-21.19-34.68-106.42-34.68-106.42h-36.61s28,92.93,25.8,103.78Z"/>
            <path class="cls-2" d="M325.71,276.4c-2.23,11.03-42.71,49.04-42.71,49.04l31.9,36.82s59.68-58.86,56.29-83.22c-2.95-21.19-34.68-106.42-34.68-106.42h-36.61s28,92.93,25.8,103.78Z"/>
            <g>
              <path class="cls-7" d="M318.52,353.51c-4.24-5.28-2.95-3.82-7.24-9.05-2.1-2.56-15.94-19.36-18.32-21.4-.05-.05-.14.03-.11.09,1.6,2.7,15.72,19.26,17.87,21.77,4.4,5.14,3.19,3.62,7.64,8.71.08.1.23-.03.15-.13Z"/>
              <path class="cls-7" d="M330.25,271.02c-.52-2.75-1.12-5.49-1.7-8.24-1.19-5.6-2.45-11.18-3.78-16.75-2.64-11.04-5.49-22.02-8.6-32.94-3.12-10.96-6.42-21.89-10.22-32.63-.47-1.33-.95-2.65-1.44-3.97-.04-.1-.19-.06-.16.05,3.29,10.76,6.68,21.49,9.77,32.31,3.07,10.78,5.91,21.61,8.59,32.49,1.35,5.46,2.6,10.95,3.82,16.44.6,2.7,1.19,5.4,1.76,8.1.58,2.74,1.36,5.55,1.53,8.35.17,2.76-.73,5.2-2.15,7.52-1.37,2.25-2.99,4.36-4.55,6.47-3.13,4.24-27.65,31.46-28.61,32.36-.08.07.04.18.12.11,4-3.59,24-24.97,27.21-29.2,1.59-2.09,3.14-4.22,4.66-6.37,1.42-2.01,2.85-4.06,3.64-6.41.84-2.53.59-5.14.1-7.71Z"/>
            </g>
            <path class="cls-7" d="M330.18,172.62l-6.64,87.22c-6.34-29.85-23.62-87.22-23.62-87.22h30.27Z"/>
          </g>
        </g>
        <g>
          <g>
            <path class="cls-12" d="M391.57,412.59c-2.21.75-65.49.92-67.9-.6-.34-.2-.71-8.45-1.13-18.86-.02-.53-7.75-43.21-7.75-43.21l39.2-.19,8.64,41.1s24.25,10.77,26.73,12.73c2.46,1.95,4.43,8.3,2.22,9.04Z"/>
            <path class="cls-9" d="M391.57,412.59c-2.21.75-65.49.92-67.9-.61-.34-.2-.72-8.44-1.14-18.86,0-.15-.59-3.47-1.44-8.21h40.29l1.24,5.91s24.25,10.77,26.73,12.72c2.46,1.95,4.43,8.31,2.22,9.05Z"/>
            <path class="cls-11" d="M372.28,395c-.17-.05-.25-.09-.26-.14,0,0,.1.05.26.14Z"/>
            <g>
              <path class="cls-11" d="M391.89,412.31c-2.24.74-66.19.45-68.62-1.11-.93-.58-1.43-9.9-1.71-21.18,0-.12,0-.24,0-.35l41.26-.27-.02.7s24.43,11.06,26.92,13.06c2.47,1.99,4.41,8.42,2.18,9.16Z"/>
              <g>
                <path class="cls-6" d="M391.17,409.83c-10.78-.31-54.29-.56-64.97-.06-.09,0-.09.06,0,.07,10.68.54,54.19.44,64.97.16.23,0,.23-.17,0-.18Z"/>
                <path class="cls-6" d="M366.26,390.24c-4.24-.81-9.43-.18-12.69,2.82-.13.12.04.29.18.25,4.19-1.3,8.1-2.13,12.49-2.54.31-.03.32-.48.02-.54Z"/>
                <path class="cls-6" d="M369.31,392.1c-4.24-.81-9.43-.18-12.69,2.82-.13.12.04.29.18.25,4.19-1.3,8.1-2.13,12.49-2.54.31-.03.32-.48.02-.54Z"/>
                <path class="cls-6" d="M372.37,393.96c-4.24-.81-9.43-.18-12.69,2.82-.13.12.04.29.18.25,4.19-1.3,8.1-2.13,12.49-2.54.31-.03.32-.48.02-.54Z"/>
              </g>
              <path class="cls-7" d="M392.87,410.02c1.14.45.88,4.29.05,4.59-.83.3-70.56-.32-71.74-.59-1.18-.27-.73-4.52.65-4.73,1.38-.21,71.05.73,71.05.73Z"/>
              <path class="cls-6" d="M332.07,396.88c-4.63-2.34-8.27,4.85-3.64,7.19,4.63,2.34,8.27-4.85,3.64-7.19Z"/>
            </g>
          </g>
          <g>
            <path class="cls-2" d="M332.98,172.62c-.04.77-2.09,7.78-3.14,18.27-.76,7.66-1.72,14.44-2.74,15.28-1.16.95-6.94,4.67-8.89,5.86,0,0,18.04,54.68,22.69,72.9,6.75,26.42,22.88,96.51,22.88,96.51h-44.19s-11.93-66.29-17.66-91.44c-4.91-21.57-23.71-86.26-23.71-86.26-6.84-16.82,4.69-31.11,4.69-31.11,0,0,50.08-.03,50.07,0Z"/>
            <g>
              <path class="cls-7" d="M359.66,373.08c-6.52-.04-4.65-.12-11.18-.09-3.19.02-24.17.15-27.15.71-.07.01-.06.13,0,.14,2.99.47,23.96-.05,27.16-.13,6.52-.17,4.65-.19,11.17-.43.12,0,.12-.2,0-.2Z"/>
              <g>
                <path class="cls-7" d="M330.14,204.01c-4.2,2.21-8.14,5.05-11.88,7.95-.15.11,0,.35.16.25,4.03-2.52,8.15-4.98,12.03-7.72.31-.22,0-.65-.31-.48Z"/>
                <path class="cls-7" d="M326.85,174.26c-.03-.15-.3-.14-.28.02.83,5.12,1.2,9.67,1.51,14.52.14,2.25.26,14.81-3.73,14.51-.67-.05-1.1-.63-1.35-1.59-.3-1.15-.09-2.65-.07-3.85.03-2.64-.03-5.27-.21-7.9-.34-4.91-1.07-9.76-2.41-14.5-.04-.16-.27-.11-.25.05,1.05,6.71,1.91,13.43,1.94,20.23.01,3.27-.85,8.33,2.57,8.3,3.48-.03,4.43-8.42,4.5-10.69.2-6.33-.78-12.97-2.23-19.12Z"/>
                <path class="cls-7" d="M324.52,203.63c-.22.88-.37,1.78-.47,2.68-.08.7-.22,1.46-.04,2.15.04.13.22.12.28.02.36-.64.43-1.46.58-2.17.17-.83.36-1.66.51-2.5.1-.56-.72-.71-.85-.17Z"/>
              </g>
              <path class="cls-7" d="M315.74,358.51c-.11-1-.25-1.99-.39-2.99-.27-1.91-.59-3.81-.88-5.71-.59-3.83-1.25-7.64-1.92-11.46-1.35-7.6-2.91-15.18-4.56-22.73-.93-4.27-2.01-8.48-3.15-12.69-.08-.29-.49-.15-.44.13.69,3.86,1.36,7.72,2.15,11.55.79,3.83,1.57,7.65,2.33,11.49,1.5,7.58,2.91,15.17,4.4,22.75.42,2.14.81,4.28,1.22,6.42.21,1.07.42,2.13.65,3.2.23,1.06.56,2.1.73,3.17.02.1.17.05.15-.05-.17-1.02-.18-2.06-.3-3.09Z"/>
              <path class="cls-7" d="M345.43,301.3c-1.43-7.15-3.37-14.2-5.31-21.22-3.91-14.13-8.52-28.05-13.12-41.97-1.32-4.01-2.65-8.02-3.97-12.03-.66-2-3.91-12.82-4.31-13.84-.04-.1-.2-.06-.17.05.93,3.68,2.21,9.05,3.28,12.7,1.06,3.6,2.22,7.18,3.34,10.77,2.2,7.05,4.44,14.09,6.57,21.16,4.22,13.97,8.41,27.94,11.84,42.13.96,3.97,1.92,7.95,2.79,11.94.87,3.99,1.62,8,2.46,12,.02.11.21.08.19-.03-.72-7.28-2.16-14.48-3.6-21.65Z"/>
              <path class="cls-7" d="M318.66,338.68c-2.37-13.63-5.21-27.19-8.36-40.66-3.16-13.54-6.68-26.99-10.56-40.34-3.88-13.35-8.18-26.58-12.79-39.69-2.19-6.21-4.85-12.36-5.85-18.88-1.08-7.07-.73-15.44,3.98-24.46.05-.1-.09-.19-.16-.09-3.89,5.81-8.22,17.85-1.04,37.16,2.39,6.44,4.47,12.99,6.6,19.51,2.19,6.7,4.28,13.43,6.29,20.19,3.97,13.39,7.66,26.86,10.97,40.43,3.3,13.57,6.25,27.23,8.84,40.95,2.6,13.77,3.63,18.42,5.84,32.26.29,1.8.52,3.61.75,5.42.01.1.17.1.16,0-1.66-13.71-2.3-18.18-4.67-31.79Z"/>
            </g>
          </g>
        </g>
      </g>
      <g>
        <g>
          <path class="cls-11" d="M338.23,173.93l-2.85-18.9s5.61-6.57,2.05-14.36c-1.79-3.94-13.17-25.38-19.85-30.28-6.26-4.6-14.14-.26-17.09,3.7-8.49,11.37-14.66,22.28-19.57,59.53l57.3.31Z"/>
          <g>
            <path class="cls-7" d="M325.71,152.01c-2.87.3-5.75.71-8.55,1.43-1.39.36-2.76.79-4.12,1.24-.68.23-1.36.43-2.05.63-.71.2-1.46.4-2.2.42-.07,0-.06.1,0,.1.72.02,1.41.03,2.12-.05.68-.07,1.36-.22,2.02-.39,1.42-.35,2.81-.77,4.23-1.14,2.85-.74,5.69-1.48,8.59-2.02.13-.02.1-.25-.04-.24Z"/>
            <path class="cls-7" d="M332.84,154.54c-2.36-.23-4.77-.36-7.15-.32-1.19.02-2.38.11-3.57.22-.57.06-1.13.12-1.7.2-.62.08-1.23.25-1.86.32-.06,0-.06.11,0,.1.59-.05,1.19,0,1.78-.02.59-.02,1.19-.04,1.78-.05,1.19-.03,2.38-.05,3.57-.1,2.38-.09,4.75-.15,7.14-.16.13,0,.12-.18,0-.2Z"/>
          </g>
        </g>
        <path class="cls-12" d="M300.12,113.7c-17.89,16.87-34.46,44.72-33.28,59.36,1.17,14.45,6.07,12.59,7.49,12.37,8.67-1.36,25.58-43.39,30.35-60.33,4.74-16.82-.13-15.57-4.56-11.4Z"/>
        <g>
          <g>
            <g>
              <path class="cls-7" d="M305.25,97.31c-3.1-.09-10.36,3.48-12.17,7.94-1.81,4.46-.38,10.85,1.06,11.23,1.44.38,7.02-1.18,10.51-4.06,3.49-2.88,2.14-15.06.61-15.11Z"/>
              <path class="cls-7" d="M305.26,97.33c.1-.04.08-.21-.04-.19-2.62.43-5.25,1.84-7.59,3.02-1.9.96-3.82,2.03-5.19,3.7-1.36,1.67-1.87,3.64-1.55,5.76.35,2.31,1.21,5.03,2.72,6.86.04.05.16.01.12-.06-2.02-4.12-4.08-9.22-.32-13,3.19-3.21,7.82-4.39,11.85-6.09Z"/>
            </g>
            <g>
              <path class="cls-7" d="M294.35,115.27c-2.54.83-8.37,7.07-8.57,12.24-.2,5.17,5.21,11.73,6.58,12.02,1.38.29,6.24-5.55,7.45-9.39.81-2.57-.69-5.1-1.77-7.69-1.59-3.83-3.3-7.3-3.69-7.17Z"/>
              <path class="cls-7" d="M301.26,129.22c-.18-5.19-3.99-9.65-6.57-13.89-.03-.04-.1,0-.08.04,1.78,4.19,5.16,7.62,6.09,12.19.56,2.71.12,5.55-1.81,7.64-1.67,1.81-3.98,2.93-6.07,4.15-.14.08,0,.28.14.21,4.21-2.31,8.49-4.98,8.3-10.34Z"/>
              <path class="cls-7" d="M293.87,115.84c.12-.09,0-.28-.13-.19-3.37,2.45-7.35,5.86-8.62,9.99-1.38,4.47,1.58,8.32,4.18,11.63.03.04.1,0,.07-.05-2.59-3.37-5.45-7.61-3.76-12.04,1.46-3.8,5.09-6.96,8.26-9.34Z"/>
            </g>
            <g>
              <path class="cls-7" d="M293.18,138.37c-2.45,3.57-5.28,8.69-3.29,12.13,1.98,3.44,8.13,7.47,8.55,7.33.41-.14,5.65-6.41,5.55-11.27-.11-4.85-10.48-8.65-10.8-8.19Z"/>
              <path class="cls-7" d="M298.84,158.02c-3.58-1.47-7.92-3.65-9.39-7.51-1.42-3.71,1.35-8.56,3.38-11.55.03-.04-.03-.08-.06-.04-2.34,2.89-5,7.64-3.71,11.48,1.27,3.8,6.03,6.83,9.74,7.77.08.02.11-.11.04-.14Z"/>
            </g>
            <g>
              <path class="cls-7" d="M298.26,157.47c-1.06,1.69-1.73,5.61-.42,8.97,2.24,5.75-.35,5.89-5.24,10.67-4.13,4.04-1.95,10.06,2.21,11.2,0,0-3.47-2.45-1.18-6.01,2.73-4.26,14.05-5.45,15.23-13.58,1.52-10.52-10.59-11.25-10.59-11.25Z"/>
              <path class="cls-7" d="M297.64,161.11c.02-.11-.17-.15-.19-.04-.26,1.06-.35,2.12-.22,3.21.17,1.4.86,2.61,1.12,3.98.66,3.49-2.86,5.44-5.27,7.11-3.23,2.24-4.71,5.9-2.82,9.57.03.05.11.01.08-.04-1.13-2.3-.99-5.11.56-7.21,1.48-2,3.96-2.88,5.71-4.58,1.2-1.17,2.24-2.59,2.08-4.33-.09-.96-.51-1.86-.8-2.77-.52-1.65-.57-3.2-.24-4.9Z"/>
              <path class="cls-7" d="M299.52,157.58s-.06.07-.02.08c3.03.75,6.17,1.44,8.35,3.87,2.35,2.61,2.58,6.49,1.32,9.66-1.42,3.55-4.78,4.25-8.03,5.41-2.35.84-4.65,1.87-6.29,3.81-.05.06.05.14.1.09,2.87-2.75,6.51-3.57,10.1-4.98,2.93-1.15,4.48-3.33,4.97-6.43,1.08-6.83-4.35-10.68-10.49-11.52Z"/>
            </g>
            <g>
              <path class="cls-11" d="M301.12,92.99c-1.16-.71-2.24,1.11-1.07,1.82,1.16.71,2.24-1.11,1.07-1.82Z"/>
              <path class="cls-11" d="M302.52,94.38c-1.16-.71-2.24,1.11-1.07,1.82,1.16.71,2.24-1.11,1.07-1.82Z"/>
              <path class="cls-11" d="M304.14,95.52c-1.16-.71-2.24,1.11-1.07,1.82,1.16.71,2.24-1.11,1.07-1.82Z"/>
              <path class="cls-11" d="M305.86,96.41c-1.16-.71-2.24,1.11-1.07,1.82,1.16.71,2.24-1.11,1.07-1.82Z"/>
              <path class="cls-11" d="M307.74,97.01c-1.16-.71-2.24,1.11-1.07,1.82,1.16.71,2.24-1.11,1.07-1.82Z"/>
              <path class="cls-11" d="M309.63,97.25c-1.16-.71-2.24,1.11-1.07,1.82,1.16.71,2.24-1.11,1.07-1.82Z"/>
            </g>
          </g>
          <g>
            <path class="cls-12" d="M306.44,111.67c.29,1.07,6.13,7.97,10.74,5.99,1.71-.73,1.07-6.33,1.07-6.33l1.83-9.78-12.45-7.31s-1.31,16.98-1.19,17.44Z"/>
            <path class="cls-7" d="M307.17,100.58c2.95,6.64,8.51,9.29,11.18,10.2l1.73-9.24-12.45-7.31s-.21,2.87-.46,6.34Z"/>
          </g>
          <g>
            <path class="cls-12" d="M329.1,85.92c2.94,16.04-6.33,19.61-9.79,20.24-3.14.57-13.9,2.12-18.49-13.53-4.58-15.65,1.94-22.08,9.06-23.77,7.11-1.69,16.28,1.02,19.22,17.06Z"/>
            <g>
              <path class="cls-7" d="M324.46,84.62c-.38,0-.74-.08-1.12-.12-.43-.05-.78-.05-1.12-.34-.18-.16-.21-.51-.07-.7.32-.45.86-.52,1.38-.48.56.04.99.22,1.39.61.4.38.04,1.04-.46,1.03Z"/>
              <path class="cls-7" d="M313.48,85.87c.38-.08.71-.22,1.07-.34.41-.14.75-.2,1.03-.56.15-.19.1-.54-.07-.7-.4-.38-.94-.34-1.44-.19-.54.15-.92.41-1.25.88-.31.45.16,1.03.66.92Z"/>
              <g>
                <g>
                  <path class="cls-7" d="M316.21,89.74s-.08.06-.07.11c.17,1.1.18,2.38-.77,2.87-.03.02-.02.07.02.06,1.2-.32,1.16-2.03.82-3.04Z"/>
                  <path class="cls-7" d="M315.08,88.71c-1.79.09-1.49,3.66.17,3.58,1.63-.08,1.33-3.65-.17-3.58Z"/>
                </g>
                <path class="cls-7" d="M314.4,88.96c-.29.23-.57.61-.94.68-.43.08-.79-.27-1.11-.6-.03-.03-.06,0-.06.05.05.69.37,1.37,1.11,1.41.68.04,1.11-.61,1.22-1.31.02-.13-.11-.31-.22-.22Z"/>
              </g>
              <g>
                <g>
                  <path class="cls-7" d="M322.73,88.88s.09.05.09.09c.05,1.11.29,2.37,1.32,2.66.03,0,.03.06,0,.06-1.24-.08-1.54-1.76-1.41-2.82Z"/>
                  <path class="cls-7" d="M323.63,87.65c1.77-.27,2.18,3.29.54,3.54-1.61.25-2.03-3.31-.54-3.54Z"/>
                </g>
                <path class="cls-7" d="M324.4,87.8c.3.16.62.47.96.45.39-.02.64-.44.84-.84.02-.04.05-.01.06.03.1.68-.05,1.41-.68,1.62-.58.19-1.09-.34-1.33-1-.04-.12.03-.32.15-.26Z"/>
              </g>
              <path class="cls-7" d="M317.24,98.95c.26.26.53.62.93.66.39.04.84-.14,1.2-.27.03-.01.07.02.05.06-.29.42-.9.69-1.41.59-.5-.09-.75-.53-.87-.99-.02-.06.07-.09.11-.05Z"/>
              <path class="cls-7" d="M321.68,94.49s.31,1.65.35,2.43c0,.07-.18.12-.45.15-.01,0-.02.01-.03,0-1.37.28-2.78-.12-3.68-1.21-.06-.07.04-.16.11-.11,1.07.7,2.22.84,3.44.8.04-.22-.63-2.8-.5-2.82.43-.06,1.28.19,1.79.31-.55-3.45-1.65-6.77-2.14-10.21-.02-.12.16-.17.2-.06,1.4,3.41,2.11,7.36,2.77,10.9.09.44-1.55-.07-1.87-.18Z"/>
              <g>
                <path class="cls-7" d="M321.36,96.69s-.59,1.09-1.54,1.58c-.35.18-.74.29-1.17.24-.89-.1-1.02-.89-.96-1.58.05-.57.24-1.08.24-1.08,0,0,1.42.99,3.44.84Z"/>
                <path class="cls-3" d="M319.82,98.27c-.35.18-.74.29-1.17.24-.89-.1-1.02-.89-.96-1.58.93-.03,1.93.46,2.13,1.34Z"/>
              </g>
            </g>
            <g>
              <path class="cls-7" d="M317.24,73s.67,2.47-.17,4.26c-1.72,3.69-6.13,2.75-7.62,4.22-1.4,1.37-.88,4.19-2.15,5.56-1.75,1.9-4.17,1.19-4.45,2.46-.28,1.27-.06,3.97-1.67,4.49-1.61.53-9.89-25.19,11.69-25.61,0,0,2.79-.37,6.64.72,6.14,1.74,8.43,12.11,8.43,12.11,0,0-1.49.06-2.22-.58-1.02-.89-1.42-1.72-2.17-2.3-1.18-.91-1.82-.56-3.04-1.44-1.86-1.35-3.28-3.9-3.28-3.9Z"/>
              <path class="cls-7" d="M316.91,71.83c.33,1.05.56,2.14.64,3.23.09,1.08.05,2.21-.42,3.15-.47.91-1.42,1.54-2.4,1.91-1,.38-2.1.49-3.17.93-.52.24-1.04.56-1.4,1.08-.35.51-.49,1.09-.61,1.63-.21,1.09-.43,2.16-1.14,2.94-.7.78-1.74,1.25-2.81,1.21-1.06,0-2.24-.28-3.27.2,1.07-.39,2.15-.02,3.26.06,1.13.1,2.3-.36,3.11-1.19.85-.84,1.08-2.06,1.31-3.11.12-.53.26-1.05.55-1.45.28-.39.73-.68,1.2-.88.96-.42,2.08-.56,3.14-.97.53-.2,1.04-.48,1.49-.84.44-.35.88-.79,1.1-1.34.48-1.08.46-2.25.32-3.35-.17-1.11-.48-2.18-.9-3.2Z"/>
              <path class="cls-7" d="M317.32,72.8c.21,1.01.57,1.98,1.04,2.91.47.93,1.19,1.79,2.13,2.32.47.27,1.01.41,1.46.56.43.15.89.42,1.14.76.28.39.54.88.93,1.24.39.36.85.63,1.34.77-.44-.26-.86-.55-1.16-.95-.33-.38-.51-.82-.78-1.29-.32-.52-.81-.77-1.31-.99-.51-.19-.97-.3-1.38-.55-.84-.48-1.5-1.22-2.02-2.07-.54-.85-.98-1.77-1.41-2.7Z"/>
            </g>
            <g>
              <path class="cls-12" d="M304.07,92.72s-4.27-4.51-6.36-2.92c-2.1,1.59,1.63,8.5,4.46,9.1,2.83.6,3.44-2.01,3.44-2.01l-1.53-4.17Z"/>
              <path class="cls-7" d="M298.83,91.75s-.04.06,0,.07c1.99.48,3.24,2.08,4.2,3.79-.66-.61-1.48-.88-2.31-.08-.04.04.01.11.07.09.75-.28,1.32-.23,1.93.31.43.38.77.9,1.11,1.36.11.16.4.02.31-.16,0-.01-.01-.03-.02-.04-.31-2.4-2.67-5.48-5.28-5.34Z"/>
            </g>
          </g>
        </g>
        <g>
          <g>
            <path class="cls-2" d="M324.72,117l-10.43,27.83c-.4.81-.05,1.54.77,1.63l14.78,1.66c.82.09,1.82-.49,2.22-1.29l10.43-27.83c.4-.81.05-1.54-.77-1.63l-14.78-1.66c-.83-.09-1.82.49-2.22,1.29Z"/>
            <path class="cls-10" d="M326.47,117.18l-10.43,27.83c-.4.81-.05,1.54.77,1.63l14.78,1.66c.83.09,1.82-.49,2.22-1.29l10.43-27.83c.4-.81.05-1.54-.77-1.63l-14.78-1.66c-.83-.09-1.82.49-2.22,1.29Z"/>
            <path class="cls-7" d="M330.38,118.94c-.09.69-.73,1.18-1.42,1.08-.69-.09-1.18-.73-1.08-1.42.09-.69.73-1.18,1.42-1.08.69.09,1.18.73,1.08,1.42Z"/>
          </g>
          <g>
            <path class="cls-12" d="M272.32,185.57c6.53.3,14.12-5.44,33.61-22.55,2.7-2.37-8.9-25.89-11.9-23.51-3.79,3-17.85,15.46-18.76,16.5-7.7,8.78-7.37,29.35-2.94,29.56Z"/>
            <g>
              <path class="cls-12" d="M287.24,147.56s5.19-8.87,9.36-12.69c5.58-5.11,12.5-7.23,15.46-7.94,6.17-1.48,22.11-.81,22.71,3.81.55,4.19-15.71,2.67-15.71,2.67,0,0,16.83-1.19,16.57,3.97-.27,5.16-19.04,2.33-19.04,2.33,0,0,17.32-.84,16.21,4.44-.84,3.99-17.99,2.39-17.99,2.39,0,0,14.89-.62,14.2,3.52-.76,4.58-16.68,4.09-16.68,4.09-3.53,10.23-9.39,13.66-13.85,15.6-1.08.47-11.23-22.2-11.23-22.2Z"/>
              <g>
                <path class="cls-7" d="M313.21,133.46c1.97-.21,3.97-.44,5.95-.48,1.98-.04,3.97,0,5.95.15,4.85.37,7.83,1.35,7.64,1.31-4.51-.97-11.62-.95-13.6-.92-1.98.04-3.96-.03-5.94,0-.05,0-.05-.07,0-.08Z"/>
                <path class="cls-7" d="M313.21,140.63c2.53-.16,5.04-.41,7.57-.46,2.53-.05,4.93.12,7.45.25.19,0,.13.11-.07.11-2.52-.02-4.86.15-7.39.16-2.52,0-5.05-.09-7.57.01-.04,0-.04-.06,0-.06Z"/>
                <path class="cls-7" d="M312.1,146.78c3.85-.44,7.78-.18,11.63.18.19.02.09.14-.11.13-3.87-.13-6.9-.26-11.51-.17-.07,0-.1-.12-.02-.13Z"/>
              </g>
            </g>
          </g>
          <path class="cls-7" d="M269.45,171.51c.35-4.62,1.46-9.33,3.91-13.32,4.43-5.78,11.47-11.06,16.88-15.95,1.21-2.41,3.87-5.62,6.24-7.71,2.5-2.24,5.43-4,8.59-5.06-3.09,1.25-5.88,3.14-8.28,5.4-2.43,2.28-4.48,5-6.11,7.88-5.32,4.92-12.31,10.17-16.85,15.77-2.49,3.83-3.73,8.48-4.37,12.99h0Z"/>
        </g>
      </g>
    </g>
  </g>
  <g id="Speech_Bubble" data-name="Speech Bubble">
    <g>
      <g>
        <path class="cls-6" d="M245.28,60.68c1.3,12.42,12.43,21.44,24.85,20.14,5.02-.53,9.48-2.66,12.94-5.84l11.32,1.66-5.66-9.78c1.37-3.34,1.95-7.06,1.55-10.89-1.3-12.42-12.43-21.44-24.85-20.14-12.42,1.3-21.44,12.43-20.14,24.85Z"/>
        <path class="cls-7" d="M252.05,42c2.46-2.4,5.45-4.25,8.72-5.35,3.27-1.09,6.8-1.4,10.23-.94,3.42.46,6.77,1.68,9.65,3.62,2.89,1.94,5.33,4.53,7.08,7.54,3.52,6.02,4.13,13.7,1.39,20.16l-.03-.39,5.63,9.8.42.72-.82-.13-11.3-1.74.27-.08c-3.13,2.84-7.05,4.78-11.19,5.52-1.03.19-2.08.3-3.13.33-1.05.09-2.1,0-3.14-.06-2.08-.25-4.16-.64-6.09-1.45-1.94-.76-3.8-1.76-5.46-3.04-.87-.59-1.6-1.34-2.39-2.02-.69-.78-1.46-1.5-2.05-2.36-2.58-3.29-4.09-7.34-4.56-11.47-.73-6.81,1.78-13.93,6.77-18.68ZM249.91,72.09c.6.85,1.36,1.57,2.06,2.34.79.68,1.52,1.42,2.39,1.99,1.65,1.26,3.52,2.22,5.46,2.94,1.93.77,3.99,1.12,6.04,1.33,1.03.04,2.06.11,3.1,0,1.03-.04,2.06-.17,3.07-.37,4.05-.81,7.84-2.77,10.83-5.58l.11-.1.16.02,11.33,1.59-.4.6-5.69-9.76-.11-.18.08-.2c1.26-3.11,1.8-6.5,1.59-9.85-.27-3.34-1.16-6.67-2.87-9.57-1.68-2.91-4.01-5.44-6.77-7.38-2.77-1.93-6-3.18-9.34-3.69-3.34-.5-6.81-.26-10.06.75-3.24,1.03-6.24,2.8-8.72,5.15-5,4.68-7.55,11.76-6.87,18.58.5,4.13,2.04,8.15,4.63,11.41Z"/>
      </g>
      <polygon class="cls-11" points="265.28 71.23 255.62 61.45 258.87 58.24 264.51 63.95 276.24 45.57 280.08 48.03 265.28 71.23"/>
    </g>
  </g>
  <g id="Shopping_bags" data-name="Shopping bags">
    <g>
      <g>
        <polygon class="cls-2" points="190.76 413.25 82.98 413.25 98.7 303.46 175.05 303.46 190.76 413.25"/>
        <polygon class="cls-10" points="175.05 303.46 163.07 413.25 190.76 413.25 175.05 303.46"/>
        <path class="cls-7" d="M120.2,311.03l-3.37-.71c.02-.09,1.97-9.32,4.06-18.63,2.26-10.06,12.15-14.69,20.42-13.36,6.19,1,13.05,5.83,12.02,16.15-1.11,11.05-1.94,16.25-1.98,16.47l-3.4-.55c0-.05.86-5.34,1.95-16.26.79-7.93-4.2-11.61-9.14-12.41-6.69-1.08-14.7,2.63-16.51,10.71-2.08,9.29-4.03,18.49-4.05,18.59Z"/>
        <g>
          <path class="cls-6" d="M164.53,412.41c2.22-1.58,4.51-3.02,6.8-4.47,2.3-1.43,4.63-2.81,6.99-4.15l.32-.18.29.22c1.82,1.36,3.64,2.73,5.41,4.18,1.78,1.42,3.55,2.86,5.26,4.39-1.96-1.18-3.86-2.44-5.75-3.72-1.9-1.26-3.75-2.59-5.59-3.93l.62.03c-2.34,1.37-4.7,2.69-7.09,3.98-2.4,1.26-4.8,2.53-7.27,3.66Z"/>
          <path class="cls-6" d="M178.6,404.29c-.47-7-.82-14.01-1.15-21.01-.33-7.01-.56-14.01-.85-21.02-.19-7.01-.44-14.02-.58-21.03l-.2-10.52c-.02-3.51-.09-7.01-.08-10.52.25,3.5.42,7,.64,10.5l.52,10.51c.33,7.01.56,14.01.85,21.02.19,7.01.44,14.02.58,21.03.15,7.01.27,14.02.28,21.04Z"/>
        </g>
        <path class="cls-7" d="M123.09,310.68c0,2.53-2.05,4.57-4.57,4.57s-4.57-2.05-4.57-4.57c0-2.53,2.05-4.57,4.57-4.57,2.53,0,4.57,2.05,4.57,4.57Z"/>
        <path class="cls-7" d="M153.88,310.68c0,2.53-2.05,4.57-4.57,4.57-2.53,0-4.57-2.05-4.57-4.57,0-2.53,2.05-4.57,4.57-4.57,2.53,0,4.57,2.05,4.57,4.57Z"/>
      </g>
      <g>
        <polygon class="cls-11" points="135.56 413.25 41.81 413.25 55.48 317.76 121.89 317.76 135.56 413.25"/>
        <polygon class="cls-11" points="121.89 317.76 111.47 413.25 135.56 413.25 121.89 317.76"/>
        <polygon class="cls-13" points="121.89 317.76 111.47 413.25 135.56 413.25 121.89 317.76"/>
        <path class="cls-7" d="M74.19,324.34l-2.93-.62c.02-.08,1.71-8.1,3.53-16.2,1.96-8.75,10.57-12.78,17.76-11.62,5.39.87,11.35,5.07,10.45,14.05-.96,9.61-1.69,14.14-1.72,14.32l-2.96-.48s.74-4.64,1.7-14.14c.69-6.9-3.65-10.1-7.95-10.79-5.82-.94-12.79,2.29-14.36,9.32-1.81,8.08-3.51,16.09-3.52,16.17Z"/>
        <g>
          <path class="cls-6" d="M112.74,412.52c1.93-1.37,3.92-2.63,5.92-3.88,2-1.24,4.03-2.44,6.08-3.61l.28-.16.25.19c1.59,1.19,3.17,2.38,4.71,3.63,1.55,1.23,3.09,2.49,4.57,3.82-1.71-1.03-3.36-2.12-5-3.24-1.65-1.1-3.26-2.26-4.86-3.42l.54.03c-2.03,1.19-4.09,2.34-6.16,3.46-2.09,1.1-4.17,2.2-6.32,3.18Z"/>
          <path class="cls-6" d="M124.98,405.46c-.41-6.09-.72-12.18-1-18.28-.29-6.09-.49-12.19-.74-18.29-.17-6.1-.38-12.19-.51-18.29l-.17-9.15c-.02-3.05-.08-6.1-.07-9.15.22,3.04.37,6.09.56,9.14l.45,9.14c.29,6.09.49,12.19.74,18.28.17,6.1.38,12.19.51,18.29.13,6.1.24,12.2.24,18.3Z"/>
        </g>
        <path class="cls-7" d="M76.7,324.03c0,2.2-1.78,3.98-3.98,3.98s-3.98-1.78-3.98-3.98c0-2.2,1.78-3.98,3.98-3.98,2.2,0,3.98,1.78,3.98,3.98Z"/>
        <path class="cls-7" d="M103.48,324.03c0,2.2-1.78,3.98-3.98,3.98-2.2,0-3.98-1.78-3.98-3.98,0-2.2,1.78-3.98,3.98-3.98,2.2,0,3.98,1.78,3.98,3.98Z"/>
      </g>
    </g>
  </g>
</svg>