<?xml version="1.0" encoding="UTF-8"?>
<svg xmlns="http://www.w3.org/2000/svg" viewBox="0 0 418.26 410.43">
  <defs>
    <style>
      .cls-1 {
        fill: #eb9481;
      }

      .cls-1, .cls-2, .cls-3, .cls-4, .cls-5, .cls-6, .cls-7, .cls-8, .cls-9, .cls-10, .cls-11, .cls-12 {
        stroke-width: 0px;
      }

      .cls-13 {
        stroke: #ebebeb;
      }

      .cls-13, .cls-14 {
        fill: none;
        stroke-miterlimit: 10;
      }

      .cls-2 {
        fill: #37474f;
      }

      .cls-3, .cls-6 {
        fill: #263238;
      }

      .cls-3, .cls-12 {
        opacity: .1;
      }

      .cls-4 {
        fill: #c7c7c7;
      }

      .cls-5 {
        fill: #fff;
      }

      .cls-7 {
        fill: #a6a6a6;
      }

      .cls-8 {
        fill: #dbdbdb;
      }

      .cls-9 {
        fill: #ebebeb;
      }

      .cls-14 {
        stroke: #dbdbdb;
      }

      .cls-10 {
        fill: #455a64;
      }

      .cls-11 {
        fill: #ffc727;
      }
    </style>
  </defs>
  <g id="Background_Complete" data-name="Background Complete">
    <g>
      <rect class="cls-9" x="22.48" y="331.94" width="35.16" height="11.19"/>
      <rect class="cls-9" x="136.02" y="58.52" width="35.16" height="11.19"/>
      <path class="cls-9" d="M38.03,357.24l-17.46.29-8.83.12-8.87.04h-.45s0-.46,0-.46l-.04-11.19v-.5s.5,0,.5,0l17.58.07,8.79.08,8.79.11h.24s0,.24,0,.24l-.24,11.19ZM38.03,357.24l-.24-11.19.24.24-8.79.11-8.79.08-17.58.07.5-.5-.04,11.19-.46-.46,8.71.04,8.75.12,17.7.29Z"/>
      <path class="cls-9" d="M378.6,251.63c-5.86.1-20.63.35-26.29.41l-8.87.04h-.45s0-.46,0-.46l-.04-11.19v-.5s.5,0,.5,0l17.58.07c4.38.04,13.2.13,17.58.19,0,0,.24,0,.24,0v.23s-.24,11.19-.24,11.19h0ZM378.6,251.63l-.24-11.19.24.24c-4.39.06-13.19.16-17.58.19,0,0-17.58.07-17.58.07l.5-.5-.04,11.19-.46-.46,8.71.04c5.57.06,20.68.32,26.45.41h0Z"/>
      <path class="cls-9" d="M358.99,265.74c-5.86.1-20.63.35-26.29.41l-8.87.04h-.45s0-.46,0-.46l-.04-11.19v-.5s.5,0,.5,0l17.58.07c4.38.04,13.2.13,17.58.19,0,0,.24,0,.24,0v.23s-.24,11.19-.24,11.19h0ZM358.99,265.74l-.24-11.19.24.24-8.79.11c-5.58.08-20.6.13-26.37.15l.5-.5-.04,11.19-.46-.46,8.71.04c5.57.06,20.68.32,26.45.41h0Z"/>
      <rect class="cls-9" x="304.29" y="240.44" width="35.16" height="11.19"/>
      <rect class="cls-9" x="381.39" y="346.05" width="35.16" height="11.19"/>
      <rect class="cls-9" x="361.78" y=".5" width="35.16" height="11.19"/>
      <path class="cls-9" d="M416.55,25.8l-17.46.29-8.83.12-8.87.04h-.45s0-.46,0-.46l-.04-11.19v-.5s.5,0,.5,0l17.58.07,8.79.08,8.79.11h.24s0,.24,0,.24l-.24,11.19ZM416.55,25.8l-.24-11.19.24.24-8.79.11-8.79.08-17.58.07.5-.5-.04,11.19-.46-.46,8.71.04,8.75.12,17.7.29Z"/>
      <path class="cls-9" d="M57.64,11.69l-17.46.29-8.83.12-8.87.04h-.45s0-.46,0-.46l-.04-11.19v-.5s.5,0,.5,0l17.58.07,8.79.08,8.79.11h.24s0,.24,0,.24l-.24,11.19ZM57.64,11.69l-.24-11.19.24.24-8.79.11-8.79.08-17.58.07.5-.5-.04,11.19-.46-.46,8.71.04,8.75.12,17.7.29Z"/>
    </g>
    <g>
      <g>
        <g>
          <path class="cls-9" d="M17.08,3.38v177.66h115.47V3.38H17.08ZM128.3,176.78H21.35V7.64h106.95v169.14Z"/>
          <rect class="cls-5" x="21.35" y="7.64" width="106.95" height="169.14"/>
          <rect class="cls-9" x="21.34" y="90.08" width="106.95" height="4.26" transform="translate(149.64 184.42) rotate(180)"/>
        </g>
        <rect class="cls-8" x="9.24" y="181.04" width="131.16" height="12.23" transform="translate(149.64 374.3) rotate(180)"/>
        <g>
          <path class="cls-8" d="M21.34,7.64h106.95v109.43H21.34V7.64ZM124.35,11.58H25.29v101.54h99.06V11.58Z"/>
          <rect class="cls-8" x="92.03" y="7.64" width="2.13" height="105.48"/>
          <rect class="cls-8" x="55.48" y="7.64" width="2.13" height="105.48"/>
        </g>
      </g>
      <g>
        <g>
          <path class="cls-9" d="M286.87,3.38v177.66h115.47V3.38h-115.47ZM398.08,176.78h-106.95V7.64h106.95v169.14Z"/>
          <rect class="cls-5" x="291.13" y="7.64" width="106.95" height="169.14"/>
          <rect class="cls-9" x="291.13" y="90.08" width="106.95" height="4.26" transform="translate(689.21 184.42) rotate(180)"/>
        </g>
        <rect class="cls-8" x="279.02" y="181.04" width="131.16" height="12.23" transform="translate(689.21 374.3) rotate(180)"/>
        <g>
          <path class="cls-8" d="M291.13,7.64h106.95v109.43h-106.95V7.64ZM394.14,11.58h-99.06v101.54h99.06V11.58Z"/>
          <rect class="cls-8" x="361.82" y="7.64" width="2.13" height="105.48"/>
          <rect class="cls-8" x="325.26" y="7.64" width="2.13" height="105.48"/>
        </g>
      </g>
    </g>
    <g>
      <rect class="cls-9" y="233.93" width="146.12" height="8.92"/>
      <g>
        <rect class="cls-9" x="13.03" y="242.85" width="120.06" height="24.61"/>
        <polygon class="cls-4" points="133.09 247.71 13.03 250.1 13.03 242.85 133.09 242.85 133.09 247.71"/>
        <rect class="cls-14" x="31.62" y="248.01" width="82.89" height="14.3"/>
        <rect class="cls-8" x="59.4" y="253.09" width="27.33" height="4.13"/>
      </g>
      <g>
        <polygon class="cls-9" points="12.06 409.02 8.08 409.02 19.65 267.47 29.79 267.47 12.06 409.02"/>
        <polygon class="cls-4" points="29.79 267.47 28.6 276.94 18.88 276.94 19.65 267.47 29.79 267.47"/>
      </g>
      <g>
        <polygon class="cls-9" points="134.06 409.02 138.04 409.02 126.47 267.47 116.33 267.47 134.06 409.02"/>
        <polygon class="cls-4" points="116.33 267.47 117.52 276.94 127.24 276.94 126.47 267.47 116.33 267.47"/>
      </g>
    </g>
  </g>
  <g id="Floor">
    <polygon class="cls-6" points="1.16 409.02 53.3 408.77 105.44 408.68 209.71 408.52 313.99 408.68 366.12 408.77 418.26 409.02 366.12 409.26 313.99 409.35 209.71 409.52 105.44 409.35 53.3 409.26 1.16 409.02"/>
  </g>
  <g id="Device">
    <g>
      <path class="cls-6" d="M294.23,26.17H125.18c-9.44,0-17.1,7.79-17.1,17.42v348.01c0,9.61,7.66,17.42,17.1,17.42h169.05c9.45,0,17.12-7.81,17.12-17.42V43.59c0-9.63-7.67-17.42-17.12-17.42ZM300.66,380.84c0,9.16-6.86,16.57-15.32,16.57h-151.24c-8.48,0-15.34-7.41-15.34-16.57V56.78c0-18.66,6.86-19.57,15.34-19.57h30.29c1.76,0,3.2,2,3.2,4.48v1.07c0,5.81,3.18,5.83,7.09,5.83h70.06c3.94,0,7.09-.02,7.09-5.83v-1.07c0-2.48,1.42-4.48,3.21-4.48h30.3c8.46,0,15.32,2.48,15.32,19.57v324.06Z"/>
      <path class="cls-5" d="M219.26,41.33h-19.11c-.65,0-1.18-.53-1.18-1.18h0c0-.65.53-1.18,1.18-1.18h19.11c.65,0,1.18.53,1.18,1.18h0c0,.65-.53,1.18-1.18,1.18Z"/>
      <g>
        <path class="cls-5" d="M300.66,56.78v324.06c0,9.16-6.86,16.57-15.32,16.57h-151.24c-8.48,0-15.34-7.41-15.34-16.57V56.78c0-18.66,6.86-19.57,15.34-19.57h30.29c1.76,0,3.2,2,3.2,4.48v1.07c0,5.81,3.18,5.83,7.09,5.83h70.06c3.94,0,7.09-.02,7.09-5.83v-1.07c0-2.48,1.42-4.48,3.21-4.48h30.3c8.46,0,15.32,2.48,15.32,19.57Z"/>
        <g>
          <polygon class="cls-4" points="137.17 78.41 131.79 73.37 137.17 68.34 138 69.23 133.58 73.37 138 77.52 137.17 78.41"/>
          <g>
            <path class="cls-4" d="M286.57,70.24c0,.58-.47,1.06-1.06,1.06s-1.06-.47-1.06-1.06.47-1.06,1.06-1.06,1.06.47,1.06,1.06Z"/>
            <path class="cls-4" d="M286.57,74c0,.58-.47,1.06-1.06,1.06s-1.06-.47-1.06-1.06.47-1.06,1.06-1.06,1.06.47,1.06,1.06Z"/>
            <path class="cls-4" d="M286.57,77.76c0,.58-.47,1.06-1.06,1.06s-1.06-.47-1.06-1.06.47-1.06,1.06-1.06,1.06.47,1.06,1.06Z"/>
          </g>
          <g>
            <path class="cls-4" d="M195.4,76.54c.13-.15.36-.17.51-.05.31.25.84.55,1.34.54.35,0,.66-.11.87-.26.21-.15.3-.33.3-.5,0-.09-.02-.15-.06-.22-.04-.07-.11-.14-.21-.21-.2-.13-.55-.25-.96-.33h-.01c-.33-.06-.64-.15-.9-.27-.27-.13-.5-.3-.65-.55-.11-.17-.16-.36-.16-.57,0-.42.24-.78.56-1.02.33-.24.76-.37,1.21-.37.67,0,1.17.33,1.53.56.16.11.21.34.1.5-.1.17-.33.22-.5.11-.36-.24-.7-.45-1.13-.45-.31,0-.59.1-.78.24-.19.14-.27.29-.27.44,0,.08.01.14.05.2.04.06.1.12.19.18.18.13.5.24.88.31h.01c.36.07.69.16.97.29.29.14.54.32.7.58.11.17.17.38.17.6,0,.45-.25.83-.6,1.09-.34.25-.8.4-1.3.4-.76,0-1.39-.39-1.79-.7-.15-.13-.18-.36-.06-.51Z"/>
            <path class="cls-4" d="M200.27,73.24c0-.22.17-.39.39-.39s.39.17.39.39v4.13c0,.22-.18.39-.39.39s-.39-.17-.39-.39v-4.13Z"/>
            <path class="cls-4" d="M202.14,75.25c0-1.41,1.16-2.53,2.58-2.53.6,0,1.16.2,1.6.55.18.13.21.39.08.57-.13.17-.39.2-.57.06-.3-.23-.69-.38-1.11-.38-.5,0-.95.19-1.26.51-.33.31-.53.74-.53,1.22s.2.89.53,1.2c.32.32.76.51,1.26.51.35,0,.68-.11.96-.27v-.96h-1c-.22,0-.4-.18-.4-.4s.18-.39.4-.39h1.39c.22,0,.41.17.41.39v1.55s-.01.08-.02.12c0,.01,0,.02-.01.04h0c-.02.07-.06.13-.13.17-.44.34-.99.55-1.59.55-1.42,0-2.58-1.11-2.58-2.51Z"/>
            <path class="cls-4" d="M208.82,77.37c0,.21-.17.39-.38.39-.22,0-.39-.18-.39-.39v-4.07h0c0-.13.05-.25.15-.33.17-.12.41-.08.53.08l2.26,3.13v-2.89c0-.2.17-.38.38-.38s.38.17.38.38v4.07c0,.21-.17.39-.38.39-.11,0-.22-.06-.29-.14-.01-.01-.03-.03-.04-.04l-2.24-3.11v2.91Z"/>
            <path class="cls-4" d="M217.58,77.76c-1.13,0-2.02-.91-2.02-2.02v-2.49c0-.22.17-.39.39-.39s.39.17.39.39v2.49c0,.69.56,1.25,1.25,1.25s1.25-.56,1.25-1.25v-2.49c0-.22.18-.39.39-.39s.38.17.38.39v2.49c0,1.11-.9,2.02-2.02,2.02Z"/>
            <path class="cls-4" d="M222.89,75.85h-.86v1.52c0,.21-.17.39-.39.39s-.38-.18-.38-.39v-4.13c0-.22.17-.39.38-.39h1.25c.83,0,1.51.67,1.51,1.51s-.67,1.49-1.51,1.49ZM222.02,75.08h.86c.41,0,.72-.32.73-.71,0-.41-.32-.73-.73-.73h-.86v1.44Z"/>
          </g>
        </g>
        <g>
          <g id="u5Zjqx">
            <g>
              <path class="cls-4" d="M159.16,44.48c-.1.1-.2.19-.29.29-.06.06-.11.11-.17.17-.79-.76-1.72-1.17-2.82-1.17-1.1,0-2.03.41-2.82,1.17-.05-.05-.1-.11-.16-.16-.1-.1-.19-.19-.29-.29,0,0,0,0,0,0h0s.01-.02.02-.02c.12-.11.24-.22.37-.33.26-.22.55-.4.86-.55.36-.18.74-.31,1.13-.38.19-.03.38-.05.57-.08.06,0,.48,0,.5,0,.13,0,.26.02.39.03.36.04.7.12,1.04.25.24.09.48.2.7.33.24.14.46.29.67.47.11.09.21.19.31.28h0Z"/>
              <path class="cls-4" d="M153.99,45.86c-.15-.15-.31-.3-.46-.46.53-.52,1.15-.85,1.88-.94,1.09-.15,2.03.18,2.83.94-.16.16-.31.31-.46.46-.52-.51-1.15-.78-1.89-.78-.74,0-1.37.27-1.89.78Z"/>
              <path class="cls-4" d="M157.31,46.32c-.15.15-.31.31-.46.46-.27-.26-.59-.4-.97-.4-.38,0-.7.14-.97.4-.15-.15-.31-.31-.46-.46.73-.77,2.05-.83,2.86,0Z"/>
            </g>
            <path class="cls-4" d="M156.3,47.2c0,.23-.19.42-.42.42s-.42-.19-.42-.42.19-.42.42-.42.42.19.42.42Z"/>
          </g>
          <g>
            <path class="cls-4" d="M130.62,45.37c0-.67.54-1.21,1.21-1.21s1.21.54,1.21,1.21-.54,1.21-1.21,1.21-1.21-.54-1.21-1.21Z"/>
            <path class="cls-4" d="M134.42,45.37c0-.67.54-1.21,1.21-1.21s1.21.54,1.21,1.21-.54,1.21-1.21,1.21-1.21-.54-1.21-1.21Z"/>
            <path class="cls-4" d="M138.21,45.37c0-.67.54-1.21,1.21-1.21s1.21.54,1.21,1.21-.54,1.21-1.21,1.21-1.21-.54-1.21-1.21Z"/>
            <path class="cls-4" d="M142.01,45.37c0-.67.54-1.21,1.21-1.21s1.21.54,1.21,1.21-.54,1.21-1.21,1.21-1.21-.54-1.21-1.21Z"/>
            <path class="cls-4" d="M145.81,45.37c0-.67.54-1.21,1.21-1.21s1.21.54,1.21,1.21-.54,1.21-1.21,1.21-1.21-.54-1.21-1.21Z"/>
          </g>
          <g>
            <path class="cls-4" d="M287.02,48.01h-9.83v-4.56h9.83v4.56ZM277.7,47.49h8.8v-3.53h-8.8v3.53Z"/>
            <rect class="cls-4" x="278.01" y="44.23" width="6.33" height="3"/>
            <rect class="cls-4" x="287.02" y="44.51" width=".87" height="2.43"/>
          </g>
        </g>
        <g>
          <polygon class="cls-9" points="141.93 379.9 141.04 379.9 141.04 383.98 139.38 383.98 139.38 381.9 136.44 381.9 136.44 383.98 134.78 383.98 134.78 379.9 133.89 379.9 137.91 375.74 141.93 379.9"/>
          <g>
            <rect class="cls-9" x="276.22" y="375.74" width="9.69" height="1.38"/>
            <rect class="cls-9" x="276.22" y="379.17" width="9.69" height="1.39"/>
            <rect class="cls-9" x="276.22" y="382.6" width="9.69" height="1.39"/>
          </g>
          <g>
            <polygon class="cls-9" points="212.75 380.01 209.99 382.95 207.24 380.01 207.72 379.55 209.99 381.97 212.26 379.55 212.75 380.01"/>
            <path class="cls-9" d="M209.99,385.99c-2.76,0-5.01-2.25-5.01-5.01s2.25-5.01,5.01-5.01,5.01,2.25,5.01,5.01-2.25,5.01-5.01,5.01ZM209.99,376.63c-2.4,0-4.34,1.95-4.34,4.34s1.95,4.34,4.34,4.34,4.34-1.95,4.34-4.34-1.95-4.34-4.34-4.34Z"/>
          </g>
        </g>
        <g>
          <g>
            <path class="cls-6" d="M152.21,168.86c-1.08,0-1.94-.87-1.94-1.94v-2.39c0-.21.16-.37.37-.37s.38.16.38.37v2.39c0,.66.54,1.2,1.19,1.2s1.2-.54,1.2-1.2v-2.39c0-.21.17-.37.38-.37s.37.16.37.37v2.39c0,1.07-.87,1.94-1.94,1.94Z"/>
            <path class="cls-6" d="M155.49,167.9c.12-.16.36-.18.5-.05.17.15.48.3.74.3.18,0,.35-.06.46-.13.09-.08.12-.15.12-.2,0-.03,0-.05-.02-.07,0-.02-.03-.05-.09-.08-.09-.07-.3-.14-.54-.19h0c-.21-.04-.41-.09-.58-.17-.18-.09-.34-.21-.46-.39-.07-.12-.11-.27-.11-.42,0-.31.17-.57.4-.74.23-.16.52-.25.83-.25.46,0,.79.22,1.01.37.16.11.21.33.11.5-.11.16-.33.21-.5.09-.21-.14-.4-.25-.62-.25-.17,0-.32.05-.4.12-.09.06-.11.12-.11.15,0,.03,0,.03.01.05,0,.01.03.04.07.07.09.06.26.12.49.16h0s0,0,0,0c.22.04.43.1.62.19.18.08.36.21.48.4.08.13.13.29.13.44,0,.33-.18.6-.42.78-.24.17-.54.27-.87.27-.52,0-.93-.25-1.19-.46-.15-.12-.17-.35-.05-.5Z"/>
            <path class="cls-6" d="M158.72,167.18c0-.91.72-1.68,1.64-1.68s1.56.65,1.62,1.56v.03s0,.05,0,.06c-.02.16-.16.27-.35.27h-2.14c.03.15.11.33.23.44.14.16.41.28.64.3.24.02.53-.04.7-.17.14-.15.42-.13.5-.02.09.09.15.3,0,.44-.33.3-.73.44-1.2.44-.92,0-1.63-.77-1.64-1.68ZM159.45,166.85h1.9c-.07-.27-.41-.66-.99-.71-.57.03-.85.44-.91.71Z"/>
            <path class="cls-6" d="M164.97,165.86c0,.19-.15.36-.36.36-.15,0-.29.04-.4.13-.13.08-.23.19-.31.32-.16.21-.24.47-.28.56v1.28c0,.19-.17.36-.37.36s-.36-.16-.36-.36v-2.65c0-.19.16-.35.36-.35s.37.15.37.35v.05s.09-.1.14-.13c.22-.15.51-.27.85-.26.2,0,.36.15.36.35Z"/>
            <path class="cls-6" d="M168.65,166.9v1.6c0,.19-.15.36-.35.36s-.36-.16-.36-.36v-1.6c0-.38-.32-.68-.7-.68s-.67.3-.67.68v1.6s0,.04-.01.07c-.03.16-.18.29-.36.29-.2,0-.36-.16-.36-.36v-2.65c0-.19.15-.36.36-.36.14,0,.27.08.33.21.2-.13.45-.21.71-.21.78,0,1.4.64,1.4,1.4Z"/>
            <path class="cls-6" d="M172.8,167.19v1.32c0,.19-.16.36-.36.36-.17,0-.31-.13-.35-.29-.25.18-.56.29-.89.29-.46,0-.85-.19-1.14-.49-.29-.31-.46-.73-.46-1.18s.17-.88.46-1.18c.29-.31.68-.5,1.14-.5.34,0,.64.11.89.3.04-.17.17-.3.35-.3.19,0,.36.16.36.36v1.32ZM172.09,167.19c0-.28-.1-.52-.26-.69-.16-.18-.39-.28-.62-.28s-.47.09-.62.28c-.16.17-.26.41-.26.69s.09.52.26.69c.15.17.38.26.62.26s.46-.09.62-.26c.16-.17.26-.42.26-.69Z"/>
            <path class="cls-6" d="M176.92,166.89v1.61c0,.19-.16.36-.36.36s-.36-.16-.36-.36v-1.61c0-.37-.32-.67-.69-.67s-.68.31-.68.69v1.59s0,.03,0,.05v.02s0,.03-.02.04v.03c-.06.12-.19.21-.34.21-.03,0-.05,0-.07,0-.16-.04-.29-.17-.29-.35v-1.59h0v-1.05c0-.21.16-.36.36-.36.14,0,.27.07.32.2.21-.13.46-.2.72-.2.42,0,.8.17,1.05.46.25-.29.63-.46,1.05-.46.77,0,1.4.63,1.4,1.41v1.59c0,.19-.16.36-.36.36s-.36-.16-.36-.36v-1.59c0-.38-.31-.69-.68-.69s-.68.3-.7.67Z"/>
            <path class="cls-6" d="M180.27,167.18c0-.91.72-1.68,1.64-1.68.87,0,1.56.65,1.62,1.56v.03s0,.05,0,.06c-.02.16-.16.27-.35.27h-2.13c.03.15.11.33.23.44.14.16.41.28.64.3.24.02.53-.04.7-.17.14-.15.42-.13.5-.02.09.09.15.3,0,.44-.33.3-.73.44-1.2.44-.92,0-1.63-.77-1.64-1.68ZM181,166.85h1.9c-.07-.27-.41-.66-.99-.71-.57.03-.85.44-.91.71Z"/>
          </g>
          <rect class="cls-9" x="149.13" y="173.98" width="121.16" height="14.39"/>
          <g>
            <path class="cls-6" d="M150.26,202.98v-3.96c0-.21.16-.37.37-.37h2.2c.19,0,.37.16.37.37s-.17.38-.37.38h-1.82v1.23h1.56c.2,0,.37.17.37.37,0,.21-.17.38-.37.38h-1.56v1.24h1.82c.19,0,.37.17.37.38s-.17.37-.37.37h-2.18s-.01,0-.01,0h0c-.21,0-.37-.16-.37-.36Z"/>
            <path class="cls-6" d="M156.97,201.38v1.61c0,.19-.16.36-.36.36s-.36-.16-.36-.36v-1.61c0-.37-.32-.67-.69-.67s-.68.31-.68.69v1.59s0,.03,0,.05v.02s0,.03-.02.04v.03c-.06.12-.19.21-.34.21-.03,0-.05,0-.07,0-.16-.04-.29-.17-.29-.35v-1.59h0v-1.05c0-.21.16-.36.36-.36.14,0,.27.07.32.2.21-.13.46-.2.72-.2.42,0,.8.17,1.05.46.25-.29.63-.46,1.05-.46.77,0,1.4.63,1.4,1.41v1.59c0,.19-.16.36-.36.36s-.36-.16-.36-.36v-1.59c0-.38-.31-.69-.68-.69s-.68.3-.7.67Z"/>
            <path class="cls-6" d="M163.39,201.68v1.32c0,.19-.16.36-.36.36-.17,0-.31-.13-.35-.29-.25.18-.56.29-.89.29-.46,0-.85-.19-1.14-.49-.29-.31-.46-.73-.46-1.18s.17-.88.46-1.18c.29-.31.68-.5,1.14-.5.34,0,.64.11.89.3.04-.17.17-.3.35-.3.19,0,.36.16.36.36v1.32ZM162.68,201.68c0-.28-.1-.52-.26-.69-.16-.18-.39-.28-.62-.28s-.47.09-.62.28c-.16.17-.26.41-.26.69s.09.52.26.69c.15.17.38.26.62.26s.46-.09.62-.26c.16-.17.26-.42.26-.69Z"/>
            <path class="cls-6" d="M165.44,199.15c0,.2-.15.37-.36.37s-.36-.17-.36-.37v-.14c0-.2.16-.36.36-.36s.36.16.36.36v.14ZM165.44,200.37v2.62c0,.2-.15.36-.36.36s-.36-.16-.36-.36v-2.62c0-.21.16-.37.36-.37s.36.15.36.37Z"/>
            <path class="cls-6" d="M166.87,198.65c.21,0,.38.17.38.37v3.96c0,.2-.17.37-.38.37s-.37-.17-.37-.37v-3.96c0-.2.17-.37.37-.37Z"/>
          </g>
          <rect class="cls-9" x="149.13" y="208.47" width="121.16" height="14.39"/>
          <g>
            <path class="cls-6" d="M151.83,236.01h-.83v1.46c0,.2-.17.37-.38.37s-.37-.17-.37-.37v-3.96c0-.21.17-.37.37-.37h1.2c.8,0,1.44.64,1.44,1.44s-.64,1.43-1.44,1.43ZM151,235.27h.83c.39,0,.69-.31.7-.68,0-.39-.31-.7-.7-.7h-.83v1.38Z"/>
            <path class="cls-6" d="M156.94,236.17v1.32c0,.19-.16.36-.36.36-.17,0-.31-.13-.35-.29-.25.18-.56.29-.89.29-.46,0-.85-.19-1.14-.49-.29-.31-.46-.72-.46-1.18s.17-.88.46-1.18c.29-.31.69-.5,1.14-.5.34,0,.64.11.89.3.04-.17.17-.3.35-.3.19,0,.36.16.36.36v1.32ZM156.23,236.17c0-.28-.1-.52-.26-.69-.16-.18-.39-.28-.62-.28s-.47.09-.62.28c-.16.17-.26.41-.26.69s.09.52.26.69c.15.17.38.26.62.26s.46-.09.62-.26c.16-.17.26-.42.26-.69Z"/>
            <path class="cls-6" d="M158.09,236.88c.12-.16.36-.18.5-.05.17.15.48.3.74.3.18,0,.35-.06.46-.13.09-.08.12-.15.12-.2,0-.03,0-.05-.02-.07,0-.02-.03-.05-.09-.08-.09-.07-.3-.14-.54-.19h0c-.21-.04-.41-.09-.58-.17-.18-.09-.34-.21-.46-.39-.07-.12-.11-.27-.11-.42,0-.31.17-.57.4-.74.23-.16.52-.25.83-.25.46,0,.79.22,1.01.37.16.11.21.33.11.5-.11.16-.33.21-.5.09-.21-.14-.4-.25-.62-.25-.17,0-.32.05-.4.12-.09.06-.11.12-.11.15,0,.03,0,.03.01.05,0,.01.03.04.07.07.09.06.26.12.49.16h0s0,0,0,0c.22.04.43.1.62.19.18.08.36.21.48.4.08.13.13.29.13.44,0,.33-.18.6-.42.78-.24.17-.54.27-.87.27-.52,0-.93-.25-1.19-.46-.15-.12-.17-.35-.05-.5Z"/>
            <path class="cls-6" d="M161.33,236.88c.12-.16.36-.18.5-.05.17.15.48.3.74.3.18,0,.35-.06.46-.13.09-.08.12-.15.12-.2,0-.03,0-.05-.02-.07,0-.02-.03-.05-.09-.08-.09-.07-.3-.14-.54-.19h0c-.21-.04-.41-.09-.58-.17-.18-.09-.34-.21-.46-.39-.07-.12-.11-.27-.11-.42,0-.31.17-.57.4-.74.23-.16.52-.25.83-.25.46,0,.79.22,1.01.37.16.11.21.33.11.5-.11.16-.33.21-.5.09-.21-.14-.4-.25-.62-.25-.17,0-.32.05-.4.12-.09.06-.11.12-.11.15,0,.03,0,.03.01.05,0,.01.03.04.07.07.09.06.26.12.49.16h0s0,0,0,0c.22.04.43.1.62.19.18.08.36.21.48.4.08.13.13.29.13.44,0,.33-.18.6-.42.78-.24.17-.54.27-.87.27-.52,0-.93-.25-1.2-.46-.15-.12-.17-.35-.05-.5Z"/>
            <path class="cls-6" d="M169.01,235.02l-1.11,2.61s-.01.03-.03.05c0,0,0,0,0,0,0,.01-.02.03-.03.04,0,0-.01,0-.01,0-.01.01-.03.03-.04.03,0,0,0,0,0,.01-.02.01-.03.03-.06.03,0,0,0,0,0,0-.01,0-.03,0-.05.01h-.01s-.04,0-.07,0c-.02,0-.04,0-.06,0h-.01s-.03-.01-.05-.01h-.01s-.04-.03-.06-.05h0s-.03-.03-.04-.04c0,0-.01,0-.01,0-.01-.01-.03-.03-.03-.04,0,0,0,0,0,0-.01-.02-.02-.04-.03-.05l-.49-1.16-.48,1.16s-.02.03-.03.05h0s-.03.03-.04.05c0,0,0,0,0,0-.01.01-.03.03-.04.04-.03.02-.04.03-.06.04h-.01s0,0,0,0c-.01,0-.03,0-.04.01h-.01s-.05,0-.07,0c-.03,0-.05,0-.07,0h-.02s-.03-.01-.04-.01t-.01,0s-.05-.02-.06-.04t0,0s-.02-.02-.04-.03h-.01s-.02-.03-.03-.05t0,0s-.02-.04-.03-.05l-1.1-2.61c-.08-.18,0-.38.19-.46.16-.07.37,0,.44.2l.79,1.81.47-1.12c.06-.13.19-.21.33-.21.15,0,.28.08.33.21l.48,1.12.79-1.81c.07-.19.28-.28.45-.2.18.08.28.28.19.46Z"/>
            <path class="cls-6" d="M170.61,237.35c-.29-.29-.46-.71-.46-1.18s.17-.85.46-1.17c.3-.32.69-.51,1.15-.51s.85.2,1.12.51c.3.32.47.72.47,1.17s-.17.89-.47,1.18c-.28.32-.68.51-1.12.51s-.85-.2-1.15-.51ZM170.88,236.17c0,.29.09.52.24.71.17.16.39.25.64.25.23,0,.45-.09.62-.25.17-.19.26-.42.26-.71s-.09-.52-.26-.7c-.17-.15-.38-.25-.62-.25-.25,0-.48.11-.64.25-.15.18-.24.42-.24.7Z"/>
            <path class="cls-6" d="M176.43,234.84c0,.19-.15.36-.36.36-.15,0-.29.04-.4.13-.13.08-.23.19-.31.32-.16.21-.24.47-.27.56v1.28c0,.19-.17.36-.37.36s-.36-.16-.36-.36v-2.65c0-.19.16-.35.36-.35s.37.16.37.35v.05s.09-.1.14-.13c.22-.15.51-.27.85-.26.2,0,.36.16.36.35Z"/>
            <path class="cls-6" d="M180.19,237.48c0,.19-.16.36-.36.36-.18,0-.32-.13-.36-.29-.25.17-.58.29-.91.29-.91,0-1.63-.77-1.63-1.67s.73-1.69,1.63-1.69c.33,0,.65.11.9.28v-1.26c0-.2.16-.36.37-.36s.36.17.36.36v2.66h0v1.32ZM178.55,235.21c-.24,0-.46.1-.63.28-.17.17-.27.41-.27.68s.1.5.27.67c.17.17.39.28.63.28s.46-.1.63-.28c.17-.17.27-.41.27-.67,0-.27-.1-.51-.27-.68-.17-.17-.38-.28-.63-.28Z"/>
          </g>
          <rect class="cls-9" x="149.13" y="242.96" width="121.16" height="14.39"/>
          <g>
            <g>
              <path class="cls-6" d="M156.45,273.47c0-.07.06-.13.13-.13.08,0,.14.06.14.13v3.65c0,.07-.06.13-.14.13-.07,0-.13-.06-.13-.13v-3.65Z"/>
              <path class="cls-6" d="M162.04,274.65v2.47c0,.07-.06.13-.13.13s-.13-.06-.13-.13v-.41c-.24.32-.61.54-1.03.54-.72,0-1.3-.62-1.3-1.37s.58-1.37,1.3-1.37c.42,0,.79.21,1.03.54v-.4c0-.08.06-.13.13-.13s.13.06.13.13ZM161.77,275.89c0-.62-.46-1.11-1.03-1.11s-1.03.49-1.03,1.11.47,1.1,1.03,1.1,1.03-.49,1.03-1.1Z"/>
              <path class="cls-6" d="M165.79,277.04c0,.71-.58,1.29-1.29,1.29-.2,0-.39-.05-.57-.13-.06-.04-.09-.12-.06-.18.03-.07.11-.1.18-.06.14.07.28.1.45.1.57,0,1.02-.45,1.02-1.02v-.34c-.23.33-.6.54-1.02.54-.72,0-1.29-.61-1.29-1.37s.57-1.36,1.29-1.36c.42,0,.8.21,1.02.54v-.4c0-.07.06-.13.14-.13.07,0,.13.06.13.13v2.39ZM165.52,275.87c0-.61-.46-1.09-1.02-1.09s-1.02.48-1.02,1.09.46,1.1,1.02,1.1,1.02-.49,1.02-1.1Z"/>
              <path class="cls-6" d="M167.08,274.65c0-.08.06-.13.14-.13.07,0,.13.06.13.13v.6s.02-.04.04-.07c.21-.33.57-.67,1.1-.67.07,0,.13.06.13.13,0,.07-.06.13-.13.13-.36,0-.6.2-.79.45-.19.25-.29.53-.33.64-.01.02-.01.03-.01.04v1.2c0,.08-.06.13-.13.13-.08,0-.14-.06-.14-.13v-2.47Z"/>
              <path class="cls-6" d="M169.06,275.89c0-.76.59-1.38,1.33-1.38s1.27.56,1.32,1.28h0v.02c0,.07-.06.12-.13.12h-2.25c.03.6.5,1.05,1.06,1.05.36,0,.7-.19.88-.5.04-.07.12-.08.18-.04.06.04.08.12.04.19-.24.38-.64.62-1.11.62-.74,0-1.33-.62-1.33-1.37ZM169.35,275.67h2.08c-.09-.51-.53-.89-1.03-.89s-.95.37-1.05.89Z"/>
              <path class="cls-6" d="M172.47,275.89c0-.76.59-1.38,1.33-1.38s1.27.56,1.32,1.28h0v.02c0,.07-.06.12-.13.12h-2.25c.03.6.5,1.05,1.06,1.05.36,0,.7-.19.88-.5.04-.07.12-.08.18-.04.06.04.08.12.04.19-.24.38-.64.62-1.11.62-.74,0-1.33-.62-1.33-1.37ZM172.76,275.67h2.08c-.09-.51-.53-.89-1.03-.89s-.95.37-1.05.89Z"/>
              <path class="cls-6" d="M178.71,274.65c0,.07-.07.13-.13.13h-.35v2c0,.13.13.2.2.2s.14.07.14.14-.07.13-.14.13c-.27,0-.48-.2-.48-.48v-2h-.34c-.13,0-.13-.07-.13-.13s0-.13.13-.13h.34v-1.02c0-.07.07-.13.13-.13.07,0,.15.07.15.13v1.02h.35c.07,0,.13.07.13.13Z"/>
              <path class="cls-6" d="M181.08,274.51c.72,0,1.3.63,1.3,1.37s-.58,1.37-1.3,1.37-1.3-.63-1.3-1.37.58-1.37,1.3-1.37ZM181.08,276.99c.56,0,1.03-.49,1.03-1.1s-.47-1.11-1.03-1.11-1.03.5-1.03,1.11.47,1.1,1.03,1.1Z"/>
              <path class="cls-6" d="M187.38,274.65v2.47c0,.07-.06.13-.13.13s-.13-.06-.13-.13v-.41c-.24.32-.61.54-1.03.54-.72,0-1.3-.62-1.3-1.37s.58-1.37,1.3-1.37c.42,0,.8.21,1.03.54v-.4c0-.08.06-.13.13-.13s.13.06.13.13ZM187.11,275.89c0-.62-.46-1.11-1.03-1.11s-1.03.49-1.03,1.11.47,1.1,1.03,1.1,1.03-.49,1.03-1.1Z"/>
              <path class="cls-6" d="M188.66,273.47c0-.07.06-.13.13-.13.08,0,.14.06.14.13v3.65c0,.07-.06.13-.14.13-.07,0-.13-.06-.13-.13v-3.65Z"/>
              <path class="cls-6" d="M190.05,273.47c0-.07.06-.13.13-.13.08,0,.14.06.14.13v3.65c0,.07-.06.13-.14.13-.07,0-.13-.06-.13-.13v-3.65Z"/>
              <path class="cls-6" d="M192.9,276.69c.04-.06.13-.07.19-.02.19.14.49.32.84.32.21,0,.4-.07.52-.17.13-.09.21-.21.21-.34,0-.13-.06-.22-.2-.34-.12-.09-.31-.16-.58-.2h-.01c-.25-.05-.46-.11-.62-.22-.17-.1-.3-.28-.3-.49s.12-.41.3-.54c.16-.11.39-.18.67-.18.35,0,.6.16.82.3.06.04.08.13.04.19-.04.06-.12.08-.18.04-.2-.13-.4-.27-.67-.27-.22,0-.4.06-.52.16-.11.09-.17.2-.17.31s.05.19.16.27c.12.08.31.15.56.19h.01c.26.04.48.12.67.22.18.12.31.33.31.56s-.13.41-.31.55c-.19.14-.41.22-.68.22-.44,0-.79-.21-1.01-.39-.06-.05-.06-.12-.02-.18Z"/>
              <path class="cls-6" d="M196.88,274.65c0,.07-.07.13-.13.13h-.35v2c0,.13.13.2.2.2s.14.07.14.14-.07.13-.14.13c-.27,0-.48-.2-.48-.48v-2h-.34c-.13,0-.13-.07-.13-.13s0-.13.13-.13h.34v-1.02c0-.07.07-.13.13-.13.07,0,.15.07.15.13v1.02h.35c.07,0,.13.07.13.13Z"/>
              <path class="cls-6" d="M200.29,274.65v2.47c0,.07-.06.13-.13.13s-.13-.06-.13-.13v-.41c-.24.32-.61.54-1.03.54-.72,0-1.3-.62-1.3-1.37s.58-1.37,1.3-1.37c.42,0,.79.21,1.03.54v-.4c0-.08.06-.13.13-.13s.13.06.13.13ZM200.03,275.89c0-.62-.46-1.11-1.03-1.11s-1.03.49-1.03,1.11.47,1.1,1.03,1.1,1.03-.49,1.03-1.1Z"/>
              <path class="cls-6" d="M202.41,274.65c0,.07-.07.13-.13.13h-.35v2c0,.13.13.2.2.2s.14.07.14.14-.07.13-.14.13c-.27,0-.48-.2-.48-.48v-2h-.34c-.13,0-.13-.07-.13-.13s0-.13.13-.13h.34v-1.02c0-.07.07-.13.13-.13.07,0,.15.07.15.13v1.02h.35c.07,0,.13.07.13.13Z"/>
              <path class="cls-6" d="M203.27,275.89c0-.76.59-1.38,1.33-1.38s1.27.56,1.32,1.28h0v.02c0,.07-.06.12-.13.12h-2.25c.03.6.5,1.05,1.06,1.05.36,0,.7-.19.88-.5.04-.07.12-.08.18-.04.06.04.08.12.04.19-.24.38-.64.62-1.11.62-.74,0-1.33-.62-1.33-1.37ZM203.56,275.67h2.08c-.09-.51-.53-.89-1.03-.89s-.95.37-1.05.89Z"/>
              <path class="cls-6" d="M210.8,275.63c-.01-.46-.38-.85-.85-.85s-.85.39-.85.85v1.51s0,.01,0,.01h0s-.04.07-.07.08c-.02.01-.04.02-.07.02h-.03s-.01,0-.01,0c-.01,0-.02-.01-.03-.02,0,0-.01,0-.02-.01l-.02-.02s0-.01-.01-.01t0-.01s0,0,0-.01c0,0,0-.01,0-.02v-.02h0v-1.51c0-.46-.37-.85-.85-.85s-.85.39-.85.85v1.5s-.02.08-.06.11c0,0-.02.02-.03.02,0,0-.01,0-.02,0h-.03c-.05,0-.1-.05-.11-.1v-2.51c0-.07.06-.13.13-.13.08,0,.13.06.13.13v.26c.2-.24.5-.39.85-.39.43,0,.79.24.98.58.2-.35.57-.58.99-.58.62,0,1.11.5,1.11,1.11v1.5c0,.07-.06.13-.13.13-.07,0-.13-.06-.13-.13v-1.5Z"/>
              <path class="cls-6" d="M212,275.89c0-.76.59-1.38,1.33-1.38s1.27.56,1.32,1.28h0v.02c0,.07-.06.12-.13.12h-2.25c.03.6.5,1.05,1.06,1.05.36,0,.7-.19.88-.5.04-.07.12-.08.18-.04.06.04.08.12.04.19-.24.38-.64.62-1.11.62-.74,0-1.33-.62-1.33-1.37ZM212.29,275.67h2.08c-.09-.51-.53-.89-1.03-.89s-.95.37-1.05.89Z"/>
              <path class="cls-6" d="M217.56,275.63c0-.46-.37-.85-.85-.85s-.84.38-.85.85v1.51s-.01.05-.03.06c-.02.03-.06.05-.1.05h-.03s-.07-.04-.09-.07c0,0,0-.01,0-.02,0,0,0-.01,0-.01v-2.5c0-.07.06-.13.13-.13.07,0,.13.06.13.13v.26c.2-.24.51-.4.85-.4.62,0,1.12.5,1.12,1.11v1.49c0,.08-.06.13-.13.13s-.13-.06-.13-.13v-1.49Z"/>
              <path class="cls-6" d="M219.99,274.65c0,.07-.07.13-.13.13h-.35v2c0,.13.13.2.2.2s.14.07.14.14-.07.13-.14.13c-.27,0-.48-.2-.48-.48v-2h-.34c-.13,0-.13-.07-.13-.13s0-.13.13-.13h.34v-1.02c0-.07.07-.13.13-.13.07,0,.15.07.15.13v1.02h.35c.07,0,.13.07.13.13Z"/>
              <path class="cls-6" d="M221.08,276.69c.04-.06.13-.07.19-.02.19.14.49.32.84.32.21,0,.4-.07.52-.17.13-.09.21-.21.21-.34,0-.13-.06-.22-.2-.34-.12-.09-.31-.16-.58-.2h-.01c-.25-.05-.46-.11-.62-.22-.17-.1-.3-.28-.3-.49s.12-.41.3-.54c.16-.11.39-.18.67-.18.35,0,.6.16.82.3.06.04.08.13.04.19-.04.06-.12.08-.18.04-.2-.13-.4-.27-.67-.27-.22,0-.4.06-.52.16-.11.09-.17.2-.17.31s.05.19.16.27c.12.08.31.15.56.19h.01c.26.04.48.12.67.22.18.12.31.33.31.56s-.13.41-.31.55c-.19.14-.41.22-.68.22-.44,0-.79-.21-1.01-.39-.06-.05-.06-.12-.02-.18Z"/>
              <path class="cls-6" d="M225.71,273.75c0-.07.06-.13.13-.13.08,0,.14.06.14.13v.13c0,.08-.06.15-.14.15-.07,0-.13-.07-.13-.15v-.13ZM225.71,274.65c0-.08.06-.13.13-.13.08,0,.14.06.14.13v2.47c0,.07-.06.13-.14.13-.07,0-.13-.06-.13-.13v-2.47Z"/>
              <path class="cls-6" d="M229.23,275.63c0-.46-.37-.85-.85-.85s-.84.38-.85.85v1.51s-.01.05-.03.06c-.02.03-.06.05-.1.05h-.03s-.07-.04-.09-.07c0,0,0-.01,0-.02,0,0,0-.01,0-.01v-2.5c0-.07.06-.13.13-.13.07,0,.13.06.13.13v.26c.2-.24.51-.4.85-.4.62,0,1.12.5,1.12,1.11v1.49c0,.08-.06.13-.13.13s-.13-.06-.13-.13v-1.49Z"/>
              <path class="cls-6" d="M233.34,274.65c0,.07-.07.13-.13.13h-.35v2c0,.13.13.2.2.2s.14.07.14.14-.07.13-.14.13c-.27,0-.48-.2-.48-.48v-2h-.34c-.13,0-.13-.07-.13-.13s0-.13.13-.13h.34v-1.02c0-.07.07-.13.13-.13.07,0,.15.07.15.13v1.02h.35c.07,0,.13.07.13.13Z"/>
              <path class="cls-6" d="M234.2,275.89c0-.76.59-1.38,1.33-1.38s1.27.56,1.32,1.28h0v.02c0,.07-.06.12-.13.12h-2.25c.03.6.5,1.05,1.06,1.05.36,0,.7-.19.88-.5.04-.07.12-.08.18-.04.06.04.08.12.04.19-.24.38-.64.62-1.11.62-.74,0-1.33-.62-1.33-1.37ZM234.48,275.67h2.08c-.09-.51-.53-.89-1.03-.89s-.95.37-1.05.89Z"/>
              <path class="cls-6" d="M237.68,274.65c0-.08.06-.13.14-.13.07,0,.13.06.13.13v.6s.02-.04.04-.07c.21-.33.57-.67,1.1-.67.07,0,.13.06.13.13,0,.07-.06.13-.13.13-.36,0-.61.2-.8.45-.18.25-.29.53-.33.64-.01.02-.01.03-.01.04v1.2c0,.08-.06.13-.13.13-.08,0-.14-.06-.14-.13v-2.47Z"/>
              <path class="cls-6" d="M244.06,275.63c-.01-.46-.38-.85-.85-.85s-.84.39-.84.85v1.51s0,.01,0,.01h0s-.04.07-.07.08c-.02.01-.04.02-.07.02h-.03s-.01,0-.01,0c-.01,0-.02-.01-.03-.02,0,0-.01,0-.02-.01l-.02-.02s0-.01-.01-.01t0-.01s0,0,0-.01c0,0,0-.01,0-.02v-.02h0v-1.51c0-.46-.38-.85-.85-.85s-.85.39-.85.85v1.5s-.02.08-.06.11c0,0-.02.02-.03.02,0,0-.01,0-.02,0h-.03c-.05,0-.09-.05-.11-.1v-2.51c0-.07.06-.13.13-.13.08,0,.13.06.13.13v.26c.2-.24.5-.39.85-.39.43,0,.79.24.98.58.2-.35.57-.58.99-.58.62,0,1.12.5,1.12,1.11v1.5c0,.07-.06.13-.13.13-.07,0-.13-.06-.13-.13v-1.5Z"/>
              <path class="cls-6" d="M245.27,276.69c.04-.06.13-.07.19-.02.19.14.49.32.84.32.21,0,.4-.07.52-.17.13-.09.21-.21.21-.34,0-.13-.06-.22-.2-.34-.12-.09-.31-.16-.58-.2h-.01c-.25-.05-.46-.11-.62-.22-.17-.1-.3-.28-.3-.49s.12-.41.3-.54c.16-.11.39-.18.67-.18.35,0,.6.16.82.3.06.04.08.13.04.19s-.12.08-.18.04c-.2-.13-.4-.27-.67-.27-.22,0-.4.06-.52.16-.11.09-.17.2-.17.31s.05.19.16.27c.12.08.31.15.56.19h.01c.26.04.48.12.67.22.18.12.31.33.31.56s-.13.41-.31.55c-.19.14-.41.22-.68.22-.44,0-.79-.21-1.01-.39-.06-.05-.06-.12-.02-.18Z"/>
              <path class="cls-6" d="M251.06,274.51c.72,0,1.3.63,1.3,1.37s-.58,1.37-1.3,1.37-1.3-.63-1.3-1.37.58-1.37,1.3-1.37ZM251.06,276.99c.56,0,1.03-.49,1.03-1.1s-.47-1.11-1.03-1.11-1.03.5-1.03,1.11.47,1.1,1.03,1.1Z"/>
              <path class="cls-6" d="M254.4,273.48c0,.07-.06.13-.13.13-.19,0-.29.04-.35.11-.06.07-.11.2-.11.45v.29h.39c.08,0,.14.06.14.13,0,.08-.06.14-.14.14h-.39v2.39c0,.07-.06.13-.13.13-.08,0-.14-.06-.14-.13v-2.39h-.36c-.07,0-.13-.06-.13-.14,0-.07.06-.13.13-.13h.36v-.29c0-.28.05-.49.18-.64.13-.15.34-.2.55-.2.07,0,.13.06.13.14Z"/>
              <path class="cls-6" d="M256.7,276.69c.04-.06.13-.07.19-.02.19.14.49.32.84.32.21,0,.4-.07.52-.17.13-.09.21-.21.21-.34,0-.13-.06-.22-.2-.34-.12-.09-.31-.16-.58-.2h-.01c-.25-.05-.46-.11-.62-.22-.17-.1-.3-.28-.3-.49s.12-.41.3-.54c.16-.11.39-.18.67-.18.35,0,.6.16.82.3.06.04.08.13.04.19-.04.06-.12.08-.18.04-.2-.13-.4-.27-.67-.27-.22,0-.4.06-.52.16-.11.09-.17.2-.17.31s.05.19.16.27c.12.08.31.15.56.19h.01c.26.04.48.12.67.22.18.12.31.33.31.56s-.13.41-.31.55c-.19.14-.41.22-.68.22-.44,0-.79-.21-1.01-.39-.06-.05-.06-.12-.02-.18Z"/>
              <path class="cls-6" d="M259.45,275.89c0-.76.59-1.38,1.33-1.38s1.27.56,1.32,1.28h0v.02c0,.07-.06.12-.13.12h-2.25c.03.6.5,1.05,1.06,1.05.36,0,.7-.19.88-.5.04-.07.12-.08.18-.04.06.04.08.12.04.19-.24.38-.64.62-1.11.62-.74,0-1.33-.62-1.33-1.37ZM259.74,275.67h2.08c-.09-.51-.53-.89-1.03-.89s-.95.37-1.05.89Z"/>
              <path class="cls-6" d="M262.94,274.65c0-.08.06-.13.14-.13.07,0,.13.06.13.13v.6s.02-.04.04-.07c.21-.33.57-.67,1.1-.67.07,0,.13.06.13.13,0,.07-.06.13-.13.13-.36,0-.61.2-.8.45-.18.25-.29.53-.33.64-.01.02-.01.03-.01.04v1.2c0,.08-.06.13-.13.13-.08,0-.14-.06-.14-.13v-2.47Z"/>
              <path class="cls-6" d="M266.27,277.23s-.03-.03-.04-.06l-1.03-2.45c-.03-.07,0-.15.07-.17.07-.03.15,0,.17.07l.91,2.16.91-2.16c.02-.07.11-.1.17-.07.07.03.1.11.07.17l-1.02,2.43s-.02.04-.03.07c-.02.03-.06.04-.09.04-.02,0-.03,0-.04,0t-.01,0s-.02,0-.03-.01Z"/>
              <path class="cls-6" d="M268.65,273.75c0-.07.06-.13.13-.13.08,0,.14.06.14.13v.13c0,.08-.06.15-.14.15-.07,0-.13-.07-.13-.15v-.13ZM268.65,274.65c0-.08.06-.13.13-.13.08,0,.14.06.14.13v2.47c0,.07-.06.13-.14.13-.07,0-.13-.06-.13-.13v-2.47Z"/>
              <path class="cls-6" d="M270.02,275.88c0-.76.63-1.37,1.41-1.37.32,0,.63.11.87.3.06.04.07.12.02.18-.04.05-.12.07-.18.02-.2-.16-.44-.25-.71-.25-.64,0-1.14.5-1.14,1.1s.5,1.11,1.14,1.11c.26,0,.51-.09.71-.24.06-.04.14-.03.18.02.05.06.04.15-.03.2-.23.18-.54.29-.86.29-.78,0-1.41-.6-1.41-1.38Z"/>
              <path class="cls-6" d="M273.13,275.89c0-.76.59-1.38,1.33-1.38s1.27.56,1.32,1.28h0v.02c0,.07-.06.12-.13.12h-2.25c.03.6.5,1.05,1.06,1.05.36,0,.7-.19.88-.5.04-.07.12-.08.18-.04.06.04.08.12.04.19-.24.38-.64.62-1.11.62-.74,0-1.33-.62-1.33-1.37ZM273.42,275.67h2.08c-.09-.51-.53-.89-1.03-.89s-.95.37-1.05.89Z"/>
            </g>
            <rect class="cls-13" x="143.21" y="271.63" width="6.92" height="6.92"/>
          </g>
          <g>
            <path class="cls-7" d="M263.7,179.9c0,.81-.65,1.46-1.46,1.46-.81,0-1.46-.65-1.46-1.46s.65-1.46,1.46-1.46c.81,0,1.46.65,1.46,1.46Z"/>
            <path class="cls-7" d="M264.77,183.91h-5.05c.01-1.39,1.14-2.5,2.52-2.5s2.51,1.11,2.52,2.5Z"/>
          </g>
          <g>
            <path class="cls-7" d="M259.73,214.22c-.29-.23-.57-.46-.86-.69h6.75c-.29.22-.57.46-.86.69-.29.23-.57.47-.86.7-.32.26-.63.53-.95.8h0c-.24.2-.47.4-.71.61-.24-.2-.47-.4-.71-.6t0,0c-.32-.27-.63-.53-.95-.8-.28-.24-.57-.47-.86-.7Z"/>
            <path class="cls-7" d="M265.62,213.53v4.28h-6.75v-4.28c.27.26.55.51.82.77.28.25.55.5.83.75.29.26.58.52.88.77,0,0,.02.02.03.02,0,0,.02.01.03.02-.02.01-.04.02-.05.03-.19.11-.37.22-.55.34-.23.15-.45.3-.67.45-.22.16-.44.31-.66.48-.21.16-.43.33-.63.51.24-.13.47-.27.7-.42.23-.15.45-.3.67-.45.22-.16.44-.31.66-.48.18-.13.35-.27.52-.41.01-.01.03-.02.04-.03.24.21.49.43.73.64l.04.03.04-.03c.25-.21.49-.43.74-.64.01.01.03.02.04.03.17.14.34.28.52.41.21.16.44.32.66.48.22.15.45.31.67.45.23.15.46.29.7.42-.2-.18-.42-.35-.63-.51-.21-.16-.44-.32-.66-.48-.22-.15-.45-.31-.67-.45-.18-.12-.37-.23-.55-.34-.02-.01-.03-.02-.05-.03,0,0,.02-.01.03-.02,0,0,.02-.02.03-.02.29-.25.58-.51.87-.77.28-.25.56-.5.83-.75.28-.26.55-.51.83-.77Z"/>
          </g>
          <g>
            <path class="cls-7" d="M262.24,248.49c-1.97,0-3.37,1.67-3.37,1.67,0,0,1.4,1.66,3.37,1.66s3.38-1.66,3.38-1.66c0,0-1.4-1.67-3.38-1.67ZM262.24,251.34c-.65,0-1.18-.53-1.18-1.19s.53-1.18,1.18-1.18,1.19.53,1.19,1.18-.53,1.19-1.19,1.19Z"/>
            <path class="cls-7" d="M263,250.16c0,.42-.34.75-.75.75s-.75-.34-.75-.75.34-.75.75-.75.75.34.75.75Z"/>
          </g>
        </g>
        <g>
          <rect class="cls-11" x="180.77" y="296.06" width="57.89" height="17.46"/>
          <g>
            <path class="cls-5" d="M191.41,306.19c.16-.2.46-.22.65-.06.39.32,1.08.7,1.71.69.45,0,.85-.13,1.12-.33.27-.2.39-.42.39-.65,0-.12-.03-.2-.08-.29-.05-.09-.13-.18-.27-.27-.26-.17-.7-.32-1.23-.42h-.02c-.42-.08-.81-.19-1.16-.35-.34-.16-.64-.38-.83-.7-.13-.22-.21-.47-.21-.74,0-.54.3-1,.72-1.31.42-.3.97-.47,1.55-.47.86,0,1.5.42,1.95.72.21.14.27.43.13.64-.13.21-.42.28-.64.13-.46-.3-.9-.57-1.44-.57-.4,0-.76.12-1,.3-.24.18-.34.38-.34.56,0,.11.02.18.06.25.04.07.13.15.24.23.23.16.64.3,1.12.39h.02c.46.09.88.21,1.24.38.37.18.69.41.9.74.13.21.21.48.21.76,0,.57-.32,1.07-.77,1.39-.44.32-1.02.51-1.66.51-.97,0-1.78-.49-2.29-.9-.2-.16-.22-.46-.07-.65Z"/>
            <path class="cls-5" d="M197.64,301.97c0-.28.21-.49.49-.49s.5.21.5.49v5.29c0,.28-.23.49-.5.49s-.49-.21-.49-.49v-5.29Z"/>
            <path class="cls-5" d="M200.03,304.53c0-1.8,1.49-3.23,3.31-3.23.76,0,1.49.26,2.04.7.23.17.27.5.1.73-.17.21-.5.26-.73.08-.39-.3-.88-.48-1.41-.48-.64,0-1.21.24-1.61.65-.42.4-.67.95-.67,1.56s.25,1.14.67,1.54c.4.41.97.65,1.61.65.45,0,.87-.13,1.23-.34v-1.23h-1.28c-.28,0-.51-.23-.51-.51s.23-.5.51-.5h1.78c.29,0,.52.21.52.5v1.98c0,.06-.02.1-.03.15,0,.02,0,.03-.02.04h0c-.03.09-.08.16-.17.22-.56.44-1.27.7-2.03.7-1.82,0-3.31-1.42-3.31-3.22Z"/>
            <path class="cls-5" d="M208.58,307.26c0,.27-.22.49-.48.49-.28,0-.49-.22-.49-.49v-5.2h0c0-.16.06-.32.2-.42.22-.15.53-.11.68.11l2.89,4v-3.69c0-.26.22-.48.48-.48s.49.22.49.48v5.2c0,.27-.22.49-.49.49-.14,0-.28-.07-.37-.18-.02-.02-.04-.04-.04-.05l-2.87-3.98v3.72Z"/>
            <path class="cls-5" d="M219.78,307.75c-1.44,0-2.59-1.16-2.59-2.59v-3.19c0-.28.21-.49.49-.49s.5.21.5.49v3.19c0,.88.72,1.59,1.59,1.59s1.59-.72,1.59-1.59v-3.19c0-.28.22-.49.5-.49s.49.21.49.49v3.19c0,1.42-1.16,2.59-2.59,2.59Z"/>
            <path class="cls-5" d="M226.56,305.31h-1.1v1.94c0,.27-.22.49-.5.49s-.49-.22-.49-.49v-5.29c0-.28.22-.49.49-.49h1.6c1.07,0,1.93.86,1.93,1.93s-.86,1.91-1.93,1.91ZM225.46,304.32h1.1c.52,0,.92-.41.93-.91,0-.52-.41-.93-.93-.93h-1.1v1.84Z"/>
          </g>
        </g>
        <g>
          <circle class="cls-10" cx="235.49" cy="99.87" r="11.52"/>
          <circle class="cls-9" cx="182.21" cy="142.55" r="8.08"/>
          <g>
            <path class="cls-11" d="M226.13,147.15c-2.71,1.68-5.72,2.97-8.99,3.76-8.46,2.07-16.94.48-23.8-3.78-6.71-4.15-11.87-10.84-13.89-19.11-4.08-16.74,6.16-33.61,22.9-37.69,16.73-4.09,33.6,6.16,37.69,22.9,3.28,13.47-2.72,27.02-13.91,33.92Z"/>
            <g>
              <path class="cls-5" d="M219.23,117.06c0,5.24-4.25,9.49-9.49,9.49-5.24,0-9.49-4.25-9.49-9.49,0-5.24,4.25-9.49,9.49-9.49s9.49,4.25,9.49,9.49Z"/>
              <path class="cls-5" d="M226.13,143.23v3.91c-2.71,1.68-5.72,2.97-8.99,3.76-8.46,2.07-16.94.48-23.8-3.78v-3.9c0-9.03,7.34-16.4,16.4-16.4s16.4,7.36,16.4,16.4Z"/>
            </g>
          </g>
        </g>
      </g>
    </g>
  </g>
  <g id="Lines">
    <g>
      <path class="cls-6" d="M246.85,173.39c-.51-2.81-.52-5.64,0-8.45.52,2.81.51,5.64,0,8.45h0Z"/>
      <path class="cls-6" d="M240.84,176.06c-2.35-1.63-4.35-3.62-5.98-5.98,2.36,1.62,4.35,3.62,5.98,5.98h0Z"/>
      <path class="cls-6" d="M238.48,182.2c-2.81.51-5.64.52-8.45,0,2.81-.52,5.64-.51,8.45,0h0Z"/>
      <path class="cls-6" d="M241.16,188.21c-1.63,2.35-3.62,4.35-5.98,5.98,1.62-2.36,3.62-4.35,5.98-5.98h0Z"/>
      <path class="cls-6" d="M247.3,190.57c.51,2.81.52,5.64,0,8.45-.52-2.81-.51-5.64,0-8.45h0Z"/>
      <path class="cls-6" d="M253.31,187.89c2.35,1.63,4.35,3.62,5.98,5.98-2.36-1.62-4.35-3.62-5.98-5.98h0Z"/>
      <path class="cls-6" d="M255.66,181.75c2.81-.51,5.64-.52,8.45,0-2.81.52-5.64.51-8.45,0h0Z"/>
      <path class="cls-6" d="M252.99,175.75c1.63-2.35,3.62-4.35,5.98-5.98-1.62,2.36-3.62,4.35-5.98,5.98h0Z"/>
    </g>
  </g>
  <g id="Character">
    <g>
      <g>
        <path class="cls-11" d="M298.1,87.02s6.99,48.69,6.53,53.32c-.47,4.63-6.18,49.51-6.18,49.51,0,0-12.82-2.76-16.52-4.97-2.66-1.59-12.08-9.71-12.08-9.71,0,0,16.03-31.3,17.32-37.65s2.19-37.14,3.71-43.34c1.52-6.2,7.36-8.32,7.36-8.32"/>
        <g>
          <path class="cls-6" d="M283.03,154.54c.81,1.82,2.32,3.19,3.94,4.29.87.59,2.55,1.86,3.08.23.18-.54.04-1.22-.22-1.9-.38-1.17-1.21-2.33-1.82-3.09-.93-1.15-2.5-2.67-4.14-2.38-1.51.27-1.33,1.74-.85,2.85Z"/>
          <path class="cls-6" d="M293.29,162.38c.28,2.08.85,4.25,2.35,5.79.7.72,1.5.95,2.11.45.7-.4.96-1.59,1.05-2.44.21-2.03-.16-4.14-1.1-5.96-.59-1.14-1.63-2.74-3.16-2.39-1.97.46-1.45,3.15-1.26,4.55Z"/>
          <path class="cls-6" d="M285.46,161.6c-.87.69,0,3.3.8,4.54,1.03,1.59,2.73,3.38,4.16,2.7.72-.35.83-2.29-.76-4.75-1.47-2.28-3.48-3.05-4.2-2.49Z"/>
          <path class="cls-6" d="M281.08,176.01c.34.67,1.07,1.85,1.95,1.89.83.04,1.01-.84,1-1.48,0-.7-.17-1.9-.56-2.93-.4-1.28-1.16-2.39-2.39-2.46-2.44-.13-.44,4.12,0,4.98Z"/>
        </g>
      </g>
      <g>
        <g>
          <g>
            <path class="cls-1" d="M358.01,313.97s21.8,38.55,21.81,38.58c3.5,7.77,6.43,14.65,7.62,18.35,0,.02.02.04.02.06.45,1.4.64,2.33.51,2.66,0,.03,0,.05-.02.07-1.61,2.61-62.92,32.41-65.41,32.72-2.49.33-3.59-6.75-2.14-9.8,1.48-3.06,19.84-24.97,19.84-24.97l-21.4-38.7,39.18-18.97Z"/>
            <path class="cls-9" d="M323.52,406.19c2.48-.32,62.82-29.9,64.42-32.5.02-.03.02-.05.03-.07.14-.33-.07-1.27-.5-2.66,0-.03,0-.04-.02-.06-1.19-3.7-4.12-10.58-7.61-18.36,0-.01-3.67-6.74-5.14-9.08l-39,20.16,4.54,8.02s-17.39,21.68-18.85,24.74c-1.47,3.06-.36,10.13,2.14,9.81Z"/>
            <g>
              <path class="cls-11" d="M322.4,405.36c2.5-.38,63.59-31.85,65.15-34.53.61-1.01-3.46-10.18-8.69-21.11-.06-.11-.11-.23-.17-.34l-39.64,19.86.36.66s-17.99,22.5-19.4,25.63c-1.39,3.11-.12,10.22,2.38,9.83Z"/>
              <g>
                <path class="cls-5" d="M321.87,402.63c10.17-5.56,51.7-27.01,62.17-31.74.09-.04.11.02.03.06-9.96,5.73-51.66,26.85-62.12,31.84-.22.11-.3-.05-.09-.17Z"/>
                <path class="cls-6" d="M336.17,371.73c3.66-2.84,8.94-4.77,13.52-3.48.18.05.1.3-.05.33-4.65.8-8.8,1.91-13.19,3.66-.31.12-.54-.3-.28-.5Z"/>
                <path class="cls-6" d="M334.15,375c3.66-2.84,8.94-4.77,13.52-3.48.18.05.1.3-.05.33-4.65.8-8.8,1.91-13.19,3.66-.31.12-.54-.3-.28-.5Z"/>
                <path class="cls-6" d="M332.13,378.27c3.66-2.84,8.94-4.78,13.52-3.48.18.05.1.3-.05.33-4.65.8-8.8,1.91-13.19,3.66-.31.12-.54-.3-.28-.5Z"/>
              </g>
              <path class="cls-5" d="M372.13,361.42c3.29-4.5,10.28.61,6.99,5.11-3.29,4.5-10.28-.61-6.99-5.11Z"/>
              <path class="cls-12" d="M336.73,373.28l-4.39,27.43c-5.53,2.75-9.35,4.56-9.94,4.65-2.5.39-3.78-6.72-2.39-9.83,1.07-2.36,11.65-15.85,16.72-22.25Z"/>
              <path class="cls-6" d="M320.34,403.65c-.88.98,1.25,4.53,2.19,4.42.94-.11,67.4-34.72,68.4-35.56,1-.84-1.51-4.68-2.93-4.22-1.42.47-67.66,35.35-67.66,35.35Z"/>
            </g>
          </g>
          <g>
            <path class="cls-2" d="M374.78,339.87l-43.94,23.46s-55.46-79.04-56.57-99.8c-1.53-28.68,22.96-119.72,22.96-119.72l39.06-.27s-15.88,93.63-14.59,109.61c.68,8.36,53.08,86.72,53.08,86.72Z"/>
            <g>
              <path class="cls-6" d="M327.01,354.24c2.26-1.63,23.09-13.7,38.95-21.41.11-.05.18.1.08.16-4.81,3.18-35.9,20.21-38.91,21.41-.1.04-.22-.1-.12-.17Z"/>
              <path class="cls-6" d="M316.28,233.13c1.81-13.7,3.81-27.38,6.09-41.01,2.29-13.69,4.7-27.38,7.56-40.97.35-1.66.72-3.31,1.08-4.97.06-.26.45-.18.4.08-2.41,13.48-4.88,26.95-7.1,40.46-2.21,13.51-4.28,27.05-6.13,40.62-.46,3.36-.91,6.72-1.34,10.08-.45,3.47-.96,6.96-1,10.46-.04,3.37.49,6.65,1.67,9.8,1.16,3.1,2.82,5.98,4.5,8.82,7.07,11.95,38.71,64.2,39.53,65.72.05.1-.08.2-.15.1-7.59-11.78-31.15-49.42-38.32-61.57-3.23-5.48-6.94-11.03-7.99-17.42-1.1-6.65.32-13.6,1.19-20.19Z"/>
            </g>
          </g>
        </g>
        <g>
          <g>
            <path class="cls-1" d="M327.53,339.87s.44,44.56.44,44.59c-.24,8.52-.59,15.99-1.14,19.84,0,.02,0,.04,0,.06-.2,1.45-.43,2.37-.7,2.62-.02.02-.03.04-.05.05-2.58,1.65-70.75,1.75-73.13.95-2.39-.79-.29-7.64,2.35-9.75,2.66-2.11,28.73-13.83,28.73-13.83l-.02-44.53h43.53Z"/>
            <path class="cls-9" d="M327.88,375.31s.09,9.12.09,9.15c-.24,8.52-.59,15.99-1.14,19.84,0,.02,0,.04,0,.06-.29,1.43-.54,2.38-.7,2.62-.02.02-.03.04-.05.05-2.58,1.65-70.75,1.75-73.13.95-2.39-.79-.29-7.64,2.35-9.75,2.66-2.11,28.73-13.83,28.73-13.83v-9.29s43.86.2,43.86.2Z"/>
            <g>
              <path class="cls-11" d="M252.91,407.9c2.41.77,71.12-.44,73.71-2.15.99-.63,1.4-10.65,1.55-22.78,0-.13,0-.25,0-.38l-44.34.28.03.75s-26.09,12.23-28.74,14.4c-2.62,2.17-4.62,9.11-2.21,9.87Z"/>
              <g>
                <path class="cls-5" d="M253.64,405.22c11.58-.49,58.32-1.36,69.8-.97.09,0,.09.07,0,.07-11.46.73-58.21,1.23-69.8,1.08-.24,0-.25-.18,0-.19Z"/>
                <path class="cls-6" d="M280.13,383.82c4.54-.93,10.13-.33,13.67,2.86.14.12-.04.32-.19.27-4.52-1.34-8.74-2.17-13.45-2.55-.33-.03-.35-.51-.03-.58Z"/>
                <path class="cls-6" d="M276.88,385.86c4.54-.93,10.13-.33,13.67,2.86.14.12-.04.32-.19.27-4.52-1.34-8.74-2.17-13.45-2.55-.33-.03-.35-.51-.03-.58Z"/>
                <path class="cls-6" d="M273.62,387.9c4.54-.93,10.13-.33,13.67,2.86.14.12-.04.32-.19.27-4.52-1.34-8.74-2.17-13.45-2.55-.33-.03-.35-.51-.03-.58Z"/>
              </g>
              <path class="cls-6" d="M251.81,405.45c-1.22.5-.88,4.62.01,4.94.89.32,75.8-1.33,77.07-1.64,1.27-.31.72-4.87-.76-5.08s-76.32,1.78-76.32,1.78Z"/>
              <path class="cls-5" d="M316.95,390.48c4.94-2.58,8.95,5.09,4.01,7.67-4.94,2.58-8.95-5.09-4.01-7.67Z"/>
            </g>
          </g>
          <g>
            <path class="cls-2" d="M297.72,143.71s0,.01.01.04c.26.81,14.3,39.27,15.62,39.88,1.5.69-31.01,55.29-32.93,80.66-1.23,16.22,1.18,108.04,1.18,108.04h47.52s-2.28-82.54-3.37-108.7c-.42-10.14,32.63-60.64,33.03-92.08.13-9.91-6.99-28.02-6.99-28.02l-54.08.18Z"/>
            <g>
              <path class="cls-6" d="M325.49,262.93c0-.42.33-.55.36-.12,1.07,14.15,1.32,28.23,2,42.41.67,14.14.29,17.54.92,31.68.36,8,.02,16.02.2,24.03,0,.12-.18.14-.2.02-1.48-14.11-3.28-90-3.29-98.01Z"/>
              <path class="cls-6" d="M280.43,264.85c.11-3.49.33-6.98.96-10.42.61-3.36,1.68-6.61,2.93-9.78,2.63-6.62,5.73-13.08,8.7-19.55,3-6.56,6.07-13.09,9.24-19.57,1.78-3.64,3.57-7.28,5.38-10.91,1.83-3.67,3.79-7.28,5.71-10.91.08-.14.3-.04.23.11-3.05,6.54-6.05,13.1-9.1,19.64-3.05,6.54-6.04,13.11-9.03,19.67-2.94,6.46-5.89,12.92-8.67,19.45-1.33,3.13-2.57,6.31-3.39,9.61-.84,3.39-1.19,6.87-1.39,10.35-.46,8.12-.69,16.26-1.48,24.35,0,.1-.18.09-.18-.01-.24-7.33-.13-14.71.09-22.04Z"/>
              <path class="cls-6" d="M285.05,362.94c2.76-.36,23.82-1.09,41.43-.33.12,0,.11.17,0,.18-5.74.51-38.18.73-41.41.36-.11-.01-.15-.19-.02-.2Z"/>
              <g>
                <path class="cls-6" d="M306.79,181.5c5.08,1.19,10.07,3.1,14.86,5.15.19.08.1.37-.1.31-4.99-1.56-10.06-3.03-14.96-4.86-.38-.14-.19-.69.2-.6Z"/>
                <path class="cls-6" d="M302,148.92c0-.17.28-.23.3-.05.54,5.68,1.42,10.63,2.44,15.88.47,2.44,3.85,15.84,8.01,14.41.7-.24.99-.98.99-2.07,0-1.31-.65-2.85-.99-4.11-.77-2.8-1.44-5.62-1.98-8.47-1.01-5.32-1.58-10.69-1.48-16.11,0-.18.26-.19.28-.01.76,7.43,1.71,14.83,3.58,22.08.9,3.48,3.22,8.63-.42,9.55-3.71.94-7.06-7.73-7.77-10.12-1.98-6.68-2.79-14.02-2.95-20.97Z"/>
                <path class="cls-6" d="M312.67,179.53c.48.87.89,1.79,1.25,2.72.28.72.64,1.49.64,2.28,0,.15-.2.19-.29.09-.57-.58-.87-1.43-1.22-2.15-.41-.84-.85-1.67-1.24-2.52-.26-.56.57-.96.86-.42Z"/>
              </g>
              <path class="cls-6" d="M320.62,276.89c-.24-6.75-.99-13.84,1.22-20.36,1.1-3.23,2.77-6.23,4.33-9.25,1.65-3.18,3.26-6.37,4.85-9.58,6.35-12.82,12.33-25.85,17.68-39.13,2.57-6.39,4.87-12.96,5.79-19.82.96-7.18.28-14.52-1.33-21.56-.4-1.76-.83-3.51-1.31-5.25-.04-.13.15-.2.2-.07,2.14,6.67,3.61,13.59,3.71,20.62.09,6.77-1.39,13.33-3.58,19.7-2.28,6.63-5.13,13.08-7.94,19.5-2.9,6.62-5.9,13.19-9.03,19.7-3.11,6.48-6.43,12.85-9.71,19.25-1.59,3.09-3.04,6.26-3.65,9.71-.62,3.51-.52,7.09-.39,10.63.56,14.95,1.85,64.69,2.04,79.6.02,1.89.05,3.79.07,5.68,0,.17-.25.19-.26.02-.95-14.87-2.16-64.5-2.7-79.4Z"/>
              <path class="cls-6" d="M331.28,153.39c0-.11.17-.08.18.01.56,4.11.88,8.38,2.87,12.11,1.82,3.42,5,5.63,8.47,7.18,2,.89,4.09,1.6,6.17,2.28.15.05.12.28-.05.25-3.93-.82-7.93-1.73-11.34-3.94-3.66-2.36-5.54-6.15-6.14-10.38-.35-2.49-.32-5-.15-7.5Z"/>
            </g>
          </g>
        </g>
      </g>
      <g>
        <g>
          <path class="cls-9" d="M354.21,146.72c-.09.19-62.6,17.22-63.3,16.77-.06-.04-2.65-1.43-3.21-6.27-.15-1.33,1.63-7.04,1.67-11.26.15-14.81-.43-42.31,3.59-57.08,1.08-3.97,9.63-8.52,14.32-5.63,21.13,12.99,47.05,63.23,46.93,63.48Z"/>
          <g>
            <path class="cls-11" d="M304.14,82.08s2.33,31.53,3.16,35.19c.58,2.56,7.66,28.3,11.31,46.9,1.56,7.96.83,20.5.83,20.5,0,0,21.76-7.07,28.43-11.61,3.87-2.63,12.47-13.96,12.47-13.96,0,0-13.77-30.62-21.59-42.09-7.81-11.47-22.77-31.35-29.76-34.25-3.19-1.32-4.85-.69-4.85-.69Z"/>
            <path class="cls-6" d="M343.11,135.14c-1.04.44-1.6,1.51-1.85,2.76-.59,1.63-.67,3.62-.47,4.95.13.91.52,2.24,1.7,2.01,1.25-.24,1.82-2.23,2.12-3.25.31-1.06,1.23-7.62-1.5-6.47ZM333.84,142.8c-1.28,1.06-1.14,3.24-.87,4.69.18.96.52,2.34,1.17,3.39.35.64.77,1.18,1.3,1.4,1.59.65,1.71-1.44,1.83-2.49.22-1.94.15-3.98-.71-5.78-.53-1.09-1.53-2.19-2.72-1.21ZM338.33,130.62c-.97-.12-1.53.63-1.81,1.62-.43,1.21-.48,2.8-.39,3.56.08.72.24,1.97,1.05,2.3.82.33,1.46-.53,1.75-1.18.53-1.2,1.57-6.02-.6-6.3ZM323.17,181.57c-.77,1.57-2.34.27-3.6-1.26h0c.04-1.82.05-4.03-.03-6.37.12.1.24.19.34.28,1.02.88,2.26,2.43,2.89,4.05.63,1.11.9,2.29.4,3.3ZM330.36,180.87l-2.29.83c-1.37-.91-2.64-3.33-2.91-4.21-.2-.68-.29-1.75.55-2.04.83-.29,1.76.56,2.3,1.05.57.52,1.57,1.75,2.04,2.95.23.49.36.99.31,1.42ZM324.47,126.87c.95-.06,1.84,1.3,2.25,1.99.68,1.15,1.08,2.49,1.25,3.8.1.77.38,2.4-.34,2.98-.87.7-1.71-.1-2.33-1.21-1.27-1.49-1.86-3.69-1.85-5.56,0-.68.09-1.95,1.02-2.02ZM331.59,154.91c-1.26.94-.72,2.76-.23,3.95.78,1.89,2.15,3.55,3.83,4.71.71.48,1.78,1.06,2.54.79.78-.14,1.12-.9,1.02-1.9-.2-2.15-1.49-3.99-2.88-5.55-.95-1.06-2.65-3.2-4.28-2ZM339.51,155.25c.84,2.8,2.39,3.98,3.12,3.66,1.44-.64,1.19-3.11.65-4.92-.42-1.41-1.84-3.78-2.93-3.56-.9.18-1.61,2.22-.83,4.81ZM310.59,106.25c-.31,1.19-1.08,2.4-1.65,3.18-.56.78-1.38,1.73-2.34,2.25-.17-1.65-.35-3.56-.52-5.58h0c.49-.49,1.02-.94,1.56-1.35.84-.65,2.44-2,3.07-.4.2.53.11,1.21-.12,1.9ZM315.26,105.31c1.55.27,2.49-1.39,3.02-2.56.83-1.87,1.09-4,.77-6.02-.14-.85-.46-2.02-1.18-2.38-.64-.47-1.43-.19-2.08.57-1.42,1.62-1.86,3.83-2.03,5.92-.11,1.42-.49,4.13,1.51,4.48ZM310.04,99.34c-1.34,2.35-3.31,3.24-4.06,2.72-.13-.09-.23-.23-.29-.4,0,0-.01,0,0-.01-.04-.39-.07-.79-.11-1.19v-.03c.11-1.01.53-2.21.95-2.95.94-1.64,2.55-3.52,4.01-2.92.74.3.95,2.24-.5,4.78ZM352.22,154.44c-.75.98-.39,2.28.32,3.41.53.97,1.34,1.86,1.87,2.33.48.42,1.27.85,1.78.2.54-.69.11-2.02-.17-2.71-.37-.89-2.31-5.17-3.79-3.23ZM332.63,120.86c-.84.55-.92,1.65-.67,2.72.15.89.53,1.8.82,2.3.26.46.75,1,1.32.63.6-.39.63-1.53.6-2.14-.05-.79-.39-4.62-2.06-3.52Z"/>
          </g>
        </g>
        <g>
          <g>
            <path class="cls-1" d="M297.46,98.26c3.53-.84,6.5-10.12,6.68-15.1,0-.34-1.31-1.98-3.39-5.26-1.25-2-2.6-4.25-3.68-6.4l-11.81,10.05s3.59,3.83,5.45,7.59c.15.32.27.62.35.93.02.04.03.1.05.16.57,1.81,2.94,8.86,6.35,8.05Z"/>
            <path class="cls-6" d="M292.62,92.16c-.24.13-.48.24-.71.35-.38-.97-.66-1.82-.81-2.3-.02-.06-.03-.12-.05-.16-.08-.3-.2-.61-.35-.93-1.86-3.75-5.45-7.58-5.45-7.58l11.82-10.05c.23.45.46.9.71,1.36,1.37,4.93,2.94,15.01-5.16,19.31Z"/>
          </g>
          <g>
            <path class="cls-1" d="M291.37,57.01c3.88,4.02,8.39,19.05,6.56,23.84-2.64,6.95-10.46,11.47-17.24,7.5-6.58-3.85-12.1-23.54-9.74-28.26,3.47-6.95,14.69-9.02,20.42-3.09Z"/>
            <g>
              <g>
                <path class="cls-6" d="M282.27,72.68s.09.02.11.06c.33,1,.89,2.1,1.9,2.09.03,0,.05.05.01.06-1.15.25-1.87-1.21-2.02-2.21Z"/>
                <path class="cls-6" d="M282.78,71.32c1.55-.71,2.85,2.44,1.42,3.1-1.41.65-2.72-2.51-1.42-3.1Z"/>
              </g>
              <g>
                <path class="cls-6" d="M276.67,75.05s-.06.08-.04.12c.43.96.77,2.14.02,2.83-.02.02,0,.07.03.05,1.02-.6.55-2.16-.01-3Z"/>
                <path class="cls-6" d="M275.37,74.39c-1.62.53-.44,3.73,1.06,3.24,1.48-.48.3-3.68-1.06-3.24Z"/>
              </g>
              <path class="cls-6" d="M283.22,68.76c-.47.08-.92.08-1.4.12-.54.04-.96.12-1.45-.15-.26-.15-.37-.58-.25-.84.28-.62.93-.83,1.57-.91.7-.08,1.26.04,1.85.42.57.37.3,1.26-.32,1.37Z"/>
              <path class="cls-6" d="M273.07,72.24c.41-.25.74-.55,1.12-.84.43-.33.8-.55.98-1.08.1-.29-.11-.68-.37-.8-.62-.28-1.25,0-1.77.37-.57.41-.91.87-1.1,1.54-.18.66.62,1.14,1.15.81Z"/>
              <path class="cls-6" d="M287.15,80.85c-.14.33-.24.74-.58.91-.33.17-.79.18-1.15.19-.04,0-.05.05-.02.07.41.27,1.04.28,1.46.02.41-.26.47-.73.41-1.18,0-.06-.09-.05-.11,0Z"/>
              <path class="cls-6" d="M284.91,78.35c-.2,1.07-.81,1.87-1.61,2.4-.36.24-.76.42-1.17.55-.08.03-.16.05-.24.07-.07.02-.14.04-.23.06-.12.03-.22-.04-.29-.14h0s-.03-.07-.03-.11h0s-.03-.09-.03-.09c-.33-.74-.73-1.92-.73-1.92-.22.25-1.36,1.46-1.5,1.06-1.15-3.33-2.43-7.04-2.87-10.6-.02-.12.15-.16.19-.05,1.23,3.16,1.9,6.51,3.09,9.71.38-.35.98-.97,1.37-1.13.12-.01.73,2.28.91,2.6,0,0,0,.01.02.03,1.33-.36,2.12-1.14,3-2.49.05-.09.15-.05.13.05Z"/>
            </g>
            <g>
              <path class="cls-6" d="M296.89,71.49c-2.89.53-5.25-6.45-5.25-6.45,0,0-3.87-.16-7.06-6.16,0,0-.29,7.04-12.23,9.43,0,0-1.56-2.49-1.13-6.26,0,0-.64,2.69-.86,7.14,0,0-5.88-8.64,1.16-14.69,2.8-2.4,7.82-3.75,16.52-2.51,0,0-.04-4.96,1.02-4.65,1.06.31.77,5.04.77,5.04,0,0,2.95-2.1,3.73-1.59.67.44-2.22,2.31-2.22,2.31,0,0,5.56-.05,6.63,6.03.98,5.58.34,12.1-1.09,12.37Z"/>
              <path class="cls-6" d="M290.41,53.31c2.94-1.08,6.32.21,7.73,3.02.78,1.56.95,3.47.94,5.19-.01,1.89-.41,3.67-.89,5.48-.03.1-.18.04-.15-.06.46-1.62.56-3.37.5-5.06-.05-1.58-.21-3.31-.77-4.8-1.12-2.96-4.29-4.44-7.31-3.61-.1.03-.14-.13-.05-.17Z"/>
              <path class="cls-6" d="M277.56,50.76c2.08-.23,4.24-.1,6.3.22,1.97.3,3.96.76,5.73,1.71.09.05.04.19-.06.15-3.6-1.22-7.57-1.47-11.36-1.31-3.54.14-7.37,1.4-8.97,4.84-.03.06-.11.02-.09-.04,1.29-3.48,4.96-5.19,8.44-5.58Z"/>
            </g>
            <g>
              <path class="cls-1" d="M294.18,70.21s.96-6.01,3.54-5.88c2.58.13,3.38,7.79,1.42,9.84-1.96,2.05-3.89.27-3.89.27l-1.07-4.23Z"/>
              <path class="cls-6" d="M297.9,66.52s.07.03.04.06c-1.35,1.49-1.48,3.48-1.31,5.39.2-.86.71-1.53,1.83-1.34.06,0,.05.1,0,.11-.76.19-1.2.55-1.39,1.32-.14.55-.12,1.15-.14,1.71,0,.19-.32.24-.34.04,0-.01,0-.03,0-.05-1.08-2.12-.87-5.92,1.32-7.25Z"/>
            </g>
          </g>
        </g>
        <g>
          <g>
            <path class="cls-1" d="M316.85,97.37c5.06,17.76,8.28,51.22,5.72,57.29-2.27,5.38-19.41,17.88-29.26,24.57-3.21,2.17-18.75-22.38-15.2-24.52,4.83-2.91,22.19-14.37,22.61-15.61.47-1.36,2.01-26.38,4.66-40.79,2.41-13.06,9.55-7.65,11.47-.93Z"/>
            <g>
              <path class="cls-1" d="M245.34,183.66c2.42,2.48,8.02-4.02,8.02-4.02,0,0-.57,2.32.6,4.31,1.34,2.27,5.48,1.17,5.48,1.17,0,0-.09,2.47,1.36,4.44,1.5,2.04,5.84,1.53,5.84,1.53,0,0,1.18,2.35,3.65,3.15,4.22,1.38,9.13-3.36,12.76-5.7,3.88-2.5,9.27-7.76,11.2-10.52l-14.58-23.71s-20.65,5.14-24.11,8.91c-2.92,3.17-13.92,16.67-10.22,20.45Z"/>
              <g>
                <path class="cls-6" d="M253.34,179.52c2.29-4.12,5.57-7.68,8.77-11.08.07-.08.19.04.12.11-3.22,3.35-5.62,7.64-8.7,11.1-.08.1-.24-.02-.18-.13Z"/>
                <path class="cls-6" d="M259.28,184.78c.55-.92,1.39-1.65,2.16-2.38.82-.79,1.65-1.56,2.5-2.33,1.69-1.53,3.42-3.01,5.19-4.45.08-.06.2.04.12.11-1.69,1.52-3.35,3.07-4.97,4.67-.81.8-1.61,1.6-2.41,2.41-.74.75-1.46,1.61-2.36,2.18-.13.08-.31-.08-.23-.22Z"/>
                <path class="cls-6" d="M266.7,191.02c.44-.82,1.36-1.44,2.06-2.04.79-.68,1.57-1.36,2.35-2.05,1.56-1.38,3.11-2.75,4.62-4.18.08-.07.19.04.12.11-1.52,1.46-3.03,2.94-4.57,4.39-.76.71-1.51,1.42-2.28,2.12-.65.6-1.39,1.42-2.23,1.74-.05.02-.09-.04-.07-.08Z"/>
              </g>
            </g>
          </g>
          <g>
            <path class="cls-11" d="M325.89,138.37l-27.56.34s3.54-30.39,7.35-43.62c3.2-11.12,9.86-10.1,13.52,4.26,3.46,13.59,6.7,39.03,6.7,39.03Z"/>
            <path class="cls-6" d="M325.39,134.59l-.09-.15c-1.27-1.48-1.86-3.69-1.85-5.55.01-.63.08-1.77.83-1.99.46,3.03.83,5.7,1.11,7.69ZM303.94,109.24c.71-1.86,2.14-3.32,3.7-4.5.84-.64,2.45-2,3.07-.4.21.53.11,1.21-.11,1.9-.31,1.19-1.08,2.4-1.65,3.18-.87,1.2-2.35,2.8-4,2.61-1.53-.18-1.42-1.67-1-2.8ZM313.75,100.84c.17-2.09.61-4.29,2.03-5.92.65-.76,1.44-1.03,2.08-.57.72.36,1.04,1.53,1.18,2.38.32,2.01.07,4.15-.77,6.02-.53,1.18-1.47,2.83-3.02,2.56-2-.35-1.62-3.06-1.51-4.48ZM305.99,102.06c-.91-.64-.18-3.3.55-4.58.94-1.64,2.54-3.52,4-2.93.74.31.95,2.24-.5,4.78-1.34,2.35-3.31,3.24-4.06,2.72ZM304.35,130.28c-.16.73-.56,2.06-1.4,2.33-.79.25-1.19-.55-1.35-1.17-.17-.68-.32-1.88-.21-2.98.06-1.34.51-2.61,1.68-2.99,2.32-.75,1.48,3.87,1.28,4.81Z"/>
            <path class="cls-6" d="M302,132.97c1.75-.3,3.54-.31,5.29-.4,1.82-.1,3.64-.13,5.46-.17,1.82-.04,9.06.08,10.87.11.08,0,.07.15-.01.15-1.82.1-9.05.51-10.83.54-1.78.03-3.57.08-5.34.05-1.8-.03-3.66.05-5.42-.19-.04,0-.05-.08,0-.09Z"/>
            <g>
              <path class="cls-6" d="M320.34,104.32c2.46,11.27,4.82,22.65,5.66,34.17-.96-.02-1.93-.04-2.89-.08.92-.06,1.85-.11,2.77-.15-1.82-10.43-3.96-22.95-5.54-33.93h0Z"/>
              <path class="cls-6" d="M321.58,105.84c.46,1.71.51,3.54,0,5.24-.17-1.77-.22-3.47,0-5.24h0Z"/>
            </g>
          </g>
        </g>
      </g>
    </g>
  </g>
  <g id="Plant">
    <g>
      <g>
        <g>
          <path class="cls-11" d="M58.92,346.26s17.1-3.88,26.47-12.51c9.37-8.64,14.61-24.11,14.61-24.11,0,0-10.07,1.84-19.18,5.04-1.53,1.64-4.44,5.01-5.8,8.2,0,0-.29-3.37-.05-5.86-2.44,1.12-4.56,2.37-6.09,3.7-7.77,6.8-9.97,25.55-9.97,25.55Z"/>
          <g>
            <path class="cls-6" d="M89.32,317.16c2.33-1.61,4.7-3.17,7.03-4.8.14-.1,0-.32-.14-.23-4.41,2.63-8.75,5.44-12.95,8.39-1.47,1.03-2.9,2.1-4.33,3.19.1-.17.2-.34.3-.51.51-.86,1.05-1.7,1.59-2.54,1.09-1.69,2.28-3.36,3.63-4.85.05-.06-.04-.14-.08-.08-1.33,1.54-2.66,3.05-3.88,4.68-.58.77-1.11,1.58-1.62,2.4-.27.43-.52.85-.77,1.29-.08.15-.17.29-.26.44-2.21,1.74-4.36,3.55-6.42,5.46-1.27,1.18-2.49,2.41-3.67,3.67.66-2.07,1.24-4.16,2.01-6.2.03-.07-.09-.1-.11-.03-.74,2.14-1.56,4.28-2.13,6.48-1.31,1.41-2.56,2.88-3.74,4.41.02-.09.04-.19.06-.28.19-.81.4-1.61.61-2.41.42-1.55.87-3.08,1.39-4.6,1.07-3.11,2.46-6.15,4.59-8.68.05-.06-.04-.14-.08-.08-3.34,3.95-5.3,8.7-6.55,13.67-.18.73-.36,1.46-.52,2.19-.09.39-.19.78-.26,1.18-.52.7-1.02,1.4-1.51,2.13-2.97,4.42-5.28,9.25-7.23,14.19-2.2,5.57-3.91,11.32-5.48,17.08-.03.11.14.15.18.04,3.34-10.01,6.76-20.15,12.48-29.1,1.21-1.89,2.52-3.71,3.9-5.46,2.81-.16,5.65-.77,8.32-1.66,2.95-.98,5.73-2.34,8.33-4.02,1.51-.97,2.88-2.11,4.27-3.23.06-.05,0-.14-.07-.09-2.31,1.96-5.09,3.49-7.84,4.74-2.76,1.26-5.66,2.25-8.63,2.89-1.26.28-2.54.48-3.82.65,1.58-1.95,3.27-3.81,5.04-5.59.58-.58,1.17-1.13,1.77-1.68,1.96-1.43,4.14-2.57,6.32-3.62,2.8-1.35,5.56-2.79,8.33-4.2,1.56-.8,3.12-1.61,4.7-2.38.07-.03,0-.13-.06-.1-2.81,1.36-5.66,2.63-8.5,3.93-2.67,1.22-5.37,2.45-7.93,3.89-.11.06-.21.13-.32.19,2.32-2.02,4.71-3.94,7.17-5.79,2.27-1.71,4.57-3.39,6.9-5Z"/>
            <path class="cls-6" d="M88.35,325.98c-1.39.61-2.81,1.15-4.18,1.79-1.42.66-2.76,1.44-4.1,2.23-.06.03,0,.12.06.09,1.36-.65,2.74-1.26,4.09-1.94,1.38-.7,2.75-1.44,4.17-2.06.07-.03.04-.14-.03-.11Z"/>
          </g>
        </g>
        <g>
          <path class="cls-11" d="M3.37,260.09s4.8,5.5,5.11,14.2c.06,1.53-.19,3.67-.36,6.18,6.38,3.4,11.16,9.54,11.16,9.54-3.62-2.18-8.59-3.05-11.28-2.7.09,1.65.29,3.37.65,5.11,1.18-.07,3.47.09,7.25,1.43,0,0-3.71-.09-6.54,1.3,3.05,9.7,12.11,19.66,37.13,23.89,0,0,4.83-16.99-4.43-35.21-7.5-14.75-38.69-23.75-38.69-23.75Z"/>
          <g>
            <path class="cls-6" d="M55.15,360.54c-.43-4.14-.98-8.27-1.62-12.39-1.28-8.24-2.94-16.43-5.05-24.49-.99-3.8-2.18-7.53-3.61-11.16.09-.66.08-1.34.09-2,.02-.8.02-1.6.01-2.4-.02-1.6-.09-3.2-.23-4.8-.27-3.15-.75-6.31-1.54-9.38-.46-1.78-.99-3.54-1.51-5.3-.02-.07-.13-.04-.11.03.88,3.05,1.39,6.22,1.85,9.36.45,3.11.73,6.25.84,9.39.03.86.05,1.72.05,2.58,0,.36-.02.73-.03,1.11-1.23-2.98-2.62-5.89-4.22-8.73-2.52-4.48-5.42-8.74-8.56-12.81.03-.46-.11-.95-.21-1.4-.12-.56-.24-1.12-.36-1.67-.26-1.14-.54-2.28-.85-3.41-.62-2.27-1.44-4.46-2.15-6.7-.02-.07-.13-.04-.11.03.66,2.22,1.1,4.51,1.61,6.77.25,1.12.5,2.23.74,3.35.12.56.24,1.12.36,1.68,0,.04.01.08.02.12-1.01-1.28-2.04-2.53-3.1-3.77-4.78-5.6-10.02-10.77-15.29-15.9-.65-.63-1.31-1.25-1.97-1.87-.05-.05-.13.03-.08.08,5.04,5.26,10,10.57,14.7,16.14,1.12,1.32,2.22,2.66,3.3,4.02-.57-.39-1.14-.76-1.71-1.13-1.46-.95-2.93-1.88-4.45-2.73-1.52-.85-3.05-1.68-4.61-2.45-1.6-.8-3.32-1.44-4.87-2.34-.07-.04-.12.07-.06.1,1.6.65,3.09,1.65,4.57,2.53,1.52.9,3.04,1.81,4.54,2.76,1.47.93,2.95,1.85,4.41,2.8,1.22.79,2.42,1.65,3.68,2.38,2.89,3.74,5.6,7.61,8.02,11.67,1.52,2.56,2.9,5.18,4.14,7.86-.3-.13-.6-.26-.9-.39-.76-.34-1.53-.68-2.29-1.02-1.47-.65-2.95-1.29-4.43-1.93-2.81-1.22-5.66-2.34-8.41-3.68-1.54-.75-3.06-1.54-4.49-2.49-.06-.04-.12.06-.06.1,5.13,3.54,10.88,6.03,16.56,8.54l2.46,1.09c.68.3,1.35.63,2.05.9,1.68,3.75,3.09,7.62,4.23,11.59,2.28,7.95,4.01,16.07,5.44,24.2,1.44,8.17,2.4,16.4,3.16,24.66.09,1.03.19,2.06.3,3.09.05.41.66.41.65-.02-.05-4.19-.48-8.39-.91-12.56Z"/>
            <path class="cls-6" d="M39.93,291.44c-.46-2.54-1.14-5.03-1.82-7.52-.02-.07-.13-.04-.11.03.63,2.44,1.09,4.94,1.54,7.42.47,2.53.88,5.07,1.24,7.62,0,.04.07.04.07,0-.17-2.53-.47-5.05-.92-7.54Z"/>
            <path class="cls-6" d="M29.15,298.34c-1.7-1.2-3.6-2.11-5.44-3.06-.91-.47-1.84-.92-2.76-1.37-.95-.46-1.94-.85-2.89-1.32-.07-.03-.12.07-.06.1.91.46,1.78,1.01,2.68,1.5.93.51,1.85,1.02,2.78,1.52,1.83.98,3.63,2.07,5.55,2.87.17.07.28-.14.13-.24Z"/>
          </g>
        </g>
        <g>
          <path class="cls-3" d="M59.23,316.64s15.82-3.78,23.09-14.39c6.94-10.14,9.18-27.42,9.36-28.94-.29,1.39-3.55,16.5-14.32,23.53-8.25,5.39-16.22,9.82-18.12,19.8Z"/>
          <path class="cls-6" d="M73.83,289.3c-2.78,2.68-4.87,5.84-5.83,9.61,0,.03.04.05.05.02,1.19-3.51,3.15-6.98,5.86-9.54.05-.05-.02-.14-.08-.09Z"/>
          <g>
            <path class="cls-11" d="M59.23,316.64s15.82-3.78,23.09-14.39c6.94-10.14,9.18-27.42,9.36-28.94.01-.07.02-.11.02-.11,0,0-7.59,10.79-15.56,13.54-7.98,2.75-19.19,12.27-16.9,29.9Z"/>
            <path class="cls-6" d="M88.89,279.15c-1.47,2.88-3.01,5.73-4.89,8.36-1.84,2.56-4.05,4.74-6.51,6.7-2.15,1.71-4.42,3.25-6.6,4.93.02-.03.03-.05.05-.08.41-.61.85-1.2,1.3-1.77.91-1.16,1.9-2.25,2.89-3.33,1.97-2.13,3.97-4.23,5.74-6.54.98-1.28,1.83-2.64,2.54-4.09.03-.07-.08-.1-.11-.04-2.57,5.35-7.69,8.77-11.35,13.29-.52.64-1.01,1.31-1.46,2-.32.49-.7,1.03-.91,1.61-1.99,1.63-3.83,3.41-5.4,5.46.13-1.04.36-2.07.64-3.07.39-1.42.91-2.75,1.68-4.01.04-.06-.06-.13-.1-.06-.74,1.25-1.42,2.59-1.85,3.98-.35,1.13-.51,2.26-.58,3.42,0,0,0,0,0,.01-.79,1.06-1.49,2.18-2.14,3.32.07-.34.13-.68.2-1.01.31-1.58.66-3.15,1.07-4.7.83-3.15,1.95-6.21,3.81-8.91.04-.06-.05-.13-.1-.06-1.83,2.67-3.22,5.65-4.22,8.72-.5,1.55-.91,3.13-1.26,4.72-.17.78-.33,1.56-.48,2.34-.08.41-.17.82-.23,1.24-1.62,3.42-2.75,7.08-3.65,10.73-1.61,6.56-2.62,13.3-3.37,20.01-.79,7.04-1.21,14.16-1.09,21.24.01.89.07,1.78.12,2.67.01.23.36.26.37.02.16-3.51.25-7.02.45-10.53.21-3.51.51-7.01.89-10.51.74-6.86,1.8-13.72,3.3-20.46,1.28-5.79,2.95-11.61,6.11-16.68,1.58-2.54,3.48-4.79,5.71-6.79,2.22-1.99,4.64-3.74,6.98-5.58,2.33-1.83,4.56-3.83,6.41-6.16,1.99-2.51,3.56-5.33,5.03-8.17.37-.72.76-1.43,1.13-2.14.03-.07-.06-.13-.1-.06Z"/>
            <path class="cls-6" d="M86.16,281.47c-1.01,2.14-2.24,4.18-3.53,6.16-.03.05.04.09.07.05,1.38-1.94,2.53-4.03,3.56-6.17.03-.07-.08-.1-.11-.04Z"/>
          </g>
        </g>
        <g>
          <path class="cls-11" d="M1.16,309.64s-.25,22.49,13.19,28.98c13.44,6.5,20.65,1.08,29.79,3.26,0,0,0,0-.02-.01-.35-.54-6.87-9.91-17.25-12.49-10.67-2.66-22.49-10.37-25.72-19.74Z"/>
          <path class="cls-12" d="M1.16,309.64s-.25,22.49,13.19,28.98c13.44,6.5,20.65,1.08,29.79,3.26,0,0,0,0-.02-.01-.38-.18-7.05-3.52-15.29-4.51-8.48-1.02-24.67-6.55-27.68-27.72Z"/>
          <g>
            <path class="cls-6" d="M45.03,342.28c-1.6-1.45-3.4-2.69-5.35-3.62-.29-.14-.58-.25-.88-.37-.14-.18-.29-.35-.45-.52-.4-.42-.82-.82-1.27-1.2-.84-.72-1.74-1.39-2.7-1.95-2.23-1.31-4.67-2.23-6.95-3.44-.07-.04-.12.07-.06.1,1.13.58,2.22,1.23,3.31,1.87,1.07.62,2.15,1.21,3.19,1.88.93.6,1.83,1.26,2.66,1.99.24.21.46.43.69.66-1.48-.51-3.01-.9-4.54-1.21-2.46-.5-4.95-.85-7.41-1.37-1.21-.26-2.4-.58-3.57-.96-1.12-.9-2.23-1.79-3.29-2.76-1.28-1.18-2.45-2.45-3.48-3.85-.04-.06-.14,0-.1.06,1.66,2.14,3.44,4.3,5.51,6.08-.58-.22-1.15-.46-1.72-.71-4.57-2.08-8.63-5.37-11.46-9.53-.04-.06-.14,0-.1.06,2.46,3.56,5.58,6.61,9.27,8.9,1.85,1.15,3.79,2.08,5.86,2.77,2.37.79,4.83,1.26,7.28,1.72,2.4.45,4.81.91,7.13,1.7,2.14.73,4.16,1.79,5.98,3.14,3.46,2.59,6.14,6.14,8.06,9.99,2.54,5.11,3.76,10.81,4.44,16.44.03.24.4.24.38,0-.63-9.45-3.16-19.29-10.44-25.85Z"/>
            <path class="cls-6" d="M29.43,334.94c-.67-1.07-1.68-1.88-2.76-2.51-1.27-.73-2.41-1.52-3.29-2.72-.04-.06-.14,0-.1.06.81,1.04,1.79,1.9,2.9,2.6,1.17.74,2.36,1.46,3.16,2.62.04.05.12,0,.08-.05Z"/>
          </g>
        </g>
      </g>
      <g>
        <g>
          <polygon class="cls-10" points="36.56 358.87 37.17 371.24 39.05 409.02 67.25 409.02 69.13 371.24 69.74 358.87 36.56 358.87"/>
          <polygon class="cls-6" points="36.56 358.87 37.17 371.24 69.13 371.24 69.74 358.87 36.56 358.87"/>
        </g>
        <rect class="cls-10" x="34.59" y="353.71" width="37.13" height="11.8" transform="translate(106.3 719.22) rotate(180)"/>
      </g>
    </g>
  </g>
</svg>